{
copyright = "Copyright (c) 2015, Cadson Demak (info@cadsondemak.com)";
customParameters = (
{
name = vendorID;
value = CDK;
},
{
name = description;
value = "Copyright (c) 2015, Cadson Demak (info@cadsondemak.com)";
},
{
name = license;

glyphs = (
{
glyphname = A;
lastChange = "2015-07-20 11:46:50 +0000";
layers = (
{
layerId = "0B91E381-1358-4F31-B824-AB2EAC4429E5";
name = Light;
paths = (
{
closed = 1;
nodes = (
"110 66 OFFCURVE",
"133 147 OFFCURVE",
"153 215 CURVE",
"426 215 LINE",
"447 147 OFFCURVE",
"470 66 OFFCURVE",
"487 0 CURVE",
"536 6 LINE",
"481 205 OFFCURVE",
"411 432 OFFCURVE",
"344 612 CURVE",
"236 612 LINE",
"169 432 OFFCURVE",
"99 205 OFFCURVE",
"44 6 CURVE",
"93 0 LINE"
);
},
{
closed = 1;
nodes = (
"197 363 OFFCURVE",
"240 496 OFFCURVE",
"266 567 CURVE",
"312 567 LINE",
"339 496 OFFCURVE",
"381 363 OFFCURVE",
"412 258 CURVE",
"166 258 LINE"
);
}
);
width = 580;
}
);
leftKerningGroup = A;
rightKerningGroup = A;
unicode = 0041;
},
{
glyphname = Aacute;
lastChange = "2015-07-20 11:34:17 +0000";
layers = (
{
components = (
{
name = A;
}
);
layerId = "0B91E381-1358-4F31-B824-AB2EAC4429E5";
name = Light;
paths = (
{
closed = 1;
nodes = (
"417 847 LINE",
"355 854 LINE",
"271 713 LINE",
"303 708 LINE"
);
}
);
width = 580;
}
);
leftKerningGroup = A;
note = Aacute;
rightKerningGroup = A;
unicode = 00C1;
},
{
glyphname = Abreve;
lastChange = "2015-07-20 11:34:17 +0000";
layers = (
{
components = (
{
name = A;
}
);
layerId = "0B91E381-1358-4F31-B824-AB2EAC4429E5";
name = Light;
paths = (
{
closed = 1;
nodes = (
"366 708 OFFCURVE",
"400 752 OFFCURVE",
"411 808 CURVE",
"366 816 LINE",
"358 775 OFFCURVE",
"343 746 OFFCURVE",
"289 746 CURVE SMOOTH",
"235 746 OFFCURVE",
"220 775 OFFCURVE",
"212 816 CURVE",
"167 808 LINE",
"178 752 OFFCURVE",
"212 708 OFFCURVE",
"289 708 CURVE SMOOTH"
);
}
);
width = 580;
}
);
leftKerningGroup = A;
note = Abreve;
rightKerningGroup = A;
unicode = 0102;
},
{
glyphname = Abreveacute;
lastChange = "2015-07-20 11:34:17 +0000";
layers = (
{
layerId = "0B91E381-1358-4F31-B824-AB2EAC4429E5";
name = Light;
paths = (
{
closed = 1;
nodes = (
"110 66 OFFCURVE",
"133 147 OFFCURVE",
"153 215 CURVE",
"426 215 LINE",
"447 147 OFFCURVE",
"470 66 OFFCURVE",
"487 0 CURVE",
"536 6 LINE",
"481 205 OFFCURVE",
"411 432 OFFCURVE",
"344 612 CURVE",
"236 612 LINE",
"169 432 OFFCURVE",
"99 205 OFFCURVE",
"44 6 CURVE",
"93 0 LINE"
);
},
{
closed = 1;
nodes = (
"197 363 OFFCURVE",
"240 496 OFFCURVE",
"266 567 CURVE",
"312 567 LINE",
"339 496 OFFCURVE",
"381 363 OFFCURVE",
"412 258 CURVE",
"166 258 LINE"
);
},
{
closed = 1;
nodes = (
"366 708 OFFCURVE",
"400 752 OFFCURVE",
"411 808 CURVE",
"366 816 LINE",
"358 775 OFFCURVE",
"343 746 OFFCURVE",
"289 746 CURVE SMOOTH",
"235 746 OFFCURVE",
"220 775 OFFCURVE",
"212 816 CURVE",
"167 808 LINE",
"178 752 OFFCURVE",
"212 708 OFFCURVE",
"289 708 CURVE SMOOTH"
);
},
{
closed = 1;
nodes = (
"378 955 LINE",
"330 964 LINE",
"269 860 LINE",
"297 854 LINE"
);
}
);
width = 580;
}
);
leftKerningGroup = A;
note = Abreveacute;
rightKerningGroup = A;
unicode = 1EAE;
},
{
glyphname = Abrevedotbelow;
lastChange = "2015-07-20 11:34:17 +0000";
layers = (
{
layerId = "0B91E381-1358-4F31-B824-AB2EAC4429E5";
name = Light;
paths = (
{
closed = 1;
nodes = (
"110 66 OFFCURVE",
"133 147 OFFCURVE",
"153 215 CURVE",
"426 215 LINE",
"447 147 OFFCURVE",
"470 66 OFFCURVE",
"487 0 CURVE",
"536 6 LINE",
"481 205 OFFCURVE",
"411 432 OFFCURVE",
"344 612 CURVE",
"236 612 LINE",
"169 432 OFFCURVE",
"99 205 OFFCURVE",
"44 6 CURVE",
"93 0 LINE"
);
},
{
closed = 1;
nodes = (
"318 -152 OFFCURVE",
"333 -138 OFFCURVE",
"333 -112 CURVE SMOOTH",
"333 -85 OFFCURVE",
"318 -70 OFFCURVE",
"291 -70 CURVE SMOOTH",
"263 -70 OFFCURVE",
"247 -85 OFFCURVE",
"247 -112 CURVE SMOOTH",
"247 -138 OFFCURVE",
"263 -152 OFFCURVE",
"291 -152 CURVE SMOOTH"
);
},
{
closed = 1;
nodes = (
"197 363 OFFCURVE",
"240 496 OFFCURVE",
"266 567 CURVE",
"312 567 LINE",
"339 496 OFFCURVE",
"381 363 OFFCURVE",
"412 258 CURVE",
"166 258 LINE"
);
},
{
closed = 1;
nodes = (
"366 708 OFFCURVE",
"400 752 OFFCURVE",
"411 808 CURVE",
"366 816 LINE",
"358 775 OFFCURVE",
"343 746 OFFCURVE",
"289 746 CURVE SMOOTH",
"235 746 OFFCURVE",
"220 775 OFFCURVE",
"212 816 CURVE",
"167 808 LINE",
"178 752 OFFCURVE",
"212 708 OFFCURVE",
"289 708 CURVE SMOOTH"
);
}
);
width = 580;
}
);
leftKerningGroup = A;
note = Abrevedotbelow;
rightKerningGroup = A;
unicode = 1EB6;
},
{
glyphname = Abrevegrave;
lastChange = "2015-07-20 11:34:17 +0000";
layers = (
{
layerId = "0B91E381-1358-4F31-B824-AB2EAC4429E5";
name = Light;
paths = (
{
closed = 1;
nodes = (
"110 66 OFFCURVE",
"133 147 OFFCURVE",
"153 215 CURVE",
"426 215 LINE",
"447 147 OFFCURVE",
"470 66 OFFCURVE",
"487 0 CURVE",
"536 6 LINE",
"481 205 OFFCURVE",
"411 432 OFFCURVE",
"344 612 CURVE",
"236 612 LINE",
"169 432 OFFCURVE",
"99 205 OFFCURVE",
"44 6 CURVE",
"93 0 LINE"
);
},
{
closed = 1;
nodes = (
"197 363 OFFCURVE",
"240 496 OFFCURVE",
"266 567 CURVE",
"312 567 LINE",
"339 496 OFFCURVE",
"381 363 OFFCURVE",
"412 258 CURVE",
"166 258 LINE"
);
},
{
closed = 1;
nodes = (
"365 708 OFFCURVE",
"399 752 OFFCURVE",
"410 808 CURVE",
"365 816 LINE",
"357 775 OFFCURVE",
"342 746 OFFCURVE",
"288 746 CURVE SMOOTH",
"234 746 OFFCURVE",
"219 775 OFFCURVE",
"211 816 CURVE",
"166 808 LINE",
"177 752 OFFCURVE",
"211 708 OFFCURVE",
"288 708 CURVE SMOOTH"
);
},
{
closed = 1;
nodes = (
"309 860 LINE",
"247 964 LINE",
"200 955 LINE",
"281 854 LINE"
);
}
);
width = 580;
}
);
leftKerningGroup = A;
note = Abrevegrave;
rightKerningGroup = A;
unicode = 1EB0;
},
{
glyphname = Abrevehookabove;
lastChange = "2015-07-20 11:34:17 +0000";
layers = (
{
layerId = "0B91E381-1358-4F31-B824-AB2EAC4429E5";
name = Light;
paths = (
{
closed = 1;
nodes = (
"110 66 OFFCURVE",
"133 147 OFFCURVE",
"153 215 CURVE",
"426 215 LINE",
"447 147 OFFCURVE",
"470 66 OFFCURVE",
"487 0 CURVE",
"536 6 LINE",
"481 205 OFFCURVE",
"411 432 OFFCURVE",
"344 612 CURVE",
"236 612 LINE",
"169 432 OFFCURVE",
"99 205 OFFCURVE",
"44 6 CURVE",
"93 0 LINE"
);
},
{
closed = 1;
nodes = (
"197 363 OFFCURVE",
"240 496 OFFCURVE",
"266 567 CURVE",
"312 567 LINE",
"339 496 OFFCURVE",
"381 363 OFFCURVE",
"412 258 CURVE",
"166 258 LINE"
);
},
{
closed = 1;
nodes = (
"366 708 OFFCURVE",
"400 752 OFFCURVE",
"411 808 CURVE",
"366 816 LINE",
"358 775 OFFCURVE",
"343 746 OFFCURVE",
"289 746 CURVE SMOOTH",
"235 746 OFFCURVE",
"220 775 OFFCURVE",
"212 816 CURVE",
"167 808 LINE",
"178 752 OFFCURVE",
"212 708 OFFCURVE",
"289 708 CURVE SMOOTH"
);
},
{
closed = 1;
nodes = (
"300 840 LINE",
"300 876 LINE",
"340 877 OFFCURVE",
"362 894 OFFCURVE",
"362 927 CURVE SMOOTH",
"362 961 OFFCURVE",
"343 981 OFFCURVE",
"303 981 CURVE SMOOTH",
"285 981 OFFCURVE",
"270 978 OFFCURVE",
"252 972 CURVE",
"259 945 LINE",
"272 949 OFFCURVE",
"285 952 OFFCURVE",
"298 952 CURVE SMOOTH",
"320 952 OFFCURVE",
"330 945 OFFCURVE",
"330 927 CURVE SMOOTH",
"330 908 OFFCURVE",
"315 901 OFFCURVE",
"268 901 CURVE",
"268 881 LINE",
"277 840 LINE"
);
}
);
width = 580;
}
);
leftKerningGroup = A;
note = Abrevehookabove;
rightKerningGroup = A;
unicode = 1EB2;
},
{
glyphname = Abrevetilde;
lastChange = "2015-07-20 11:34:17 +0000";
layers = (
{
layerId = "0B91E381-1358-4F31-B824-AB2EAC4429E5";
name = Light;
paths = (
{
closed = 1;
nodes = (
"110 66 OFFCURVE",
"133 147 OFFCURVE",
"153 215 CURVE",
"426 215 LINE",
"447 147 OFFCURVE",
"470 66 OFFCURVE",
"487 0 CURVE",
"536 6 LINE",
"481 205 OFFCURVE",
"411 432 OFFCURVE",
"344 612 CURVE",
"236 612 LINE",
"169 432 OFFCURVE",
"99 205 OFFCURVE",
"44 6 CURVE",
"93 0 LINE"
);
},
{
closed = 1;
nodes = (
"197 363 OFFCURVE",
"240 496 OFFCURVE",
"266 567 CURVE",
"312 567 LINE",
"339 496 OFFCURVE",
"381 363 OFFCURVE",
"412 258 CURVE",
"166 258 LINE"
);
},
{
closed = 1;
nodes = (
"366 708 OFFCURVE",
"400 752 OFFCURVE",
"411 808 CURVE",
"366 816 LINE",
"358 775 OFFCURVE",
"343 746 OFFCURVE",
"289 746 CURVE SMOOTH",
"235 746 OFFCURVE",
"220 775 OFFCURVE",
"212 816 CURVE",
"167 808 LINE",
"178 752 OFFCURVE",
"212 708 OFFCURVE",
"289 708 CURVE SMOOTH"
);
},
{
closed = 1;
nodes = (
"211 901 OFFCURVE",
"224 912 OFFCURVE",
"249 912 CURVE SMOOTH",
"282 912 OFFCURVE",
"298 879 OFFCURVE",
"341 879 CURVE SMOOTH",
"373 879 OFFCURVE",
"397 898 OFFCURVE",
"403 943 CURVE",
"377 951 LINE",
"371 925 OFFCURVE",
"359 914 OFFCURVE",
"334 914 CURVE SMOOTH",
"308 914 OFFCURVE",
"288 947 OFFCURVE",
"242 947 CURVE SMOOTH",
"209 947 OFFCURVE",
"186 928 OFFCURVE",
"179 883 CURVE",
"205 876 LINE"
);
}
);
width = 580;
}
);
leftKerningGroup = A;
note = Abrevetilde;
rightKerningGroup = A;
unicode = 1EB4;
},
{
glyphname = Acaron;
lastChange = "2015-07-20 11:34:17 +0000";
layers = (
{
layerId = "0B91E381-1358-4F31-B824-AB2EAC4429E5";
name = Light;
paths = (
{
closed = 1;
nodes = (
"110 66 OFFCURVE",
"133 147 OFFCURVE",
"153 215 CURVE",
"426 215 LINE",
"447 147 OFFCURVE",
"470 66 OFFCURVE",
"487 0 CURVE",
"536 6 LINE",
"481 205 OFFCURVE",
"411 432 OFFCURVE",
"344 612 CURVE",
"236 612 LINE",
"169 432 OFFCURVE",
"99 205 OFFCURVE",
"44 6 CURVE",
"93 0 LINE"
);
},
{
closed = 1;
nodes = (
"197 363 OFFCURVE",
"240 496 OFFCURVE",
"266 567 CURVE",
"312 567 LINE",
"339 496 OFFCURVE",
"381 363 OFFCURVE",
"412 258 CURVE",
"166 258 LINE"
);
},
{
closed = 1;
nodes = (
"314 714 LINE",
"415 845 LINE",
"385 852 LINE",
"292 754 LINE",
"287 754 LINE",
"193 852 LINE",
"163 845 LINE",
"265 714 LINE"
);
}
);
width = 580;
}
);
leftKerningGroup = A;
note = Acaron;
rightKerningGroup = A;
unicode = 01CD;
},
{
glyphname = Acircumflex;
lastChange = "2015-07-20 11:34:17 +0000";
layers = (
{
components = (
{
name = A;
}
);
layerId = "0B91E381-1358-4F31-B824-AB2EAC4429E5";
name = Light;
paths = (
{
closed = 1;
nodes = (
"287 805 LINE",
"292 805 LINE",
"385 707 LINE",
"415 714 LINE",
"314 845 LINE",
"265 845 LINE",
"163 714 LINE",
"193 707 LINE"
);
}
);
width = 580;
}
);
leftKerningGroup = A;
note = Acircumflex;
rightKerningGroup = A;
unicode = 00C2;
},
{
glyphname = Acircumflexacute;
lastChange = "2015-07-20 11:34:17 +0000";
layers = (
{
layerId = "0B91E381-1358-4F31-B824-AB2EAC4429E5";
name = Light;
paths = (
{
closed = 1;
nodes = (
"110 66 OFFCURVE",
"133 147 OFFCURVE",
"153 215 CURVE",
"426 215 LINE",
"447 147 OFFCURVE",
"470 66 OFFCURVE",
"487 0 CURVE",
"536 6 LINE",
"481 205 OFFCURVE",
"411 432 OFFCURVE",
"344 612 CURVE",
"236 612 LINE",
"169 432 OFFCURVE",
"99 205 OFFCURVE",
"44 6 CURVE",
"93 0 LINE"
);
},
{
closed = 1;
nodes = (
"197 363 OFFCURVE",
"240 496 OFFCURVE",
"266 567 CURVE",
"312 567 LINE",
"339 496 OFFCURVE",
"381 363 OFFCURVE",
"412 258 CURVE",
"166 258 LINE"
);
},
{
closed = 1;
nodes = (
"287 805 LINE",
"292 805 LINE",
"385 707 LINE",
"415 714 LINE",
"314 845 LINE",
"265 845 LINE",
"163 714 LINE",
"193 707 LINE"
);
},
{
closed = 1;
nodes = (
"527 897 LINE",
"479 906 LINE",
"418 802 LINE",
"446 796 LINE"
);
}
);
width = 580;
}
);
leftKerningGroup = A;
note = Acircumflexacute;
rightKerningGroup = A;
unicode = 1EA4;
},
{
glyphname = Acircumflexdotbelow;
lastChange = "2015-07-20 11:34:17 +0000";
layers = (
{
layerId = "0B91E381-1358-4F31-B824-AB2EAC4429E5";
name = Light;
paths = (
{
closed = 1;
nodes = (
"110 66 OFFCURVE",
"133 147 OFFCURVE",
"153 215 CURVE",
"426 215 LINE",
"447 147 OFFCURVE",
"470 66 OFFCURVE",
"487 0 CURVE",
"536 6 LINE",
"481 205 OFFCURVE",
"411 432 OFFCURVE",
"344 612 CURVE",
"236 612 LINE",
"169 432 OFFCURVE",
"99 205 OFFCURVE",
"44 6 CURVE",
"93 0 LINE"
);
},
{
closed = 1;
nodes = (
"317 -152 OFFCURVE",
"332 -138 OFFCURVE",
"332 -112 CURVE SMOOTH",
"332 -85 OFFCURVE",
"317 -70 OFFCURVE",
"290 -70 CURVE SMOOTH",
"262 -70 OFFCURVE",
"246 -85 OFFCURVE",
"246 -112 CURVE SMOOTH",
"246 -138 OFFCURVE",
"262 -152 OFFCURVE",
"290 -152 CURVE SMOOTH"
);
},
{
closed = 1;
nodes = (
"197 363 OFFCURVE",
"240 496 OFFCURVE",
"266 567 CURVE",
"312 567 LINE",
"339 496 OFFCURVE",
"381 363 OFFCURVE",
"412 258 CURVE",
"166 258 LINE"
);
},
{
closed = 1;
nodes = (
"286 804 LINE",
"291 804 LINE",
"384 706 LINE",
"414 713 LINE",
"313 844 LINE",
"264 844 LINE",
"162 713 LINE",
"192 706 LINE"
);
}
);
width = 580;
}
);
leftKerningGroup = A;
note = Acircumflexdotbelow;
rightKerningGroup = A;
unicode = 1EAC;
},
{
glyphname = Acircumflexgrave;
lastChange = "2015-07-20 11:34:17 +0000";
layers = (
{
layerId = "0B91E381-1358-4F31-B824-AB2EAC4429E5";
name = Light;
paths = (
{
closed = 1;
nodes = (
"110 66 OFFCURVE",
"133 147 OFFCURVE",
"153 215 CURVE",
"426 215 LINE",
"447 147 OFFCURVE",
"470 66 OFFCURVE",
"487 0 CURVE",
"536 6 LINE",
"481 205 OFFCURVE",
"411 432 OFFCURVE",
"344 612 CURVE",
"236 612 LINE",
"169 432 OFFCURVE",
"99 205 OFFCURVE",
"44 6 CURVE",
"93 0 LINE"
);
},
{
closed = 1;
nodes = (
"197 363 OFFCURVE",
"240 496 OFFCURVE",
"266 567 CURVE",
"312 567 LINE",
"339 496 OFFCURVE",
"381 363 OFFCURVE",
"412 258 CURVE",
"166 258 LINE"
);
},
{
closed = 1;
nodes = (
"162 801 LINE",
"100 905 LINE",
"53 896 LINE",
"134 795 LINE"
);
},
{
closed = 1;
nodes = (
"288 804 LINE",
"294 804 LINE",
"387 707 LINE",
"417 713 LINE",
"315 845 LINE",
"267 845 LINE",
"165 713 LINE",
"196 707 LINE"
);
}
);
width = 580;
}
);
leftKerningGroup = A;
note = Acircumflexgrave;
rightKerningGroup = A;
unicode = 1EA6;
},
{
glyphname = Acircumflexhookabove;
lastChange = "2015-07-20 11:34:17 +0000";
layers = (
{
layerId = "0B91E381-1358-4F31-B824-AB2EAC4429E5";
name = Light;
paths = (
{
closed = 1;
nodes = (
"110 66 OFFCURVE",
"133 147 OFFCURVE",
"153 215 CURVE",
"426 215 LINE",
"447 147 OFFCURVE",
"470 66 OFFCURVE",
"487 0 CURVE",
"536 6 LINE",
"481 205 OFFCURVE",
"411 432 OFFCURVE",
"344 612 CURVE",
"236 612 LINE",
"169 432 OFFCURVE",
"99 205 OFFCURVE",
"44 6 CURVE",
"93 0 LINE"
);
},
{
closed = 1;
nodes = (
"197 363 OFFCURVE",
"240 496 OFFCURVE",
"266 567 CURVE",
"312 567 LINE",
"339 496 OFFCURVE",
"381 363 OFFCURVE",
"412 258 CURVE",
"166 258 LINE"
);
},
{
closed = 1;
nodes = (
"285 805 LINE",
"290 805 LINE",
"383 707 LINE",
"413 714 LINE",
"312 845 LINE",
"263 845 LINE",
"161 714 LINE",
"191 707 LINE"
);
},
{
closed = 1;
nodes = (
"441 813 LINE",
"441 850 LINE",
"481 851 OFFCURVE",
"503 868 OFFCURVE",
"503 901 CURVE SMOOTH",
"503 934 OFFCURVE",
"484 955 OFFCURVE",
"444 955 CURVE SMOOTH",
"426 955 OFFCURVE",
"411 952 OFFCURVE",
"393 945 CURVE",
"400 918 LINE",
"413 923 OFFCURVE",
"426 925 OFFCURVE",
"439 925 CURVE SMOOTH",
"461 925 OFFCURVE",
"471 918 OFFCURVE",
"471 901 CURVE SMOOTH",
"471 881 OFFCURVE",
"456 875 OFFCURVE",
"409 875 CURVE",
"409 854 LINE",
"418 813 LINE"
);
}
);
width = 580;
}
);
leftKerningGroup = A;
note = Acircumflexhookabove;
rightKerningGroup = A;
unicode = 1EA8;
},
{
glyphname = Acircumflextilde;
lastChange = "2015-07-20 11:34:17 +0000";
layers = (
{
layerId = "0B91E381-1358-4F31-B824-AB2EAC4429E5";
name = Light;
paths = (
{
closed = 1;
nodes = (
"110 66 OFFCURVE",
"133 147 OFFCURVE",
"153 215 CURVE",
"426 215 LINE",
"447 147 OFFCURVE",
"470 66 OFFCURVE",
"487 0 CURVE",
"536 6 LINE",
"481 205 OFFCURVE",
"411 432 OFFCURVE",
"344 612 CURVE",
"236 612 LINE",
"169 432 OFFCURVE",
"99 205 OFFCURVE",
"44 6 CURVE",
"93 0 LINE"
);
},
{
closed = 1;
nodes = (
"197 363 OFFCURVE",
"240 496 OFFCURVE",
"266 567 CURVE",
"312 567 LINE",
"339 496 OFFCURVE",
"381 363 OFFCURVE",
"412 258 CURVE",
"166 258 LINE"
);
},
{
closed = 1;
nodes = (
"286 805 LINE",
"291 805 LINE",
"384 707 LINE",
"414 714 LINE",
"313 845 LINE",
"264 845 LINE",
"162 714 LINE",
"192 707 LINE"
);
},
{
closed = 1;
nodes = (
"207 929 OFFCURVE",
"220 940 OFFCURVE",
"245 940 CURVE SMOOTH",
"278 940 OFFCURVE",
"294 907 OFFCURVE",
"337 907 CURVE SMOOTH",
"369 907 OFFCURVE",
"393 926 OFFCURVE",
"399 971 CURVE",
"373 978 LINE",
"367 953 OFFCURVE",
"355 941 OFFCURVE",
"330 941 CURVE SMOOTH",
"304 941 OFFCURVE",
"284 974 OFFCURVE",
"238 974 CURVE SMOOTH",
"205 974 OFFCURVE",
"182 956 OFFCURVE",
"175 911 CURVE",
"201 903 LINE"
);
}
);
width = 580;
}
);
leftKerningGroup = A;
note = Acircumflextilde;
rightKerningGroup = A;
unicode = 1EAA;
},
{
glyphname = Adieresis;
lastChange = "2015-07-20 11:34:17 +0000";
layers = (
{
components = (
{
name = A;
}
);
layerId = "0B91E381-1358-4F31-B824-AB2EAC4429E5";
name = Light;
paths = (
{
closed = 1;
nodes = (
"388 709 OFFCURVE",
"400 721 OFFCURVE",
"400 740 CURVE SMOOTH",
"400 761 OFFCURVE",
"388 772 OFFCURVE",
"368 772 CURVE SMOOTH",
"347 772 OFFCURVE",
"334 761 OFFCURVE",
"334 740 CURVE SMOOTH",
"334 721 OFFCURVE",
"347 709 OFFCURVE",
"368 709 CURVE SMOOTH"
);
},
{
closed = 1;
nodes = (
"230 709 OFFCURVE",
"242 721 OFFCURVE",
"242 740 CURVE SMOOTH",
"242 761 OFFCURVE",
"230 772 OFFCURVE",
"210 772 CURVE SMOOTH",
"190 772 OFFCURVE",
"177 761 OFFCURVE",
"177 740 CURVE SMOOTH",
"177 721 OFFCURVE",
"190 709 OFFCURVE",
"210 709 CURVE SMOOTH"
);
}
);
width = 580;
}
);
leftKerningGroup = A;
note = Adieresis;
rightKerningGroup = A;
unicode = 00C4;
},
{
glyphname = Adotbelow;
lastChange = "2015-07-20 11:34:17 +0000";
layers = (
{
layerId = "0B91E381-1358-4F31-B824-AB2EAC4429E5";
name = Light;
paths = (
{
closed = 1;
nodes = (
"110 66 OFFCURVE",
"133 147 OFFCURVE",
"153 215 CURVE",
"426 215 LINE",
"447 147 OFFCURVE",
"470 66 OFFCURVE",
"487 0 CURVE",
"536 6 LINE",
"481 205 OFFCURVE",
"411 432 OFFCURVE",
"344 612 CURVE",
"236 612 LINE",
"169 432 OFFCURVE",
"99 205 OFFCURVE",
"44 6 CURVE",
"93 0 LINE"
);
},
{
closed = 1;
nodes = (
"317 -144 OFFCURVE",
"332 -129 OFFCURVE",
"332 -104 CURVE SMOOTH",
"332 -76 OFFCURVE",
"317 -61 OFFCURVE",
"290 -61 CURVE SMOOTH",
"262 -61 OFFCURVE",
"246 -76 OFFCURVE",
"246 -104 CURVE SMOOTH",
"246 -129 OFFCURVE",
"262 -144 OFFCURVE",
"290 -144 CURVE SMOOTH"
);
},
{
closed = 1;
nodes = (
"197 363 OFFCURVE",
"240 496 OFFCURVE",
"266 567 CURVE",
"312 567 LINE",
"339 496 OFFCURVE",
"381 363 OFFCURVE",
"412 258 CURVE",
"166 258 LINE"
);
}
);
width = 580;
}
);
leftKerningGroup = A;
note = Adotbelow;
rightKerningGroup = A;
unicode = 1EA0;
},
{
glyphname = Agrave;
lastChange = "2015-07-20 11:34:17 +0000";
layers = (
{
components = (
{
name = A;
}
);
layerId = "0B91E381-1358-4F31-B824-AB2EAC4429E5";
name = Light;
paths = (
{
closed = 1;
nodes = (
"308 717 LINE",
"224 857 LINE",
"162 851 LINE",
"276 711 LINE"
);
}
);
width = 580;
}
);
leftKerningGroup = A;
note = Agrave;
rightKerningGroup = A;
unicode = 00C0;
},
{
glyphname = Ahookabove;
lastChange = "2015-07-20 11:34:17 +0000";
layers = (
{
layerId = "0B91E381-1358-4F31-B824-AB2EAC4429E5";
name = Light;
paths = (
{
closed = 1;
nodes = (
"110 66 OFFCURVE",
"133 147 OFFCURVE",
"153 215 CURVE",
"426 215 LINE",
"447 147 OFFCURVE",
"470 66 OFFCURVE",
"487 0 CURVE",
"536 6 LINE",
"481 205 OFFCURVE",
"411 432 OFFCURVE",
"344 612 CURVE",
"236 612 LINE",
"169 432 OFFCURVE",
"99 205 OFFCURVE",
"44 6 CURVE",
"93 0 LINE"
);
},
{
closed = 1;
nodes = (
"197 363 OFFCURVE",
"240 496 OFFCURVE",
"266 567 CURVE",
"312 567 LINE",
"339 496 OFFCURVE",
"381 363 OFFCURVE",
"412 258 CURVE",
"166 258 LINE"
);
},
{
closed = 1;
nodes = (
"304 714 LINE",
"304 754 LINE",
"356 757 OFFCURVE",
"393 774 OFFCURVE",
"393 828 CURVE SMOOTH",
"393 869 OFFCURVE",
"370 901 OFFCURVE",
"314 901 CURVE SMOOTH",
"288 901 OFFCURVE",
"269 897 OFFCURVE",
"245 888 CURVE",
"255 857 LINE",
"273 863 OFFCURVE",
"290 866 OFFCURVE",
"306 866 CURVE SMOOTH",
"341 866 OFFCURVE",
"354 852 OFFCURVE",
"354 827 CURVE SMOOTH",
"354 793 OFFCURVE",
"331 786 OFFCURVE",
"266 786 CURVE",
"266 763 LINE",
"277 714 LINE"
);
}
);
width = 580;
}
);
leftKerningGroup = A;
note = Ahookabove;
rightKerningGroup = A;
unicode = 1EA2;
},
{
glyphname = Amacron;
lastChange = "2015-07-20 11:34:17 +0000";
layers = (
{
components = (
{
name = A;
}
);
layerId = "0B91E381-1358-4F31-B824-AB2EAC4429E5";
name = Light;
paths = (
{
closed = 1;
nodes = (
"392 714 LINE",
"392 755 LINE",
"186 755 LINE",
"186 714 LINE"
);
}
);
width = 580;
}
);
leftKerningGroup = A;
note = Amacron;
rightKerningGroup = A;
unicode = 0100;
},
{
glyphname = Aogonek;
lastChange = "2015-07-20 11:34:17 +0000";
layers = (
{
layerId = "0B91E381-1358-4F31-B824-AB2EAC4429E5";
name = Light;
paths = (
{
closed = 1;
nodes = (
"525 -161 OFFCURVE",
"541 -157 OFFCURVE",
"557 -150 CURVE",
"549 -118 LINE",
"534 -122 OFFCURVE",
"521 -123 OFFCURVE",
"508 -123 CURVE SMOOTH",
"493 -123 OFFCURVE",
"482 -122 OFFCURVE",
"469 -119 CURVE",
"463 -109 OFFCURVE",
"461 -96 OFFCURVE",
"461 -84 CURVE SMOOTH",
"461 -47 OFFCURVE",
"475 -23 OFFCURVE",
"520 4 CURVE",
"536 6 LINE",
"481 205 OFFCURVE",
"411 432 OFFCURVE",
"344 612 CURVE",
"236 612 LINE",
"169 432 OFFCURVE",
"99 205 OFFCURVE",
"44 6 CURVE",
"93 0 LINE",
"110 66 OFFCURVE",
"133 147 OFFCURVE",
"153 215 CURVE",
"426 215 LINE",
"444 151 OFFCURVE",
"466 74 OFFCURVE",
"485 9 CURVE",
"441 -11 OFFCURVE",
"418 -42 OFFCURVE",
"418 -85 CURVE SMOOTH",
"418 -131 OFFCURVE",
"447 -161 OFFCURVE",
"500 -161 CURVE SMOOTH"
);
},
{
closed = 1;
nodes = (
"197 363 OFFCURVE",
"240 496 OFFCURVE",
"266 567 CURVE",
"312 567 LINE",
"339 496 OFFCURVE",
"381 363 OFFCURVE",
"412 258 CURVE",
"166 258 LINE"
);
}
);
width = 580;
}
);
leftKerningGroup = A;
note = Aogonek;
rightKerningGroup = A;
unicode = 0104;
},
{
glyphname = Aring;
lastChange = "2015-07-20 11:34:17 +0000";
layers = (
{
components = (
{
name = A;
}
);
layerId = "0B91E381-1358-4F31-B824-AB2EAC4429E5";
name = Light;
paths = (
{
closed = 1;
nodes = (
"356 705 OFFCURVE",
"395 748 OFFCURVE",
"395 796 CURVE SMOOTH",
"395 851 OFFCURVE",
"363 879 OFFCURVE",
"298 879 CURVE SMOOTH",
"226 879 OFFCURVE",
"183 835 OFFCURVE",
"183 786 CURVE SMOOTH",
"183 733 OFFCURVE",
"218 705 OFFCURVE",
"281 705 CURVE SMOOTH"
);
},
{
closed = 1;
nodes = (
"240 737 OFFCURVE",
"219 755 OFFCURVE",
"219 788 CURVE SMOOTH",
"219 805 OFFCURVE",
"221 818 OFFCURVE",
"228 839 CURVE",
"250 846 OFFCURVE",
"269 847 OFFCURVE",
"294 847 CURVE SMOOTH",
"337 847 OFFCURVE",
"359 830 OFFCURVE",
"359 794 CURVE SMOOTH",
"359 777 OFFCURVE",
"356 763 OFFCURVE",
"350 745 CURVE",
"328 738 OFFCURVE",
"309 737 OFFCURVE",
"283 737 CURVE SMOOTH"
);
}
);
width = 580;
}
);
leftKerningGroup = A;
note = Aring;
rightKerningGroup = A;
unicode = 00C5;
},
{
glyphname = Aringacute;
lastChange = "2015-07-20 11:34:17 +0000";
layers = (
{
components = (
{
name = A;
}
);
layerId = "0B91E381-1358-4F31-B824-AB2EAC4429E5";
name = Light;
paths = (
{
closed = 1;
nodes = (
"356 699 OFFCURVE",
"395 741 OFFCURVE",
"395 790 CURVE SMOOTH",
"395 844 OFFCURVE",
"363 873 OFFCURVE",
"298 873 CURVE SMOOTH",
"226 873 OFFCURVE",
"183 829 OFFCURVE",
"183 780 CURVE SMOOTH",
"183 727 OFFCURVE",
"218 699 OFFCURVE",
"281 699 CURVE SMOOTH"
);
},
{
closed = 1;
nodes = (
"240 730 OFFCURVE",
"219 749 OFFCURVE",
"219 782 CURVE SMOOTH",
"219 799 OFFCURVE",
"221 812 OFFCURVE",
"228 833 CURVE",
"250 839 OFFCURVE",
"269 841 OFFCURVE",
"294 841 CURVE SMOOTH",
"337 841 OFFCURVE",
"359 824 OFFCURVE",
"359 788 CURVE SMOOTH",
"359 771 OFFCURVE",
"356 756 OFFCURVE",
"350 739 CURVE",
"328 732 OFFCURVE",
"309 730 OFFCURVE",
"283 730 CURVE SMOOTH"
);
},
{
closed = 1;
nodes = (
"414 1078 LINE",
"352 1084 LINE",
"268 944 LINE",
"300 938 LINE"
);
}
);
width = 580;
}
);
leftKerningGroup = A;
note = Aringacute;
rightKerningGroup = A;
unicode = 01FA;
},
{
glyphname = Atilde;
lastChange = "2015-07-20 11:34:17 +0000";
layers = (
{
components = (
{
name = A;
}
);
layerId = "0B91E381-1358-4F31-B824-AB2EAC4429E5";
name = Light;
paths = (
{
closed = 1;
nodes = (
"188 741 OFFCURVE",
"201 762 OFFCURVE",
"230 762 CURVE SMOOTH",
"267 762 OFFCURVE",
"296 709 OFFCURVE",
"345 709 CURVE SMOOTH",
"390 709 OFFCURVE",
"415 741 OFFCURVE",
"418 793 CURVE",
"387 803 LINE",
"383 770 OFFCURVE",
"370 749 OFFCURVE",
"341 749 CURVE SMOOTH",
"303 749 OFFCURVE",
"273 802 OFFCURVE",
"226 802 CURVE SMOOTH",
"181 802 OFFCURVE",
"156 770 OFFCURVE",
"153 718 CURVE",
"184 709 LINE"
);
}
);
width = 580;
}
);
leftKerningGroup = A;
note = Atilde;
rightKerningGroup = A;
unicode = 00C3;
},
{
glyphname = AE;
lastChange = "2015-07-20 11:35:06 +0000";
layers = (
{
layerId = "0B91E381-1358-4F31-B824-AB2EAC4429E5";
name = Light;
paths = (
{
closed = 1;
nodes = (
"757 -10 OFFCURVE",
"806 -5 OFFCURVE",
"855 7 CURVE",
"844 49 LINE",
"797 39 OFFCURVE",
"747 34 OFFCURVE",
"691 34 CURVE SMOOTH",
"630 34 OFFCURVE",
"587 38 OFFCURVE",
"535 48 CURVE",
"535 286 LINE",
"814 286 LINE",
"814 330 LINE",
"535 330 LINE",
"535 568 LINE",
"843 568 LINE",
"843 612 LINE",
"373 612 LINE",
"255 420 OFFCURVE",
"142 211 OFFCURVE",
"44 16 CURVE",
"90 0 LINE",
"123 67 OFFCURVE",
"166 150 OFFCURVE",
"203 216 CURVE",
"488 216 LINE",
"488 60 LINE SMOOTH",
"488 6 OFFCURVE",
"576 -10 OFFCURVE",
"688 -10 CURVE SMOOTH"
);
},
{
closed = 1;
nodes = (
"277 361 OFFCURVE",
"353 490 OFFCURVE",
"400 567 CURVE",
"488 567 LINE",
"488 260 LINE",
"225 260 LINE"
);
}
);
width = 922;
}
);
note = AE;
unicode = 00C6;
},
{
glyphname = AEacute;
lastChange = "2015-07-20 11:35:00 +0000";
layers = (
{
layerId = "0B91E381-1358-4F31-B824-AB2EAC4429E5";
name = Light;
paths = (
{
closed = 1;
nodes = (
"757 -10 OFFCURVE",
"806 -5 OFFCURVE",
"855 7 CURVE",
"844 49 LINE",
"797 39 OFFCURVE",
"747 34 OFFCURVE",
"691 34 CURVE SMOOTH",
"630 34 OFFCURVE",
"587 38 OFFCURVE",
"535 48 CURVE",
"535 286 LINE",
"814 286 LINE",
"814 330 LINE",
"535 330 LINE",
"535 568 LINE",
"843 568 LINE",
"843 612 LINE",
"373 612 LINE",
"255 420 OFFCURVE",
"142 211 OFFCURVE",
"44 16 CURVE",
"90 0 LINE",
"123 67 OFFCURVE",
"166 150 OFFCURVE",
"203 216 CURVE",
"488 216 LINE",
"488 60 LINE SMOOTH",
"488 6 OFFCURVE",
"576 -10 OFFCURVE",
"688 -10 CURVE SMOOTH"
);
},
{
closed = 1;
nodes = (
"277 361 OFFCURVE",
"353 490 OFFCURVE",
"400 567 CURVE",
"488 567 LINE",
"488 260 LINE",
"225 260 LINE"
);
},
{
closed = 1;
nodes = (
"670 848 LINE",
"608 854 LINE",
"524 714 LINE",
"556 708 LINE"
);
}
);
width = 922;
}
);
note = AEacute;
unicode = 01FC;
},
{
glyphname = B;
lastChange = "2015-07-20 10:39:05 +0000";
layers = (
{
layerId = "0B91E381-1358-4F31-B824-AB2EAC4429E5";
name = Light;
paths = (
{
closed = 1;
nodes = (
"245 0 LINE SMOOTH",
"425 0 OFFCURVE",
"474 65 OFFCURVE",
"474 170 CURVE SMOOTH",
"474 237 OFFCURVE",
"437 284 OFFCURVE",
"362 309 CURVE",
"362 313 LINE",
"416 348 OFFCURVE",
"444 396 OFFCURVE",
"444 457 CURVE SMOOTH",
"444 561 OFFCURVE",
"382 622 OFFCURVE",
"241 622 CURVE SMOOTH",
"196 622 OFFCURVE",
"139 615 OFFCURVE",
"86 601 CURVE",
"86 0 LINE"
);
},
{
closed = 1;
nodes = (
"132 289 LINE",
"277 289 LINE SMOOTH",
"376 289 OFFCURVE",
"427 237 OFFCURVE",
"427 168 CURVE SMOOTH",
"427 88 OFFCURVE",
"395 43 OFFCURVE",
"240 43 CURVE SMOOTH",
"132 43 LINE"
);
},
{
closed = 1;
nodes = (
"132 567 LINE",
"165 574 OFFCURVE",
"203 578 OFFCURVE",
"237 578 CURVE SMOOTH",
"342 578 OFFCURVE",
"397 542 OFFCURVE",
"397 456 CURVE SMOOTH",
"397 405 OFFCURVE",
"379 367 OFFCURVE",
"338 333 CURVE",
"132 333 LINE"
);
}
);
width = 528;
}
);
note = B;
unicode = 0042;
},
{
glyphname = C;
lastChange = "2015-07-20 11:47:09 +0000";
layers = (
{
layerId = "0B91E381-1358-4F31-B824-AB2EAC4429E5";
name = Light;
paths = (
{
closed = 1;
nodes = (
"394 -9 OFFCURVE",
"456 8 OFFCURVE",
"499 40 CURVE",
"476 76 LINE",
"434 49 OFFCURVE",
"383 35 OFFCURVE",
"317 35 CURVE SMOOTH",
"173 35 OFFCURVE",
"107 121 OFFCURVE",
"107 295 CURVE SMOOTH",
"107 402 OFFCURVE",
"132 488 OFFCURVE",
"184 558 CURVE",
"229 572 OFFCURVE",
"269 577 OFFCURVE",
"311 577 CURVE SMOOTH",
"358 577 OFFCURVE",
"393 573 OFFCURVE",
"425 566 CURVE",
"436 482 LINE",
"464 482 LINE",
"469 497 OFFCURVE",
"472 525 OFFCURVE",
"472 547 CURVE SMOOTH",
"472 585 LINE",
"437 605 OFFCURVE",
"382 622 OFFCURVE",
"312 622 CURVE SMOOTH",
"134 622 OFFCURVE",
"60 477 OFFCURVE",
"60 293 CURVE SMOOTH",
"60 100 OFFCURVE",
"142 -9 OFFCURVE",
"315 -9 CURVE SMOOTH"
);
}
);
width = 547;
}
);
leftKerningGroup = C;
note = C;
rightKerningGroup = C;
unicode = 0043;
},
{
glyphname = Cacute;
lastChange = "2015-07-20 11:40:00 +0000";
layers = (
{
layerId = "0B91E381-1358-4F31-B824-AB2EAC4429E5";
name = Light;
paths = (
{
closed = 1;
nodes = (
"394 -9 OFFCURVE",
"456 8 OFFCURVE",
"499 40 CURVE",
"476 76 LINE",
"434 49 OFFCURVE",
"383 35 OFFCURVE",
"317 35 CURVE SMOOTH",
"173 35 OFFCURVE",
"107 121 OFFCURVE",
"107 295 CURVE SMOOTH",
"107 402 OFFCURVE",
"132 488 OFFCURVE",
"184 558 CURVE",
"229 572 OFFCURVE",
"269 577 OFFCURVE",
"311 577 CURVE SMOOTH",
"358 577 OFFCURVE",
"393 573 OFFCURVE",
"425 566 CURVE",
"436 482 LINE",
"464 482 LINE",
"469 497 OFFCURVE",
"472 525 OFFCURVE",
"472 547 CURVE SMOOTH",
"472 585 LINE",
"437 605 OFFCURVE",
"382 622 OFFCURVE",
"312 622 CURVE SMOOTH",
"134 622 OFFCURVE",
"60 477 OFFCURVE",
"60 293 CURVE SMOOTH",
"60 100 OFFCURVE",
"142 -9 OFFCURVE",
"315 -9 CURVE SMOOTH"
);
},
{
closed = 1;
nodes = (
"432 847 LINE",
"370 854 LINE",
"286 713 LINE",
"318 708 LINE"
);
}
);
width = 547;
}
);
leftKerningGroup = C;
note = Cacute;
rightKerningGroup = C;
unicode = 0106;
},
{
glyphname = Ccaron;
lastChange = "2015-07-20 11:40:00 +0000";
layers = (
{
layerId = "0B91E381-1358-4F31-B824-AB2EAC4429E5";
name = Light;
paths = (
{
closed = 1;
nodes = (
"391 -9 OFFCURVE",
"453 8 OFFCURVE",
"496 40 CURVE",
"473 76 LINE",
"431 49 OFFCURVE",
"380 35 OFFCURVE",
"314 35 CURVE SMOOTH",
"170 35 OFFCURVE",
"104 121 OFFCURVE",
"104 295 CURVE SMOOTH",
"104 402 OFFCURVE",
"129 488 OFFCURVE",
"181 558 CURVE",
"226 572 OFFCURVE",
"266 577 OFFCURVE",
"308 577 CURVE SMOOTH",
"355 577 OFFCURVE",
"390 573 OFFCURVE",
"422 566 CURVE",
"433 482 LINE",
"461 482 LINE",
"466 497 OFFCURVE",
"469 525 OFFCURVE",
"469 547 CURVE SMOOTH",
"469 585 LINE",
"434 605 OFFCURVE",
"379 622 OFFCURVE",
"309 622 CURVE SMOOTH",
"131 622 OFFCURVE",
"57 477 OFFCURVE",
"57 293 CURVE SMOOTH",
"57 100 OFFCURVE",
"139 -9 OFFCURVE",
"312 -9 CURVE SMOOTH"
);
},
{
closed = 1;
nodes = (
"328 714 LINE",
"429 845 LINE",
"399 852 LINE",
"306 754 LINE",
"301 754 LINE",
"207 852 LINE",
"177 845 LINE",
"279 714 LINE"
);
}
);
width = 545;
}
);
leftKerningGroup = C;
note = Ccaron;
rightKerningGroup = C;
unicode = 010C;
},
{
glyphname = Ccedilla;
lastChange = "2015-07-20 11:40:00 +0000";
layers = (
{
layerId = "0B91E381-1358-4F31-B824-AB2EAC4429E5";
name = Light;
paths = (
{
closed = 1;
nodes = (
"360 -216 OFFCURVE",
"395 -190 OFFCURVE",
"395 -132 CURVE SMOOTH",
"395 -86 OFFCURVE",
"373 -59 OFFCURVE",
"322 -59 CURVE SMOOTH",
"303 -59 OFFCURVE",
"287 -62 OFFCURVE",
"273 -68 CURVE",
"317 -9 LINE",
"321 -9 OFFCURVE",
"324 -9 OFFCURVE",
"328 -9 CURVE SMOOTH",
"402 -7 OFFCURVE",
"458 10 OFFCURVE",
"499 40 CURVE",
"476 76 LINE",
"434 49 OFFCURVE",
"383 35 OFFCURVE",
"317 35 CURVE SMOOTH",
"173 35 OFFCURVE",
"107 121 OFFCURVE",
"107 295 CURVE SMOOTH",
"107 402 OFFCURVE",
"132 488 OFFCURVE",
"184 558 CURVE",
"229 572 OFFCURVE",
"269 577 OFFCURVE",
"311 577 CURVE SMOOTH",
"358 577 OFFCURVE",
"393 573 OFFCURVE",
"425 566 CURVE",
"436 482 LINE",
"464 482 LINE",
"469 497 OFFCURVE",
"472 525 OFFCURVE",
"472 547 CURVE SMOOTH",
"472 585 LINE",
"437 605 OFFCURVE",
"382 622 OFFCURVE",
"312 622 CURVE SMOOTH",
"134 622 OFFCURVE",
"60 477 OFFCURVE",
"60 293 CURVE SMOOTH",
"60 112 OFFCURVE",
"131 5 OFFCURVE",
"282 -8 CURVE",
"231 -69 LINE",
"262 -100 LINE",
"276 -95 OFFCURVE",
"290 -94 OFFCURVE",
"308 -94 CURVE SMOOTH",
"341 -94 OFFCURVE",
"354 -108 OFFCURVE",
"354 -136 CURVE SMOOTH",
"354 -150 OFFCURVE",
"352 -164 OFFCURVE",
"348 -173 CURVE",
"333 -178 OFFCURVE",
"319 -180 OFFCURVE",
"296 -180 CURVE SMOOTH",
"272 -180 OFFCURVE",
"247 -176 OFFCURVE",
"225 -168 CURVE",
"213 -200 LINE",
"243 -213 OFFCURVE",
"268 -216 OFFCURVE",
"294 -216 CURVE SMOOTH"
);
}
);
width = 547;
}
);
leftKerningGroup = C;
note = Ccedilla;
rightKerningGroup = C;
unicode = 00C7;
},
{
glyphname = Ccircumflex;
lastChange = "2015-07-20 11:40:00 +0000";
layers = (
{
layerId = "0B91E381-1358-4F31-B824-AB2EAC4429E5";
name = Light;
paths = (
{
closed = 1;
nodes = (
"394 -9 OFFCURVE",
"456 8 OFFCURVE",
"499 40 CURVE",
"476 76 LINE",
"434 49 OFFCURVE",
"383 35 OFFCURVE",
"317 35 CURVE SMOOTH",
"173 35 OFFCURVE",
"107 121 OFFCURVE",
"107 295 CURVE SMOOTH",
"107 402 OFFCURVE",
"132 488 OFFCURVE",
"184 558 CURVE",
"229 572 OFFCURVE",
"269 577 OFFCURVE",
"311 577 CURVE SMOOTH",
"358 577 OFFCURVE",
"393 573 OFFCURVE",
"425 566 CURVE",
"436 482 LINE",
"464 482 LINE",
"469 497 OFFCURVE",
"472 525 OFFCURVE",
"472 547 CURVE SMOOTH",
"472 585 LINE",
"437 605 OFFCURVE",
"382 622 OFFCURVE",
"312 622 CURVE SMOOTH",
"134 622 OFFCURVE",
"60 477 OFFCURVE",
"60 293 CURVE SMOOTH",
"60 100 OFFCURVE",
"142 -9 OFFCURVE",
"315 -9 CURVE SMOOTH"
);
},
{
closed = 1;
nodes = (
"301 805 LINE",
"306 805 LINE",
"399 707 LINE",
"429 714 LINE",
"328 845 LINE",
"279 845 LINE",
"177 714 LINE",
"207 707 LINE"
);
}
);
width = 547;
}
);
leftKerningGroup = C;
note = Ccircumflex;
rightKerningGroup = C;
unicode = 0108;
},
{
glyphname = Cdotaccent;
lastChange = "2015-07-20 11:40:00 +0000";
layers = (
{
layerId = "0B91E381-1358-4F31-B824-AB2EAC4429E5";
name = Light;
paths = (
{
closed = 1;
nodes = (
"394 -9 OFFCURVE",
"456 8 OFFCURVE",
"499 40 CURVE",
"476 76 LINE",
"434 49 OFFCURVE",
"383 35 OFFCURVE",
"317 35 CURVE SMOOTH",
"173 35 OFFCURVE",
"107 121 OFFCURVE",
"107 295 CURVE SMOOTH",
"107 402 OFFCURVE",
"132 488 OFFCURVE",
"184 558 CURVE",
"229 572 OFFCURVE",
"269 577 OFFCURVE",
"311 577 CURVE SMOOTH",
"358 577 OFFCURVE",
"393 573 OFFCURVE",
"425 566 CURVE",
"436 482 LINE",
"464 482 LINE",
"469 497 OFFCURVE",
"472 525 OFFCURVE",
"472 547 CURVE SMOOTH",
"472 585 LINE",
"437 605 OFFCURVE",
"382 622 OFFCURVE",
"312 622 CURVE SMOOTH",
"134 622 OFFCURVE",
"60 477 OFFCURVE",
"60 293 CURVE SMOOTH",
"60 100 OFFCURVE",
"142 -9 OFFCURVE",
"315 -9 CURVE SMOOTH"
);
},
{
closed = 1;
nodes = (
"343 709 OFFCURVE",
"358 723 OFFCURVE",
"358 749 CURVE SMOOTH",
"358 777 OFFCURVE",
"343 791 OFFCURVE",
"316 791 CURVE SMOOTH",
"288 791 OFFCURVE",
"272 777 OFFCURVE",
"272 749 CURVE SMOOTH",
"272 723 OFFCURVE",
"288 709 OFFCURVE",
"316 709 CURVE SMOOTH"
);
}
);
width = 547;
}
);
leftKerningGroup = C;
note = Cdotaccent;
rightKerningGroup = C;
unicode = 010A;
},
{
glyphname = D;
lastChange = "2015-07-20 11:39:50 +0000";
layers = (
{
layerId = "0B91E381-1358-4F31-B824-AB2EAC4429E5";
name = Light;
paths = (
{
closed = 1;
nodes = (
"256 0 LINE SMOOTH",
"463 0 OFFCURVE",
"513 148 OFFCURVE",
"513 317 CURVE SMOOTH",
"513 515 OFFCURVE",
"437 622 OFFCURVE",
"247 622 CURVE SMOOTH",
"188 622 OFFCURVE",
"137 615 OFFCURVE",
"86 605 CURVE",
"86 0 LINE"
);
},
{
closed = 1;
nodes = (
"133 569 LINE",
"175 575 OFFCURVE",
"206 578 OFFCURVE",
"243 578 CURVE SMOOTH",
"404 578 OFFCURVE",
"466 495 OFFCURVE",
"466 312 CURVE SMOOTH",
"466 202 OFFCURVE",
"441 115 OFFCURVE",
"394 63 CURVE",
"351 49 OFFCURVE",
"312 44 OFFCURVE",
"253 44 CURVE SMOOTH",
"133 44 LINE"
);
}
);
width = 564;
}
);
note = D;
rightKerningGroup = D;
unicode = 0044;
},
{
glyphname = Eth;
lastChange = "2015-07-20 11:39:50 +0000";
layers = (
{
layerId = "0B91E381-1358-4F31-B824-AB2EAC4429E5";
name = Light;
paths = (
{
closed = 1;
nodes = (
"313 0 LINE SMOOTH",
"520 0 OFFCURVE",
"571 148 OFFCURVE",
"571 317 CURVE SMOOTH",
"571 515 OFFCURVE",
"495 622 OFFCURVE",
"305 622 CURVE SMOOTH",
"246 622 OFFCURVE",
"195 615 OFFCURVE",
"144 605 CURVE",
"144 343 LINE",
"45 343 LINE",
"45 303 LINE",
"144 303 LINE",
"144 0 LINE"
);
},
{
closed = 1;
nodes = (
"191 303 LINE",
"307 303 LINE",
"307 343 LINE",
"191 343 LINE",
"191 569 LINE",
"233 575 OFFCURVE",
"264 578 OFFCURVE",
"301 578 CURVE SMOOTH",
"462 578 OFFCURVE",
"524 495 OFFCURVE",
"524 312 CURVE SMOOTH",
"524 202 OFFCURVE",
"499 115 OFFCURVE",
"452 63 CURVE",
"409 49 OFFCURVE",
"370 44 OFFCURVE",
"311 44 CURVE SMOOTH",
"191 44 LINE"
);
}
);
width = 622;
}
);
note = Eth;
rightKerningGroup = D;
unicode = 00D0;
},
{
glyphname = Dcaron;
lastChange = "2015-07-20 11:39:50 +0000";
layers = (
{
layerId = "0B91E381-1358-4F31-B824-AB2EAC4429E5";
name = Light;
paths = (
{
closed = 1;
nodes = (
"256 0 LINE SMOOTH",
"463 0 OFFCURVE",
"513 148 OFFCURVE",
"513 317 CURVE SMOOTH",
"513 515 OFFCURVE",
"437 622 OFFCURVE",
"247 622 CURVE SMOOTH",
"188 622 OFFCURVE",
"137 615 OFFCURVE",
"86 605 CURVE",
"86 0 LINE"
);
},
{
closed = 1;
nodes = (
"133 569 LINE",
"175 575 OFFCURVE",
"206 578 OFFCURVE",
"243 578 CURVE SMOOTH",
"404 578 OFFCURVE",
"466 495 OFFCURVE",
"466 312 CURVE SMOOTH",
"466 202 OFFCURVE",
"441 115 OFFCURVE",
"394 63 CURVE",
"351 49 OFFCURVE",
"312 44 OFFCURVE",
"253 44 CURVE SMOOTH",
"133 44 LINE"
);
},
{
closed = 1;
nodes = (
"303 714 LINE",
"404 845 LINE",
"374 852 LINE",
"281 754 LINE",
"276 754 LINE",
"182 852 LINE",
"152 845 LINE",
"254 714 LINE"
);
}
);
width = 564;
}
);
note = Dcaron;
rightKerningGroup = D;
unicode = 010E;
},
{
glyphname = Dcroat;
lastChange = "2015-07-20 11:39:50 +0000";
layers = (
{
layerId = "0B91E381-1358-4F31-B824-AB2EAC4429E5";
name = Light;
paths = (
{
closed = 1;
nodes = (
"296 0 LINE SMOOTH",
"503 0 OFFCURVE",
"553 148 OFFCURVE",
"553 317 CURVE SMOOTH",
"553 515 OFFCURVE",
"477 622 OFFCURVE",
"287 622 CURVE SMOOTH",
"228 622 OFFCURVE",
"177 615 OFFCURVE",
"126 605 CURVE",
"126 328 LINE",
"45 328 LINE",
"45 286 LINE",
"126 286 LINE",
"126 0 LINE"
);
},
{
closed = 1;
nodes = (
"173 286 LINE",
"271 286 LINE",
"271 328 LINE",
"173 328 LINE",
"173 569 LINE",
"215 575 OFFCURVE",
"246 578 OFFCURVE",
"283 578 CURVE SMOOTH",
"444 578 OFFCURVE",
"506 495 OFFCURVE",
"506 312 CURVE SMOOTH",
"506 202 OFFCURVE",
"481 115 OFFCURVE",
"434 63 CURVE",
"391 49 OFFCURVE",
"352 44 OFFCURVE",
"293 44 CURVE SMOOTH",
"173 44 LINE"
);
}
);
width = 604;
}
);
note = Dcroat;
rightKerningGroup = D;
unicode = 0110;
},
{
glyphname = Ddotbelow;
lastChange = "2015-07-20 11:39:50 +0000";
layers = (
{
layerId = "0B91E381-1358-4F31-B824-AB2EAC4429E5";
name = Light;
paths = (
{
closed = 1;
nodes = (
"256 0 LINE SMOOTH",
"463 0 OFFCURVE",
"513 148 OFFCURVE",
"513 317 CURVE SMOOTH",
"513 515 OFFCURVE",
"437 622 OFFCURVE",
"247 622 CURVE SMOOTH",
"188 622 OFFCURVE",
"137 615 OFFCURVE",
"86 605 CURVE",
"86 0 LINE"
);
},
{
closed = 1;
nodes = (
"310 -144 OFFCURVE",
"325 -129 OFFCURVE",
"325 -104 CURVE SMOOTH",
"325 -76 OFFCURVE",
"310 -61 OFFCURVE",
"283 -61 CURVE SMOOTH",
"255 -61 OFFCURVE",
"239 -76 OFFCURVE",
"239 -104 CURVE SMOOTH",
"239 -129 OFFCURVE",
"255 -144 OFFCURVE",
"283 -144 CURVE SMOOTH"
);
},
{
closed = 1;
nodes = (
"133 569 LINE",
"175 575 OFFCURVE",
"206 578 OFFCURVE",
"243 578 CURVE SMOOTH",
"404 578 OFFCURVE",
"466 495 OFFCURVE",
"466 312 CURVE SMOOTH",
"466 202 OFFCURVE",
"441 115 OFFCURVE",
"394 63 CURVE",
"351 49 OFFCURVE",
"312 44 OFFCURVE",
"253 44 CURVE SMOOTH",
"133 44 LINE"
);
}
);
width = 564;
}
);
note = Ddotbelow;
rightKerningGroup = D;
unicode = 1E0C;
},
{
glyphname = Dlinebelow;
lastChange = "2015-07-20 11:39:50 +0000";
layers = (
{
layerId = "0B91E381-1358-4F31-B824-AB2EAC4429E5";
name = Light;
paths = (
{
closed = 1;
nodes = (
"256 0 LINE SMOOTH",
"463 0 OFFCURVE",
"513 148 OFFCURVE",
"513 317 CURVE SMOOTH",
"513 515 OFFCURVE",
"437 622 OFFCURVE",
"247 622 CURVE SMOOTH",
"188 622 OFFCURVE",
"137 615 OFFCURVE",
"86 605 CURVE",
"86 0 LINE"
);
},
{
closed = 1;
nodes = (
"386 -116 LINE",
"386 -72 LINE",
"86 -72 LINE",
"86 -116 LINE"
);
},
{
closed = 1;
nodes = (
"133 569 LINE",
"175 575 OFFCURVE",
"206 578 OFFCURVE",
"243 578 CURVE SMOOTH",
"404 578 OFFCURVE",
"466 495 OFFCURVE",
"466 312 CURVE SMOOTH",
"466 202 OFFCURVE",
"441 115 OFFCURVE",
"394 63 CURVE",
"351 49 OFFCURVE",
"312 44 OFFCURVE",
"253 44 CURVE SMOOTH",
"133 44 LINE"
);
}
);
width = 564;
}
);
note = Dlinebelow;
rightKerningGroup = D;
unicode = 1E0E;
},
{
glyphname = E;
lastChange = "2015-07-20 11:40:17 +0000";
layers = (
{
layerId = "0B91E381-1358-4F31-B824-AB2EAC4429E5";
name = Light;
paths = (
{
closed = 1;
nodes = (
"354 -9 OFFCURVE",
"404 -4 OFFCURVE",
"453 7 CURVE",
"442 49 LINE",
"394 39 OFFCURVE",
"345 34 OFFCURVE",
"288 34 CURVE SMOOTH",
"227 34 OFFCURVE",
"185 38 OFFCURVE",
"133 48 CURVE",
"133 286 LINE",
"412 286 LINE",
"412 330 LINE",
"133 330 LINE",
"133 568 LINE",
"441 568 LINE",
"441 612 LINE",
"86 612 LINE",
"86 61 LINE SMOOTH",
"86 7 OFFCURVE",
"176 -9 OFFCURVE",
"285 -9 CURVE SMOOTH"
);
}
);
width = 514;
}
);
leftKerningGroup = E;
note = E;
rightKerningGroup = E;
unicode = 0045;
},
{
glyphname = Eacute;
lastChange = "2015-07-20 11:40:17 +0000";
layers = (
{
layerId = "0B91E381-1358-4F31-B824-AB2EAC4429E5";
name = Light;
paths = (
{
closed = 1;
nodes = (
"354 -9 OFFCURVE",
"404 -4 OFFCURVE",
"453 7 CURVE",
"442 49 LINE",
"394 39 OFFCURVE",
"345 34 OFFCURVE",
"288 34 CURVE SMOOTH",
"227 34 OFFCURVE",
"185 38 OFFCURVE",
"133 48 CURVE",
"133 286 LINE",
"412 286 LINE",
"412 330 LINE",
"133 330 LINE",
"133 568 LINE",
"441 568 LINE",
"441 612 LINE",
"86 612 LINE",
"86 61 LINE SMOOTH",
"86 7 OFFCURVE",
"176 -9 OFFCURVE",
"285 -9 CURVE SMOOTH"
);
},
{
closed = 1;
nodes = (
"386 851 LINE",
"324 857 LINE",
"240 717 LINE",
"272 711 LINE"
);
}
);
width = 520;
}
);
leftKerningGroup = E;
note = Eacute;
rightKerningGroup = E;
unicode = 00C9;
},
{
glyphname = Ebreve;
lastChange = "2015-07-20 11:40:17 +0000";
layers = (
{
layerId = "0B91E381-1358-4F31-B824-AB2EAC4429E5";
name = Light;
paths = (
{
closed = 1;
nodes = (
"354 -9 OFFCURVE",
"404 -4 OFFCURVE",
"453 7 CURVE",
"442 49 LINE",
"394 39 OFFCURVE",
"345 34 OFFCURVE",
"288 34 CURVE SMOOTH",
"227 34 OFFCURVE",
"185 38 OFFCURVE",
"133 48 CURVE",
"133 286 LINE",
"412 286 LINE",
"412 330 LINE",
"133 330 LINE",
"133 568 LINE",
"441 568 LINE",
"441 612 LINE",
"86 612 LINE",
"86 61 LINE SMOOTH",
"86 7 OFFCURVE",
"176 -9 OFFCURVE",
"285 -9 CURVE SMOOTH"
);
},
{
closed = 1;
nodes = (
"349 709 OFFCURVE",
"383 753 OFFCURVE",
"394 810 CURVE",
"349 817 LINE",
"341 776 OFFCURVE",
"326 748 OFFCURVE",
"272 748 CURVE SMOOTH",
"218 748 OFFCURVE",
"203 776 OFFCURVE",
"195 817 CURVE",
"150 810 LINE",
"161 753 OFFCURVE",
"195 709 OFFCURVE",
"272 709 CURVE SMOOTH"
);
}
);
width = 520;
}
);
leftKerningGroup = E;
note = Ebreve;
rightKerningGroup = E;
unicode = 0114;
},
{
glyphname = Ecaron;
lastChange = "2015-07-20 11:40:17 +0000";
layers = (
{
layerId = "0B91E381-1358-4F31-B824-AB2EAC4429E5";
name = Light;
paths = (
{
closed = 1;
nodes = (
"354 -9 OFFCURVE",
"404 -4 OFFCURVE",
"453 7 CURVE",
"442 49 LINE",
"394 39 OFFCURVE",
"345 34 OFFCURVE",
"288 34 CURVE SMOOTH",
"227 34 OFFCURVE",
"185 38 OFFCURVE",
"133 48 CURVE",
"133 286 LINE",
"412 286 LINE",
"412 330 LINE",
"133 330 LINE",
"133 568 LINE",
"441 568 LINE",
"441 612 LINE",
"86 612 LINE",
"86 61 LINE SMOOTH",
"86 7 OFFCURVE",
"176 -9 OFFCURVE",
"285 -9 CURVE SMOOTH"
);
},
{
closed = 1;
nodes = (
"289 714 LINE",
"390 845 LINE",
"360 852 LINE",
"267 754 LINE",
"262 754 LINE",
"168 852 LINE",
"138 845 LINE",
"240 714 LINE"
);
}
);
width = 520;
}
);
leftKerningGroup = E;
note = Ecaron;
rightKerningGroup = E;
unicode = 011A;
},
{
glyphname = Ecircumflex;
lastChange = "2015-07-20 11:40:17 +0000";
layers = (
{
layerId = "0B91E381-1358-4F31-B824-AB2EAC4429E5";
name = Light;
paths = (
{
closed = 1;
nodes = (
"354 -9 OFFCURVE",
"404 -4 OFFCURVE",
"453 7 CURVE",
"442 49 LINE",
"394 39 OFFCURVE",
"345 34 OFFCURVE",
"288 34 CURVE SMOOTH",
"227 34 OFFCURVE",
"185 38 OFFCURVE",
"133 48 CURVE",
"133 286 LINE",
"412 286 LINE",
"412 330 LINE",
"133 330 LINE",
"133 568 LINE",
"441 568 LINE",
"441 612 LINE",
"86 612 LINE",
"86 61 LINE SMOOTH",
"86 7 OFFCURVE",
"176 -9 OFFCURVE",
"285 -9 CURVE SMOOTH"
);
},
{
closed = 1;
nodes = (
"259 805 LINE",
"264 805 LINE",
"357 707 LINE",
"387 714 LINE",
"286 845 LINE",
"237 845 LINE",
"135 714 LINE",
"165 707 LINE"
);
}
);
width = 520;
}
);
leftKerningGroup = E;
note = Ecircumflex;
rightKerningGroup = E;
unicode = 00CA;
},
{
glyphname = Ecircumflexacute;
lastChange = "2015-07-20 11:40:17 +0000";
layers = (
{
layerId = "0B91E381-1358-4F31-B824-AB2EAC4429E5";
name = Light;
paths = (
{
closed = 1;
nodes = (
"354 -9 OFFCURVE",
"404 -4 OFFCURVE",
"453 7 CURVE",
"442 49 LINE",
"394 39 OFFCURVE",
"345 34 OFFCURVE",
"288 34 CURVE SMOOTH",
"227 34 OFFCURVE",
"185 38 OFFCURVE",
"133 48 CURVE",
"133 286 LINE",
"412 286 LINE",
"412 330 LINE",
"133 330 LINE",
"133 568 LINE",
"441 568 LINE",
"441 612 LINE",
"86 612 LINE",
"86 61 LINE SMOOTH",
"86 7 OFFCURVE",
"176 -9 OFFCURVE",
"285 -9 CURVE SMOOTH"
);
},
{
closed = 1;
nodes = (
"261 805 LINE",
"266 805 LINE",
"359 707 LINE",
"389 714 LINE",
"288 845 LINE",
"239 845 LINE",
"137 714 LINE",
"167 707 LINE"
);
},
{
closed = 1;
nodes = (
"501 897 LINE",
"453 906 LINE",
"392 802 LINE",
"420 796 LINE"
);
}
);
width = 525;
}
);
leftKerningGroup = E;
note = Ecircumflexacute;
rightKerningGroup = E;
unicode = 1EBE;
},
{
glyphname = Ecircumflexdotbelow;
lastChange = "2015-07-20 11:40:17 +0000";
layers = (
{
layerId = "0B91E381-1358-4F31-B824-AB2EAC4429E5";
name = Light;
paths = (
{
closed = 1;
nodes = (
"354 -9 OFFCURVE",
"404 -4 OFFCURVE",
"453 7 CURVE",
"442 49 LINE",
"394 39 OFFCURVE",
"345 34 OFFCURVE",
"288 34 CURVE SMOOTH",
"227 34 OFFCURVE",
"185 38 OFFCURVE",
"133 48 CURVE",
"133 286 LINE",
"412 286 LINE",
"412 330 LINE",
"133 330 LINE",
"133 568 LINE",
"441 568 LINE",
"441 612 LINE",
"86 612 LINE",
"86 61 LINE SMOOTH",
"86 7 OFFCURVE",
"176 -9 OFFCURVE",
"285 -9 CURVE SMOOTH"
);
},
{
closed = 1;
nodes = (
"300 -152 OFFCURVE",
"315 -138 OFFCURVE",
"315 -112 CURVE SMOOTH",
"315 -85 OFFCURVE",
"300 -70 OFFCURVE",
"273 -70 CURVE SMOOTH",
"245 -70 OFFCURVE",
"229 -85 OFFCURVE",
"229 -112 CURVE SMOOTH",
"229 -138 OFFCURVE",
"245 -152 OFFCURVE",
"273 -152 CURVE SMOOTH"
);
},
{
closed = 1;
nodes = (
"268 805 LINE",
"273 805 LINE",
"366 707 LINE",
"396 714 LINE",
"295 845 LINE",
"246 845 LINE",
"144 714 LINE",
"174 707 LINE"
);
}
);
width = 525;
}
);
leftKerningGroup = E;
note = Ecircumflexdotbelow;
rightKerningGroup = E;
unicode = 1EC6;
},
{
glyphname = Ecircumflexgrave;
lastChange = "2015-07-20 11:40:17 +0000";
layers = (
{
layerId = "0B91E381-1358-4F31-B824-AB2EAC4429E5";
name = Light;
paths = (
{
closed = 1;
nodes = (
"357 -9 OFFCURVE",
"407 -4 OFFCURVE",
"456 7 CURVE",
"445 49 LINE",
"397 39 OFFCURVE",
"348 34 OFFCURVE",
"291 34 CURVE SMOOTH",
"230 34 OFFCURVE",
"188 38 OFFCURVE",
"136 48 CURVE",
"136 286 LINE",
"415 286 LINE",
"415 330 LINE",
"136 330 LINE",
"136 568 LINE",
"444 568 LINE",
"444 612 LINE",
"89 612 LINE",
"89 61 LINE SMOOTH",
"89 7 OFFCURVE",
"179 -9 OFFCURVE",
"288 -9 CURVE SMOOTH"
);
},
{
closed = 1;
nodes = (
"141 806 LINE",
"79 909 LINE",
"32 901 LINE",
"113 799 LINE"
);
},
{
closed = 1;
nodes = (
"267 809 LINE",
"273 809 LINE",
"366 711 LINE",
"396 718 LINE",
"294 849 LINE",
"246 849 LINE",
"144 718 LINE",
"175 711 LINE"
);
}
);
width = 523;
}
);
leftKerningGroup = E;
note = Ecircumflexgrave;
rightKerningGroup = E;
unicode = 1EC0;
},
{
glyphname = Ecircumflexhookabove;
lastChange = "2015-07-20 11:40:17 +0000";
layers = (
{
layerId = "0B91E381-1358-4F31-B824-AB2EAC4429E5";
name = Light;
paths = (
{
closed = 1;
nodes = (
"354 -9 OFFCURVE",
"404 -4 OFFCURVE",
"453 7 CURVE",
"442 49 LINE",
"394 39 OFFCURVE",
"345 34 OFFCURVE",
"288 34 CURVE SMOOTH",
"227 34 OFFCURVE",
"185 38 OFFCURVE",
"133 48 CURVE",
"133 286 LINE",
"412 286 LINE",
"412 330 LINE",
"133 330 LINE",
"133 568 LINE",
"441 568 LINE",
"441 612 LINE",
"86 612 LINE",
"86 61 LINE SMOOTH",
"86 7 OFFCURVE",
"176 -9 OFFCURVE",
"285 -9 CURVE SMOOTH"
);
},
{
closed = 1;
nodes = (
"259 805 LINE",
"264 805 LINE",
"357 707 LINE",
"387 714 LINE",
"286 845 LINE",
"237 845 LINE",
"135 714 LINE",
"165 707 LINE"
);
},
{
closed = 1;
nodes = (
"415 813 LINE",
"415 849 LINE",
"455 851 OFFCURVE",
"477 867 OFFCURVE",
"477 901 CURVE SMOOTH",
"477 934 OFFCURVE",
"458 955 OFFCURVE",
"418 955 CURVE SMOOTH",
"400 955 OFFCURVE",
"385 951 OFFCURVE",
"367 945 CURVE",
"374 918 LINE",
"387 923 OFFCURVE",
"400 925 OFFCURVE",
"413 925 CURVE SMOOTH",
"435 925 OFFCURVE",
"445 918 OFFCURVE",
"445 900 CURVE SMOOTH",
"445 881 OFFCURVE",
"430 875 OFFCURVE",
"383 875 CURVE",
"383 854 LINE",
"392 813 LINE"
);
}
);
width = 526;
}
);
leftKerningGroup = E;
note = Ecircumflexhookabove;
rightKerningGroup = E;
unicode = 1EC2;
},
{
glyphname = Ecircumflextilde;
lastChange = "2015-07-20 11:40:17 +0000";
layers = (
{
layerId = "0B91E381-1358-4F31-B824-AB2EAC4429E5";
name = Light;
paths = (
{
closed = 1;
nodes = (
"354 -9 OFFCURVE",
"404 -4 OFFCURVE",
"453 7 CURVE",
"442 49 LINE",
"394 39 OFFCURVE",
"345 34 OFFCURVE",
"288 34 CURVE SMOOTH",
"227 34 OFFCURVE",
"185 38 OFFCURVE",
"133 48 CURVE",
"133 286 LINE",
"412 286 LINE",
"412 330 LINE",
"133 330 LINE",
"133 568 LINE",
"441 568 LINE",
"441 612 LINE",
"86 612 LINE",
"86 61 LINE SMOOTH",
"86 7 OFFCURVE",
"176 -9 OFFCURVE",
"285 -9 CURVE SMOOTH"
);
},
{
closed = 1;
nodes = (
"262 805 LINE",
"267 805 LINE",
"360 707 LINE",
"390 714 LINE",
"289 845 LINE",
"240 845 LINE",
"138 714 LINE",
"168 707 LINE"
);
},
{
closed = 1;
nodes = (
"183 929 OFFCURVE",
"196 940 OFFCURVE",
"221 940 CURVE SMOOTH",
"254 940 OFFCURVE",
"270 907 OFFCURVE",
"313 907 CURVE SMOOTH",
"345 907 OFFCURVE",
"369 926 OFFCURVE",
"375 971 CURVE",
"349 978 LINE",
"343 953 OFFCURVE",
"331 941 OFFCURVE",
"306 941 CURVE SMOOTH",
"280 941 OFFCURVE",
"260 974 OFFCURVE",
"214 974 CURVE SMOOTH",
"181 974 OFFCURVE",
"158 956 OFFCURVE",
"151 911 CURVE",
"177 903 LINE"
);
}
);
width = 520;
}
);
leftKerningGroup = E;
note = Ecircumflextilde;
rightKerningGroup = E;
unicode = 1EC4;
},
{
glyphname = Edieresis;
lastChange = "2015-07-20 11:40:17 +0000";
layers = (
{
layerId = "0B91E381-1358-4F31-B824-AB2EAC4429E5";
name = Light;
paths = (
{
closed = 1;
nodes = (
"354 -9 OFFCURVE",
"404 -4 OFFCURVE",
"453 7 CURVE",
"442 49 LINE",
"394 39 OFFCURVE",
"345 34 OFFCURVE",
"288 34 CURVE SMOOTH",
"227 34 OFFCURVE",
"185 38 OFFCURVE",
"133 48 CURVE",
"133 286 LINE",
"412 286 LINE",
"412 330 LINE",
"133 330 LINE",
"133 568 LINE",
"441 568 LINE",
"441 612 LINE",
"86 612 LINE",
"86 61 LINE SMOOTH",
"86 7 OFFCURVE",
"176 -9 OFFCURVE",
"285 -9 CURVE SMOOTH"
);
},
{
closed = 1;
nodes = (
"209 709 OFFCURVE",
"221 721 OFFCURVE",
"221 740 CURVE SMOOTH",
"221 761 OFFCURVE",
"209 772 OFFCURVE",
"189 772 CURVE SMOOTH",
"169 772 OFFCURVE",
"156 761 OFFCURVE",
"156 740 CURVE SMOOTH",
"156 721 OFFCURVE",
"169 709 OFFCURVE",
"189 709 CURVE SMOOTH"
);
},
{
closed = 1;
nodes = (
"367 709 OFFCURVE",
"379 721 OFFCURVE",
"379 740 CURVE SMOOTH",
"379 761 OFFCURVE",
"367 772 OFFCURVE",
"347 772 CURVE SMOOTH",
"326 772 OFFCURVE",
"313 761 OFFCURVE",
"313 740 CURVE SMOOTH",
"313 721 OFFCURVE",
"326 709 OFFCURVE",
"347 709 CURVE SMOOTH"
);
}
);
width = 520;
}
);
leftKerningGroup = E;
note = Edieresis;
rightKerningGroup = E;
unicode = 00CB;
},
{
glyphname = Edotaccent;
lastChange = "2015-07-20 11:40:17 +0000";
layers = (
{
layerId = "0B91E381-1358-4F31-B824-AB2EAC4429E5";
name = Light;
paths = (
{
closed = 1;
nodes = (
"354 -9 OFFCURVE",
"404 -4 OFFCURVE",
"453 7 CURVE",
"442 49 LINE",
"394 39 OFFCURVE",
"345 34 OFFCURVE",
"288 34 CURVE SMOOTH",
"227 34 OFFCURVE",
"185 38 OFFCURVE",
"133 48 CURVE",
"133 286 LINE",
"412 286 LINE",
"412 330 LINE",
"133 330 LINE",
"133 568 LINE",
"441 568 LINE",
"441 612 LINE",
"86 612 LINE",
"86 61 LINE SMOOTH",
"86 7 OFFCURVE",
"176 -9 OFFCURVE",
"285 -9 CURVE SMOOTH"
);
},
{
closed = 1;
nodes = (
"299 709 OFFCURVE",
"314 723 OFFCURVE",
"314 749 CURVE SMOOTH",
"314 777 OFFCURVE",
"299 791 OFFCURVE",
"272 791 CURVE SMOOTH",
"244 791 OFFCURVE",
"228 777 OFFCURVE",
"228 749 CURVE SMOOTH",
"228 723 OFFCURVE",
"244 709 OFFCURVE",
"272 709 CURVE SMOOTH"
);
}
);
width = 520;
}
);
leftKerningGroup = E;
note = Edotaccent;
rightKerningGroup = E;
unicode = 0116;
},
{
glyphname = Edotbelow;
lastChange = "2015-07-20 11:40:17 +0000";
layers = (
{
layerId = "0B91E381-1358-4F31-B824-AB2EAC4429E5";
name = Light;
paths = (
{
closed = 1;
nodes = (
"354 -9 OFFCURVE",
"404 -4 OFFCURVE",
"453 7 CURVE",
"442 49 LINE",
"394 39 OFFCURVE",
"345 34 OFFCURVE",
"288 34 CURVE SMOOTH",
"227 34 OFFCURVE",
"185 38 OFFCURVE",
"133 48 CURVE",
"133 286 LINE",
"412 286 LINE",
"412 330 LINE",
"133 330 LINE",
"133 568 LINE",
"441 568 LINE",
"441 612 LINE",
"86 612 LINE",
"86 61 LINE SMOOTH",
"86 7 OFFCURVE",
"176 -9 OFFCURVE",
"285 -9 CURVE SMOOTH"
);
},
{
closed = 1;
nodes = (
"307 -144 OFFCURVE",
"322 -129 OFFCURVE",
"322 -104 CURVE SMOOTH",
"322 -76 OFFCURVE",
"307 -61 OFFCURVE",
"280 -61 CURVE SMOOTH",
"252 -61 OFFCURVE",
"236 -76 OFFCURVE",
"236 -104 CURVE SMOOTH",
"236 -129 OFFCURVE",
"252 -144 OFFCURVE",
"280 -144 CURVE SMOOTH"
);
}
);
width = 520;
}
);
leftKerningGroup = E;
note = Edotbelow;
rightKerningGroup = E;
unicode = 1EB8;
},
{
glyphname = Egrave;
lastChange = "2015-07-20 11:40:17 +0000";
layers = (
{
layerId = "0B91E381-1358-4F31-B824-AB2EAC4429E5";
name = Light;
paths = (
{
closed = 1;
nodes = (
"354 -9 OFFCURVE",
"404 -4 OFFCURVE",
"453 7 CURVE",
"442 49 LINE",
"394 39 OFFCURVE",
"345 34 OFFCURVE",
"288 34 CURVE SMOOTH",
"227 34 OFFCURVE",
"185 38 OFFCURVE",
"133 48 CURVE",
"133 286 LINE",
"412 286 LINE",
"412 330 LINE",
"133 330 LINE",
"133 568 LINE",
"441 568 LINE",
"441 612 LINE",
"86 612 LINE",
"86 61 LINE SMOOTH",
"86 7 OFFCURVE",
"176 -9 OFFCURVE",
"285 -9 CURVE SMOOTH"
);
},
{
closed = 1;
nodes = (
"302 713 LINE",
"218 854 LINE",
"156 847 LINE",
"270 708 LINE"
);
}
);
width = 520;
}
);
leftKerningGroup = E;
note = Egrave;
rightKerningGroup = E;
unicode = 00C8;
},
{
glyphname = Ehookabove;
lastChange = "2015-07-20 11:40:17 +0000";
layers = (
{
layerId = "0B91E381-1358-4F31-B824-AB2EAC4429E5";
name = Light;
paths = (
{
closed = 1;
nodes = (
"354 -9 OFFCURVE",
"404 -4 OFFCURVE",
"453 7 CURVE",
"442 49 LINE",
"394 39 OFFCURVE",
"345 34 OFFCURVE",
"288 34 CURVE SMOOTH",
"227 34 OFFCURVE",
"185 38 OFFCURVE",
"133 48 CURVE",
"133 286 LINE",
"412 286 LINE",
"412 330 LINE",
"133 330 LINE",
"133 568 LINE",
"441 568 LINE",
"441 612 LINE",
"86 612 LINE",
"86 61 LINE SMOOTH",
"86 7 OFFCURVE",
"176 -9 OFFCURVE",
"285 -9 CURVE SMOOTH"
);
},
{
closed = 1;
nodes = (
"275 714 LINE",
"275 753 LINE",
"327 756 OFFCURVE",
"364 774 OFFCURVE",
"364 827 CURVE SMOOTH",
"364 869 OFFCURVE",
"341 901 OFFCURVE",
"285 901 CURVE SMOOTH",
"259 901 OFFCURVE",
"240 897 OFFCURVE",
"216 888 CURVE",
"226 857 LINE",
"244 863 OFFCURVE",
"261 865 OFFCURVE",
"277 865 CURVE SMOOTH",
"312 865 OFFCURVE",
"325 852 OFFCURVE",
"325 827 CURVE SMOOTH",
"325 793 OFFCURVE",
"302 786 OFFCURVE",
"237 786 CURVE",
"237 763 LINE",
"248 714 LINE"
);
}
);
width = 520;
}
);
leftKerningGroup = E;
note = Ehookabove;
rightKerningGroup = E;
unicode = 1EBA;
},
{
glyphname = Emacron;
lastChange = "2015-07-20 11:40:17 +0000";
layers = (
{
layerId = "0B91E381-1358-4F31-B824-AB2EAC4429E5";
name = Light;
paths = (
{
closed = 1;
nodes = (
"354 -9 OFFCURVE",
"404 -4 OFFCURVE",
"453 7 CURVE",
"442 49 LINE",
"394 39 OFFCURVE",
"345 34 OFFCURVE",
"288 34 CURVE SMOOTH",
"227 34 OFFCURVE",
"185 38 OFFCURVE",
"133 48 CURVE",
"133 286 LINE",
"412 286 LINE",
"412 330 LINE",
"133 330 LINE",
"133 568 LINE",
"441 568 LINE",
"441 612 LINE",
"86 612 LINE",
"86 61 LINE SMOOTH",
"86 7 OFFCURVE",
"176 -9 OFFCURVE",
"285 -9 CURVE SMOOTH"
);
},
{
closed = 1;
nodes = (
"399 714 LINE",
"399 755 LINE",
"129 755 LINE",
"129 714 LINE"
);
}
);
width = 520;
}
);
leftKerningGroup = E;
note = Emacron;
rightKerningGroup = E;
unicode = 0112;
},
{
glyphname = Eogonek;
lastChange = "2015-07-20 11:40:17 +0000";
layers = (
{
layerId = "0B91E381-1358-4F31-B824-AB2EAC4429E5";
name = Light;
paths = (
{
closed = 1;
nodes = (
"430 -164 OFFCURVE",
"446 -160 OFFCURVE",
"462 -153 CURVE",
"455 -121 LINE",
"440 -124 OFFCURVE",
"427 -126 OFFCURVE",
"414 -126 CURVE SMOOTH",
"399 -126 OFFCURVE",
"388 -125 OFFCURVE",
"374 -122 CURVE",
"368 -112 OFFCURVE",
"366 -99 OFFCURVE",
"366 -86 CURVE SMOOTH",
"366 -53 OFFCURVE",
"377 -28 OFFCURVE",
"419 -1 CURVE",
"431 1 OFFCURVE",
"443 4 OFFCURVE",
"453 7 CURVE",
"442 49 LINE",
"394 39 OFFCURVE",
"345 34 OFFCURVE",
"288 34 CURVE SMOOTH",
"227 34 OFFCURVE",
"185 38 OFFCURVE",
"133 48 CURVE",
"133 286 LINE",
"412 286 LINE",
"412 330 LINE",
"133 330 LINE",
"133 568 LINE",
"441 568 LINE",
"441 612 LINE",
"86 612 LINE",
"86 61 LINE SMOOTH",
"86 7 OFFCURVE",
"176 -9 OFFCURVE",
"285 -9 CURVE SMOOTH",
"316 -9 OFFCURVE",
"342 -8 OFFCURVE",
"367 -6 CURVE",
"337 -26 OFFCURVE",
"324 -53 OFFCURVE",
"324 -87 CURVE SMOOTH",
"324 -134 OFFCURVE",
"352 -164 OFFCURVE",
"406 -164 CURVE SMOOTH"
);
}
);
width = 520;
}
);
leftKerningGroup = E;
note = Eogonek;
rightKerningGroup = E;
unicode = 0118;
},
{
glyphname = Etilde;
lastChange = "2015-07-20 11:40:17 +0000";
layers = (
{
layerId = "0B91E381-1358-4F31-B824-AB2EAC4429E5";
name = Light;
paths = (
{
closed = 1;
nodes = (
"354 -9 OFFCURVE",
"404 -4 OFFCURVE",
"453 7 CURVE",
"442 49 LINE",
"394 39 OFFCURVE",
"345 34 OFFCURVE",
"288 34 CURVE SMOOTH",
"227 34 OFFCURVE",
"185 38 OFFCURVE",
"133 48 CURVE",
"133 286 LINE",
"412 286 LINE",
"412 330 LINE",
"133 330 LINE",
"133 568 LINE",
"441 568 LINE",
"441 612 LINE",
"86 612 LINE",
"86 61 LINE SMOOTH",
"86 7 OFFCURVE",
"176 -9 OFFCURVE",
"285 -9 CURVE SMOOTH"
);
},
{
closed = 1;
nodes = (
"171 740 OFFCURVE",
"184 761 OFFCURVE",
"213 761 CURVE SMOOTH",
"250 761 OFFCURVE",
"279 708 OFFCURVE",
"328 708 CURVE SMOOTH",
"373 708 OFFCURVE",
"398 740 OFFCURVE",
"401 792 CURVE",
"370 801 LINE",
"366 769 OFFCURVE",
"353 748 OFFCURVE",
"324 748 CURVE SMOOTH",
"286 748 OFFCURVE",
"256 801 OFFCURVE",
"209 801 CURVE SMOOTH",
"164 801 OFFCURVE",
"139 769 OFFCURVE",
"136 716 CURVE",
"167 707 LINE"
);
}
);
width = 520;
}
);
leftKerningGroup = E;
note = Etilde;
rightKerningGroup = E;
unicode = 1EBC;
},
{
glyphname = F;
lastChange = "2015-07-20 10:39:03 +0000";
layers = (
{
layerId = "0B91E381-1358-4F31-B824-AB2EAC4429E5";
name = Light;
paths = (
{
closed = 1;
nodes = (
"133 0 LINE",
"133 288 LINE",
"399 288 LINE",
"399 329 LINE",
"133 329 LINE",
"133 572 LINE",
"450 572 LINE",
"450 616 LINE",
"86 616 LINE",
"86 0 LINE"
);
}
);
width = 490;
}
);
note = F;
unicode = 0046;
},
{
glyphname = G;
lastChange = "2015-07-20 11:57:50 +0000";
layers = (
{
layerId = "0B91E381-1358-4F31-B824-AB2EAC4429E5";
name = Light;
paths = (
{
closed = 1;
nodes = (
"433 -9 OFFCURVE",
"509 35 OFFCURVE",
"509 101 CURVE SMOOTH",
"509 289 LINE",
"475 316 LINE",
"322 316 LINE",
"322 272 LINE",
"463 272 LINE",
"463 60 LINE",
"424 44 OFFCURVE",
"387 35 OFFCURVE",
"321 35 CURVE SMOOTH",
"183 35 OFFCURVE",
"107 117 OFFCURVE",
"107 295 CURVE SMOOTH",
"107 402 OFFCURVE",
"134 488 OFFCURVE",
"186 558 CURVE",
"231 572 OFFCURVE",
"281 577 OFFCURVE",
"323 577 CURVE SMOOTH",
"371 577 OFFCURVE",
"418 573 OFFCURVE",
"449 566 CURVE",
"460 482 LINE",
"488 482 LINE",
"493 497 OFFCURVE",
"497 525 OFFCURVE",
"497 547 CURVE SMOOTH",
"497 585 LINE",
"462 605 OFFCURVE",
"398 622 OFFCURVE",
"326 622 CURVE SMOOTH",
"137 622 OFFCURVE",
"60 479 OFFCURVE",
"60 293 CURVE SMOOTH",
"60 97 OFFCURVE",
"151 -9 OFFCURVE",
"316 -9 CURVE SMOOTH"
);
}
);
width = 580;
}
);
leftKerningGroup = G;
note = G;
rightKerningGroup = G;
unicode = 0047;
},
{
glyphname = Gbreve;
lastChange = "2015-07-20 11:40:25 +0000";
layers = (
{
layerId = "0B91E381-1358-4F31-B824-AB2EAC4429E5";
name = Light;
paths = (
{
closed = 1;
nodes = (
"433 -9 OFFCURVE",
"509 35 OFFCURVE",
"509 101 CURVE SMOOTH",
"509 289 LINE",
"475 316 LINE",
"322 316 LINE",
"322 272 LINE",
"463 272 LINE",
"463 60 LINE",
"424 44 OFFCURVE",
"387 35 OFFCURVE",
"321 35 CURVE SMOOTH",
"183 35 OFFCURVE",
"107 117 OFFCURVE",
"107 295 CURVE SMOOTH",
"107 402 OFFCURVE",
"134 488 OFFCURVE",
"186 558 CURVE",
"231 572 OFFCURVE",
"281 577 OFFCURVE",
"323 577 CURVE SMOOTH",
"371 577 OFFCURVE",
"418 573 OFFCURVE",
"449 566 CURVE",
"460 482 LINE",
"488 482 LINE",
"493 497 OFFCURVE",
"497 525 OFFCURVE",
"497 547 CURVE SMOOTH",
"497 585 LINE",
"462 605 OFFCURVE",
"398 622 OFFCURVE",
"326 622 CURVE SMOOTH",
"137 622 OFFCURVE",
"60 479 OFFCURVE",
"60 293 CURVE SMOOTH",
"60 97 OFFCURVE",
"151 -9 OFFCURVE",
"316 -9 CURVE SMOOTH"
);
},
{
closed = 1;
nodes = (
"390 709 OFFCURVE",
"424 753 OFFCURVE",
"435 810 CURVE",
"390 817 LINE",
"382 776 OFFCURVE",
"367 748 OFFCURVE",
"313 748 CURVE SMOOTH",
"259 748 OFFCURVE",
"244 776 OFFCURVE",
"236 817 CURVE",
"191 810 LINE",
"202 753 OFFCURVE",
"236 709 OFFCURVE",
"313 709 CURVE SMOOTH"
);
}
);
width = 580;
}
);
leftKerningGroup = G;
note = Gbreve;
rightKerningGroup = G;
unicode = 011E;
},
{
glyphname = Gcaron;
lastChange = "2015-07-20 11:40:25 +0000";
layers = (
{
layerId = "0B91E381-1358-4F31-B824-AB2EAC4429E5";
name = Light;
paths = (
{
closed = 1;
nodes = (
"433 -9 OFFCURVE",
"509 35 OFFCURVE",
"509 101 CURVE SMOOTH",
"509 289 LINE",
"475 316 LINE",
"322 316 LINE",
"322 272 LINE",
"463 272 LINE",
"463 60 LINE",
"424 44 OFFCURVE",
"387 35 OFFCURVE",
"321 35 CURVE SMOOTH",
"183 35 OFFCURVE",
"107 117 OFFCURVE",
"107 295 CURVE SMOOTH",
"107 402 OFFCURVE",
"134 488 OFFCURVE",
"186 558 CURVE",
"231 572 OFFCURVE",
"281 577 OFFCURVE",
"323 577 CURVE SMOOTH",
"371 577 OFFCURVE",
"418 573 OFFCURVE",
"449 566 CURVE",
"460 482 LINE",
"488 482 LINE",
"493 497 OFFCURVE",
"497 525 OFFCURVE",
"497 547 CURVE SMOOTH",
"497 585 LINE",
"462 605 OFFCURVE",
"398 622 OFFCURVE",
"326 622 CURVE SMOOTH",
"137 622 OFFCURVE",
"60 479 OFFCURVE",
"60 293 CURVE SMOOTH",
"60 97 OFFCURVE",
"151 -9 OFFCURVE",
"316 -9 CURVE SMOOTH"
);
},
{
closed = 1;
nodes = (
"333 714 LINE",
"434 845 LINE",
"404 852 LINE",
"311 754 LINE",
"306 754 LINE",
"212 852 LINE",
"182 845 LINE",
"284 714 LINE"
);
}
);
width = 580;
}
);
leftKerningGroup = G;
note = Gcaron;
rightKerningGroup = G;
unicode = 01E6;
},
{
glyphname = Gcircumflex;
lastChange = "2015-07-20 11:40:25 +0000";
layers = (
{
layerId = "0B91E381-1358-4F31-B824-AB2EAC4429E5";
name = Light;
paths = (
{
closed = 1;
nodes = (
"433 -9 OFFCURVE",
"509 35 OFFCURVE",
"509 101 CURVE SMOOTH",
"509 289 LINE",
"475 316 LINE",
"322 316 LINE",
"322 272 LINE",
"463 272 LINE",
"463 60 LINE",
"424 44 OFFCURVE",
"387 35 OFFCURVE",
"321 35 CURVE SMOOTH",
"183 35 OFFCURVE",
"107 117 OFFCURVE",
"107 295 CURVE SMOOTH",
"107 402 OFFCURVE",
"134 488 OFFCURVE",
"186 558 CURVE",
"231 572 OFFCURVE",
"281 577 OFFCURVE",
"323 577 CURVE SMOOTH",
"371 577 OFFCURVE",
"418 573 OFFCURVE",
"449 566 CURVE",
"460 482 LINE",
"488 482 LINE",
"493 497 OFFCURVE",
"497 525 OFFCURVE",
"497 547 CURVE SMOOTH",
"497 585 LINE",
"462 605 OFFCURVE",
"398 622 OFFCURVE",
"326 622 CURVE SMOOTH",
"137 622 OFFCURVE",
"60 479 OFFCURVE",
"60 293 CURVE SMOOTH",
"60 97 OFFCURVE",
"151 -9 OFFCURVE",
"316 -9 CURVE SMOOTH"
);
},
{
closed = 1;
nodes = (
"302 805 LINE",
"307 805 LINE",
"400 707 LINE",
"430 714 LINE",
"329 845 LINE",
"280 845 LINE",
"178 714 LINE",
"208 707 LINE"
);
}
);
width = 580;
}
);
leftKerningGroup = G;
note = Gcircumflex;
rightKerningGroup = G;
unicode = 011C;
},
{
glyphname = Gcommaaccent;
lastChange = "2015-07-20 11:40:25 +0000";
layers = (
{
layerId = "0B91E381-1358-4F31-B824-AB2EAC4429E5";
name = Light;
paths = (
{
closed = 1;
nodes = (
"433 -9 OFFCURVE",
"509 35 OFFCURVE",
"509 101 CURVE SMOOTH",
"509 289 LINE",
"475 316 LINE",
"322 316 LINE",
"322 272 LINE",
"463 272 LINE",
"463 60 LINE",
"424 44 OFFCURVE",
"387 35 OFFCURVE",
"321 35 CURVE SMOOTH",
"183 35 OFFCURVE",
"107 117 OFFCURVE",
"107 295 CURVE SMOOTH",
"107 402 OFFCURVE",
"134 488 OFFCURVE",
"186 558 CURVE",
"231 572 OFFCURVE",
"281 577 OFFCURVE",
"323 577 CURVE SMOOTH",
"371 577 OFFCURVE",
"418 573 OFFCURVE",
"449 566 CURVE",
"460 482 LINE",
"488 482 LINE",
"493 497 OFFCURVE",
"497 525 OFFCURVE",
"497 547 CURVE SMOOTH",
"497 585 LINE",
"462 605 OFFCURVE",
"398 622 OFFCURVE",
"326 622 CURVE SMOOTH",
"137 622 OFFCURVE",
"60 479 OFFCURVE",
"60 293 CURVE SMOOTH",
"60 97 OFFCURVE",
"151 -9 OFFCURVE",
"316 -9 CURVE SMOOTH"
);
},
{
closed = 1;
nodes = (
"357 -209 OFFCURVE",
"373 -167 OFFCURVE",
"373 -121 CURVE SMOOTH",
"373 -80 OFFCURVE",
"355 -59 OFFCURVE",
"317 -59 CURVE SMOOTH",
"303 -59 OFFCURVE",
"290 -62 OFFCURVE",
"279 -65 CURVE",
"279 -98 LINE",
"334 -98 LINE",
"334 -159 OFFCURVE",
"321 -198 OFFCURVE",
"298 -239 CURVE",
"328 -246 LINE"
);
}
);
width = 580;
}
);
leftKerningGroup = G;
note = Gcommaaccent;
rightKerningGroup = G;
unicode = 0122;
},
{
glyphname = Gdotaccent;
lastChange = "2015-07-20 11:40:25 +0000";
layers = (
{
layerId = "0B91E381-1358-4F31-B824-AB2EAC4429E5";
name = Light;
paths = (
{
closed = 1;
nodes = (
"433 -9 OFFCURVE",
"509 35 OFFCURVE",
"509 101 CURVE SMOOTH",
"509 289 LINE",
"475 316 LINE",
"322 316 LINE",
"322 272 LINE",
"463 272 LINE",
"463 60 LINE",
"424 44 OFFCURVE",
"387 35 OFFCURVE",
"321 35 CURVE SMOOTH",
"183 35 OFFCURVE",
"107 117 OFFCURVE",
"107 295 CURVE SMOOTH",
"107 402 OFFCURVE",
"134 488 OFFCURVE",
"186 558 CURVE",
"231 572 OFFCURVE",
"281 577 OFFCURVE",
"323 577 CURVE SMOOTH",
"371 577 OFFCURVE",
"418 573 OFFCURVE",
"449 566 CURVE",
"460 482 LINE",
"488 482 LINE",
"493 497 OFFCURVE",
"497 525 OFFCURVE",
"497 547 CURVE SMOOTH",
"497 585 LINE",
"462 605 OFFCURVE",
"398 622 OFFCURVE",
"326 622 CURVE SMOOTH",
"137 622 OFFCURVE",
"60 479 OFFCURVE",
"60 293 CURVE SMOOTH",
"60 97 OFFCURVE",
"151 -9 OFFCURVE",
"316 -9 CURVE SMOOTH"
);
},
{
closed = 1;
nodes = (
"344 709 OFFCURVE",
"359 723 OFFCURVE",
"359 749 CURVE SMOOTH",
"359 777 OFFCURVE",
"344 791 OFFCURVE",
"317 791 CURVE SMOOTH",
"289 791 OFFCURVE",
"273 777 OFFCURVE",
"273 749 CURVE SMOOTH",
"273 723 OFFCURVE",
"289 709 OFFCURVE",
"317 709 CURVE SMOOTH"
);
}
);
width = 580;
}
);
leftKerningGroup = G;
note = Gdotaccent;
rightKerningGroup = G;
unicode = 0120;
},
{
glyphname = Gmacron;
lastChange = "2015-07-20 11:40:25 +0000";
layers = (
{
layerId = "0B91E381-1358-4F31-B824-AB2EAC4429E5";
name = Light;
paths = (
{
closed = 1;
nodes = (
"433 -9 OFFCURVE",
"509 35 OFFCURVE",
"509 101 CURVE SMOOTH",
"509 289 LINE",
"475 316 LINE",
"322 316 LINE",
"322 272 LINE",
"463 272 LINE",
"463 60 LINE",
"424 44 OFFCURVE",
"387 35 OFFCURVE",
"321 35 CURVE SMOOTH",
"183 35 OFFCURVE",
"107 117 OFFCURVE",
"107 295 CURVE SMOOTH",
"107 402 OFFCURVE",
"134 488 OFFCURVE",
"186 558 CURVE",
"231 572 OFFCURVE",
"281 577 OFFCURVE",
"323 577 CURVE SMOOTH",
"371 577 OFFCURVE",
"418 573 OFFCURVE",
"449 566 CURVE",
"460 482 LINE",
"488 482 LINE",
"493 497 OFFCURVE",
"497 525 OFFCURVE",
"497 547 CURVE SMOOTH",
"497 585 LINE",
"462 605 OFFCURVE",
"398 622 OFFCURVE",
"326 622 CURVE SMOOTH",
"137 622 OFFCURVE",
"60 479 OFFCURVE",
"60 293 CURVE SMOOTH",
"60 97 OFFCURVE",
"151 -9 OFFCURVE",
"316 -9 CURVE SMOOTH"
);
},
{
closed = 1;
nodes = (
"446 714 LINE",
"446 755 LINE",
"176 755 LINE",
"176 714 LINE"
);
}
);
width = 580;
}
);
leftKerningGroup = G;
note = Gmacron;
rightKerningGroup = G;
unicode = 1E20;
},
{
glyphname = H;
lastChange = "2015-07-20 10:39:03 +0000";
layers = (
{
layerId = "0B91E381-1358-4F31-B824-AB2EAC4429E5";
name = Light;
paths = (
{
closed = 1;
nodes = (
"133 0 LINE",
"133 274 LINE",
"452 274 LINE",
"452 0 LINE",
"499 0 LINE",
"499 612 LINE",
"452 612 LINE",
"452 319 LINE",
"133 319 LINE",
"133 612 LINE",
"86 612 LINE",
"86 0 LINE"
);
}
);
width = 586;
}
);
note = H;
unicode = 0048;
},
{
glyphname = Hbar;
lastChange = "2015-07-20 10:39:04 +0000";
layers = (
{
layerId = "0B91E381-1358-4F31-B824-AB2EAC4429E5";
name = Light;
paths = (
{
closed = 1;
nodes = (
"173 0 LINE",
"173 274 LINE",
"492 274 LINE",
"492 0 LINE",
"539 0 LINE",
"539 449 LINE",
"604 449 LINE",
"604 489 LINE",
"539 489 LINE",
"539 612 LINE",
"492 612 LINE",
"492 489 LINE",
"173 489 LINE",
"173 612 LINE",
"126 612 LINE",
"126 489 LINE",
"61 489 LINE",
"61 449 LINE",
"126 449 LINE",
"126 0 LINE"
);
},
{
closed = 1;
nodes = (
"173 449 LINE",
"492 449 LINE",
"492 319 LINE",
"173 319 LINE"
);
}
);
width = 665;
}
);
note = Hbar;
unicode = 0126;
},
{
glyphname = Hbrevebelow;
lastChange = "2015-07-20 10:39:04 +0000";
layers = (
{
layerId = "0B91E381-1358-4F31-B824-AB2EAC4429E5";
name = Light;
paths = (
{
closed = 1;
nodes = (
"133 0 LINE",
"133 274 LINE",
"452 274 LINE",
"452 0 LINE",
"499 0 LINE",
"499 612 LINE",
"452 612 LINE",
"452 319 LINE",
"133 319 LINE",
"133 612 LINE",
"86 612 LINE",
"86 0 LINE"
);
},
{
closed = 1;
nodes = (
"369 -157 OFFCURVE",
"403 -113 OFFCURVE",
"414 -56 CURVE",
"369 -48 LINE",
"361 -90 OFFCURVE",
"346 -118 OFFCURVE",
"292 -118 CURVE SMOOTH",
"238 -118 OFFCURVE",
"223 -90 OFFCURVE",
"215 -48 CURVE",
"170 -56 LINE",
"181 -113 OFFCURVE",
"215 -157 OFFCURVE",
"292 -157 CURVE SMOOTH"
);
}
);
width = 584;
}
);
note = Hbrevebelow;
unicode = 1E2A;
},
{
glyphname = Hcircumflex;
lastChange = "2015-07-20 10:39:05 +0000";
layers = (
{
layerId = "0B91E381-1358-4F31-B824-AB2EAC4429E5";
name = Light;
paths = (
{
closed = 1;
nodes = (
"133 0 LINE",
"133 274 LINE",
"452 274 LINE",
"452 0 LINE",
"499 0 LINE",
"499 612 LINE",
"452 612 LINE",
"452 319 LINE",
"133 319 LINE",
"133 612 LINE",
"86 612 LINE",
"86 0 LINE"
);
},
{
closed = 1;
nodes = (
"290 805 LINE",
"295 805 LINE",
"388 707 LINE",
"418 714 LINE",
"317 845 LINE",
"268 845 LINE",
"166 714 LINE",
"196 707 LINE"
);
}
);
width = 584;
}
);
note = Hcircumflex;
unicode = 0124;
},
{
glyphname = Hdotbelow;
lastChange = "2015-07-20 10:39:05 +0000";
layers = (
{
layerId = "0B91E381-1358-4F31-B824-AB2EAC4429E5";
name = Light;
paths = (
{
closed = 1;
nodes = (
"133 0 LINE",
"133 274 LINE",
"452 274 LINE",
"452 0 LINE",
"499 0 LINE",
"499 612 LINE",
"452 612 LINE",
"452 319 LINE",
"133 319 LINE",
"133 612 LINE",
"86 612 LINE",
"86 0 LINE"
);
},
{
closed = 1;
nodes = (
"320 -144 OFFCURVE",
"335 -129 OFFCURVE",
"335 -104 CURVE SMOOTH",
"335 -76 OFFCURVE",
"320 -61 OFFCURVE",
"293 -61 CURVE SMOOTH",
"265 -61 OFFCURVE",
"249 -76 OFFCURVE",
"249 -104 CURVE SMOOTH",
"249 -129 OFFCURVE",
"265 -144 OFFCURVE",
"293 -144 CURVE SMOOTH"
);
}
);
width = 584;
}
);
note = Hdotbelow;
unicode = 1E24;
},
{
glyphname = I;
lastChange = "2015-07-20 10:39:03 +0000";
layers = (
{
layerId = "0B91E381-1358-4F31-B824-AB2EAC4429E5";
name = Light;
paths = (
{
closed = 1;
nodes = (
"136 0 LINE",
"136 612 LINE",
"89 612 LINE",
"89 0 LINE"
);
}
);
width = 225;
}
);
note = I;
unicode = 0049;
},
{
glyphname = IJ;
lastChange = "2015-07-20 10:39:04 +0000";
layers = (
{
layerId = "0B91E381-1358-4F31-B824-AB2EAC4429E5";
name = Light;
paths = (
{
closed = 1;
nodes = (
"505 -9 OFFCURVE",
"564 29 OFFCURVE",
"564 116 CURVE SMOOTH",
"564 616 LINE",
"517 616 LINE",
"517 119 LINE SMOOTH",
"517 92 OFFCURVE",
"514 74 OFFCURVE",
"508 57 CURVE",
"485 44 OFFCURVE",
"450 34 OFFCURVE",
"404 34 CURVE SMOOTH",
"359 34 OFFCURVE",
"315 43 OFFCURVE",
"281 56 CURVE",
"268 14 LINE",
"306 0 OFFCURVE",
"355 -9 OFFCURVE",
"400 -9 CURVE SMOOTH"
);
},
{
closed = 1;
nodes = (
"136 0 LINE",
"136 612 LINE",
"89 612 LINE",
"89 0 LINE"
);
}
);
width = 647;
}
);
note = IJ;
unicode = 0132;
},
{
glyphname = Iacute;
lastChange = "2015-07-20 10:39:04 +0000";
layers = (
{
layerId = "0B91E381-1358-4F31-B824-AB2EAC4429E5";
name = Light;
paths = (
{
closed = 1;
nodes = (
"136 0 LINE",
"136 612 LINE",
"89 612 LINE",
"89 0 LINE"
);
},
{
closed = 1;
nodes = (
"238 847 LINE",
"176 854 LINE",
"92 713 LINE",
"124 708 LINE"
);
}
);
width = 225;
}
);
note = Iacute;
unicode = 00CD;
},
{
glyphname = Ibreve;
lastChange = "2015-07-20 10:39:04 +0000";
layers = (
{
layerId = "0B91E381-1358-4F31-B824-AB2EAC4429E5";
name = Light;
paths = (
{
closed = 1;
nodes = (
"136 0 LINE",
"136 612 LINE",
"89 612 LINE",
"89 0 LINE"
);
},
{
closed = 1;
nodes = (
"190 709 OFFCURVE",
"224 753 OFFCURVE",
"235 810 CURVE",
"189 817 LINE",
"182 776 OFFCURVE",
"167 748 OFFCURVE",
"113 748 CURVE SMOOTH",
"59 748 OFFCURVE",
"43 776 OFFCURVE",
"36 817 CURVE",
"-9 810 LINE",
"1 753 OFFCURVE",
"36 709 OFFCURVE",
"113 709 CURVE SMOOTH"
);
}
);
width = 225;
}
);
note = Ibreve;
unicode = 012C;
},
{
glyphname = Icaron;
lastChange = "2015-07-20 10:39:04 +0000";
layers = (
{
layerId = "0B91E381-1358-4F31-B824-AB2EAC4429E5";
name = Light;
paths = (
{
closed = 1;
nodes = (
"137 714 LINE",
"239 845 LINE",
"208 852 LINE",
"116 754 LINE",
"110 754 LINE",
"17 852 LINE",
"-14 845 LINE",
"88 714 LINE"
);
},
{
closed = 1;
nodes = (
"136 0 LINE",
"136 612 LINE",
"89 612 LINE",
"89 0 LINE"
);
}
);
width = 225;
}
);
note = Icaron;
unicode = 01CF;
},
{
glyphname = Icircumflex;
lastChange = "2015-07-20 10:39:05 +0000";
layers = (
{
layerId = "0B91E381-1358-4F31-B824-AB2EAC4429E5";
name = Light;
paths = (
{
closed = 1;
nodes = (
"110 805 LINE",
"116 805 LINE",
"208 707 LINE",
"239 714 LINE",
"137 845 LINE",
"88 845 LINE",
"-14 714 LINE",
"17 707 LINE"
);
},
{
closed = 1;
nodes = (
"136 0 LINE",
"136 612 LINE",
"89 612 LINE",
"89 0 LINE"
);
}
);
width = 225;
}
);
note = Icircumflex;
unicode = 00CE;
},
{
glyphname = Idieresis;
lastChange = "2015-07-20 10:39:05 +0000";
layers = (
{
layerId = "0B91E381-1358-4F31-B824-AB2EAC4429E5";
name = Light;
paths = (
{
closed = 1;
nodes = (
"136 0 LINE",
"136 612 LINE",
"89 612 LINE",
"89 0 LINE"
);
},
{
closed = 1;
nodes = (
"53 709 OFFCURVE",
"65 721 OFFCURVE",
"65 740 CURVE SMOOTH",
"65 761 OFFCURVE",
"53 772 OFFCURVE",
"33 772 CURVE SMOOTH",
"13 772 OFFCURVE",
"0 761 OFFCURVE",
"0 740 CURVE SMOOTH",
"0 721 OFFCURVE",
"13 709 OFFCURVE",
"33 709 CURVE SMOOTH"
);
},
{
closed = 1;
nodes = (
"211 709 OFFCURVE",
"223 721 OFFCURVE",
"223 740 CURVE SMOOTH",
"223 761 OFFCURVE",
"211 772 OFFCURVE",
"191 772 CURVE SMOOTH",
"170 772 OFFCURVE",
"157 761 OFFCURVE",
"157 740 CURVE SMOOTH",
"157 721 OFFCURVE",
"170 709 OFFCURVE",
"191 709 CURVE SMOOTH"
);
}
);
width = 225;
}
);
note = Idieresis;
unicode = 00CF;
},
{
glyphname = Idotaccent;
lastChange = "2015-07-20 10:39:04 +0000";
layers = (
{
layerId = "0B91E381-1358-4F31-B824-AB2EAC4429E5";
name = Light;
paths = (
{
closed = 1;
nodes = (
"136 0 LINE",
"136 612 LINE",
"89 612 LINE",
"89 0 LINE"
);
},
{
closed = 1;
nodes = (
"140 703 OFFCURVE",
"155 718 OFFCURVE",
"155 743 CURVE SMOOTH",
"155 771 OFFCURVE",
"140 785 OFFCURVE",
"113 785 CURVE SMOOTH",
"85 785 OFFCURVE",
"69 771 OFFCURVE",
"69 743 CURVE SMOOTH",
"69 718 OFFCURVE",
"85 703 OFFCURVE",
"113 703 CURVE SMOOTH"
);
}
);
width = 225;
}
);
note = Idotaccent;
unicode = 0130;
},
{
glyphname = Idotbelow;
lastChange = "2015-07-20 10:39:05 +0000";
layers = (
{
layerId = "0B91E381-1358-4F31-B824-AB2EAC4429E5";
name = Light;
paths = (
{
closed = 1;
nodes = (
"140 0 LINE",
"140 612 LINE",
"93 612 LINE",
"93 0 LINE"
);
},
{
closed = 1;
nodes = (
"145 -152 OFFCURVE",
"160 -138 OFFCURVE",
"160 -112 CURVE SMOOTH",
"160 -85 OFFCURVE",
"145 -70 OFFCURVE",
"118 -70 CURVE SMOOTH",
"90 -70 OFFCURVE",
"74 -85 OFFCURVE",
"74 -112 CURVE SMOOTH",
"74 -138 OFFCURVE",
"90 -152 OFFCURVE",
"118 -152 CURVE SMOOTH"
);
}
);
width = 234;
}
);
note = Idotbelow;
unicode = 1ECA;
},
{
glyphname = Igrave;
lastChange = "2015-07-20 10:39:04 +0000";
layers = (
{
layerId = "0B91E381-1358-4F31-B824-AB2EAC4429E5";
name = Light;
paths = (
{
closed = 1;
nodes = (
"136 0 LINE",
"136 612 LINE",
"89 612 LINE",
"89 0 LINE"
);
},
{
closed = 1;
nodes = (
"136 713 LINE",
"52 854 LINE",
"-10 847 LINE",
"104 708 LINE"
);
}
);
width = 225;
}
);
note = Igrave;
unicode = 00CC;
},
{
glyphname = Ihookabove;
lastChange = "2015-07-20 10:39:04 +0000";
layers = (
{
layerId = "0B91E381-1358-4F31-B824-AB2EAC4429E5";
name = Light;
paths = (
{
closed = 1;
nodes = (
"141 0 LINE",
"141 612 LINE",
"94 612 LINE",
"94 0 LINE"
);
},
{
closed = 1;
nodes = (
"130 714 LINE",
"130 753 LINE",
"182 756 OFFCURVE",
"219 774 OFFCURVE",
"219 827 CURVE SMOOTH",
"219 869 OFFCURVE",
"196 901 OFFCURVE",
"140 901 CURVE SMOOTH",
"114 901 OFFCURVE",
"95 897 OFFCURVE",
"71 888 CURVE",
"81 857 LINE",
"99 863 OFFCURVE",
"116 865 OFFCURVE",
"132 865 CURVE SMOOTH",
"167 865 OFFCURVE",
"180 852 OFFCURVE",
"180 827 CURVE SMOOTH",
"180 793 OFFCURVE",
"157 786 OFFCURVE",
"92 786 CURVE",
"92 763 LINE",
"103 714 LINE"
);
}
);
width = 239;
}
);
note = Ihookabove;
unicode = 1EC8;
},
{
glyphname = Imacron;
lastChange = "2015-07-20 10:39:04 +0000";
layers = (
{
layerId = "0B91E381-1358-4F31-B824-AB2EAC4429E5";
name = Light;
paths = (
{
closed = 1;
nodes = (
"136 0 LINE",
"136 612 LINE",
"89 612 LINE",
"89 0 LINE"
);
},
{
closed = 1;
nodes = (
"248 714 LINE",
"248 755 LINE",
"-22 755 LINE",
"-22 714 LINE"
);
}
);
width = 225;
}
);
note = Imacron;
unicode = 012A;
},
{
glyphname = Iogonek;
lastChange = "2015-07-20 10:39:05 +0000";
layers = (
{
layerId = "0B91E381-1358-4F31-B824-AB2EAC4429E5";
name = Light;
paths = (
{
closed = 1;
nodes = (
"136 -4 LINE",
"136 612 LINE",
"89 612 LINE",
"89 -4 LINE"
);
},
{
closed = 1;
nodes = (
"139 -166 OFFCURVE",
"156 -162 OFFCURVE",
"171 -155 CURVE",
"164 -123 LINE",
"149 -126 OFFCURVE",
"136 -128 OFFCURVE",
"123 -128 CURVE SMOOTH",
"108 -128 OFFCURVE",
"97 -127 OFFCURVE",
"83 -124 CURVE",
"78 -113 OFFCURVE",
"75 -100 OFFCURVE",
"75 -88 CURVE SMOOTH",
"75 -48 OFFCURVE",
"92 -23 OFFCURVE",
"136 -4 CURVE",
"104 6 LINE",
"62 -17 OFFCURVE",
"33 -44 OFFCURVE",
"33 -89 CURVE SMOOTH",
"33 -136 OFFCURVE",
"61 -166 OFFCURVE",
"115 -166 CURVE SMOOTH"
);
}
);
width = 225;
}
);
note = Iogonek;
unicode = 012E;
},
{
glyphname = Itilde;
lastChange = "2015-07-20 10:39:05 +0000";
layers = (
{
layerId = "0B91E381-1358-4F31-B824-AB2EAC4429E5";
name = Light;
paths = (
{
closed = 1;
nodes = (
"136 0 LINE",
"136 612 LINE",
"89 612 LINE",
"89 0 LINE"
);
},
{
closed = 1;
nodes = (
"15 741 OFFCURVE",
"28 762 OFFCURVE",
"57 762 CURVE SMOOTH",
"93 762 OFFCURVE",
"122 709 OFFCURVE",
"172 709 CURVE SMOOTH",
"217 709 OFFCURVE",
"242 741 OFFCURVE",
"245 793 CURVE",
"214 802 LINE",
"210 770 OFFCURVE",
"197 749 OFFCURVE",
"168 749 CURVE SMOOTH",
"129 749 OFFCURVE",
"99 802 OFFCURVE",
"53 802 CURVE SMOOTH",
"8 802 OFFCURVE",
"-17 770 OFFCURVE",
"-20 717 CURVE",
"10 708 LINE"
);
}
);
width = 225;
}
);
note = Itilde;
unicode = 0128;
},
{
glyphname = J;
lastChange = "2015-07-20 10:39:03 +0000";
layers = (
{
layerId = "0B91E381-1358-4F31-B824-AB2EAC4429E5";
name = Light;
paths = (
{
closed = 1;
nodes = (
"268 -9 OFFCURVE",
"327 29 OFFCURVE",
"327 116 CURVE SMOOTH",
"327 616 LINE",
"280 616 LINE",
"280 119 LINE SMOOTH",
"280 92 OFFCURVE",
"277 74 OFFCURVE",
"271 57 CURVE",
"248 44 OFFCURVE",
"213 34 OFFCURVE",
"167 34 CURVE SMOOTH",
"122 34 OFFCURVE",
"78 43 OFFCURVE",
"44 56 CURVE",
"31 14 LINE",
"69 0 OFFCURVE",
"118 -9 OFFCURVE",
"163 -9 CURVE SMOOTH"
);
}
);
width = 411;
}
);
note = J;
unicode = 004A;
},
{
glyphname = Jcircumflex;
lastChange = "2015-07-20 10:39:04 +0000";
layers = (
{
layerId = "0B91E381-1358-4F31-B824-AB2EAC4429E5";
name = Light;
paths = (
{
closed = 1;
nodes = (
"268 -9 OFFCURVE",
"327 29 OFFCURVE",
"327 116 CURVE SMOOTH",
"327 616 LINE",
"280 616 LINE",
"280 119 LINE SMOOTH",
"280 92 OFFCURVE",
"277 74 OFFCURVE",
"271 57 CURVE",
"248 44 OFFCURVE",
"213 34 OFFCURVE",
"167 34 CURVE SMOOTH",
"122 34 OFFCURVE",
"78 43 OFFCURVE",
"44 56 CURVE",
"31 14 LINE",
"69 0 OFFCURVE",
"118 -9 OFFCURVE",
"163 -9 CURVE SMOOTH"
);
},
{
closed = 1;
nodes = (
"297 805 LINE",
"302 805 LINE",
"395 707 LINE",
"425 714 LINE",
"324 845 LINE",
"275 845 LINE",
"173 714 LINE",
"203 707 LINE"
);
}
);
width = 411;
}
);
note = Jcircumflex;
unicode = 0134;
},
{
glyphname = K;
lastChange = "2015-07-20 10:39:03 +0000";
layers = (
{
layerId = "0B91E381-1358-4F31-B824-AB2EAC4429E5";
name = Light;
paths = (
{
closed = 1;
nodes = (
"522 -6 OFFCURVE",
"534 -4 OFFCURVE",
"548 1 CURVE",
"548 28 LINE",
"499 36 LINE",
"409 234 LINE SMOOTH",
"388 278 OFFCURVE",
"370 299 OFFCURVE",
"324 317 CURVE",
"324 323 LINE",
"373 348 OFFCURVE",
"384 371 OFFCURVE",
"406 412 CURVE SMOOTH",
"439 474 OFFCURVE",
"466 531 OFFCURVE",
"494 596 CURVE",
"450 613 LINE",
"422 548 OFFCURVE",
"395 488 OFFCURVE",
"363 426 CURVE SMOOTH",
"340 381 OFFCURVE",
"315 340 OFFCURVE",
"240 340 CURVE SMOOTH",
"132 340 LINE",
"132 612 LINE",
"86 612 LINE",
"86 0 LINE",
"132 0 LINE",
"132 297 LINE",
"245 297 LINE SMOOTH",
"317 297 OFFCURVE",
"344 264 OFFCURVE",
"369 209 CURVE SMOOTH",
"450 29 LINE SMOOTH",
"461 5 OFFCURVE",
"476 -6 OFFCURVE",
"505 -6 CURVE SMOOTH"
);
}
);
width = 581;
}
);
note = K;
unicode = 004B;
},
{
glyphname = Kcommaaccent;
lastChange = "2015-07-20 10:39:04 +0000";
layers = (
{
layerId = "0B91E381-1358-4F31-B824-AB2EAC4429E5";
name = Light;
paths = (
{
closed = 1;
nodes = (
"522 -6 OFFCURVE",
"534 -4 OFFCURVE",
"548 1 CURVE",
"548 28 LINE",
"499 36 LINE",
"409 234 LINE SMOOTH",
"388 278 OFFCURVE",
"370 299 OFFCURVE",
"324 317 CURVE",
"324 323 LINE",
"373 348 OFFCURVE",
"384 371 OFFCURVE",
"406 412 CURVE SMOOTH",
"439 474 OFFCURVE",
"466 531 OFFCURVE",
"494 596 CURVE",
"450 613 LINE",
"422 548 OFFCURVE",
"395 488 OFFCURVE",
"363 426 CURVE SMOOTH",
"340 381 OFFCURVE",
"315 340 OFFCURVE",
"240 340 CURVE SMOOTH",
"132 340 LINE",
"132 612 LINE",
"86 612 LINE",
"86 0 LINE",
"132 0 LINE",
"132 297 LINE",
"245 297 LINE SMOOTH",
"317 297 OFFCURVE",
"344 264 OFFCURVE",
"369 209 CURVE SMOOTH",
"450 29 LINE SMOOTH",
"461 5 OFFCURVE",
"476 -6 OFFCURVE",
"505 -6 CURVE SMOOTH"
);
},
{
closed = 1;
nodes = (
"314 -198 OFFCURVE",
"330 -156 OFFCURVE",
"330 -110 CURVE SMOOTH",
"330 -70 OFFCURVE",
"312 -48 OFFCURVE",
"274 -48 CURVE SMOOTH",
"260 -48 OFFCURVE",
"247 -51 OFFCURVE",
"236 -55 CURVE",
"236 -88 LINE",
"291 -88 LINE",
"291 -148 OFFCURVE",
"278 -187 OFFCURVE",
"255 -228 CURVE",
"285 -235 LINE"
);
}
);
width = 581;
}
);
note = Kcommaaccent;
unicode = 0136;
},
{
glyphname = L;
lastChange = "2015-07-20 11:40:39 +0000";
layers = (
{
layerId = "0B91E381-1358-4F31-B824-AB2EAC4429E5";
name = Light;
paths = (
{
closed = 1;
nodes = (
"421 0 LINE",
"421 44 LINE",
"133 44 LINE",
"133 612 LINE",
"86 612 LINE",
"86 0 LINE"
);
}
);
width = 455;
}
);
leftKerningGroup = L;
note = L;
rightKerningGroup = L;
unicode = 004C;
},
{
glyphname = Lacute;
lastChange = "2015-07-20 11:40:39 +0000";
layers = (
{
layerId = "0B91E381-1358-4F31-B824-AB2EAC4429E5";
name = Light;
paths = (
{
closed = 1;
nodes = (
"421 0 LINE",
"421 44 LINE",
"133 44 LINE",
"133 612 LINE",
"86 612 LINE",
"86 0 LINE"
);
},
{
closed = 1;
nodes = (
"234 847 LINE",
"172 853 LINE",
"88 713 LINE",
"120 707 LINE"
);
}
);
width = 455;
}
);
leftKerningGroup = L;
note = Lacute;
rightKerningGroup = L;
unicode = 0139;
},
{
glyphname = Lcaron;
lastChange = "2015-07-20 11:40:39 +0000";
layers = (
{
layerId = "0B91E381-1358-4F31-B824-AB2EAC4429E5";
name = Light;
paths = (
{
closed = 1;
nodes = (
"421 0 LINE",
"421 44 LINE",
"133 44 LINE",
"133 612 LINE",
"86 612 LINE",
"86 0 LINE"
);
},
{
closed = 1;
nodes = (
"311 463 OFFCURVE",
"327 506 OFFCURVE",
"327 551 CURVE SMOOTH",
"327 592 OFFCURVE",
"309 613 OFFCURVE",
"271 613 CURVE SMOOTH",
"257 613 OFFCURVE",
"244 611 OFFCURVE",
"233 607 CURVE",
"233 574 LINE",
"288 574 LINE",
"288 514 OFFCURVE",
"275 474 OFFCURVE",
"252 433 CURVE",
"282 427 LINE"
);
}
);
width = 455;
}
);
leftKerningGroup = L;
note = Lcaron;
rightKerningGroup = L;
unicode = 013D;
},
{
glyphname = Lcommaaccent;
lastChange = "2015-07-20 11:40:39 +0000";
layers = (
{
layerId = "0B91E381-1358-4F31-B824-AB2EAC4429E5";
name = Light;
paths = (
{
closed = 1;
nodes = (
"421 0 LINE",
"421 44 LINE",
"133 44 LINE",
"133 612 LINE",
"86 612 LINE",
"86 0 LINE"
);
},
{
closed = 1;
nodes = (
"289 -198 OFFCURVE",
"305 -156 OFFCURVE",
"305 -110 CURVE SMOOTH",
"305 -70 OFFCURVE",
"287 -48 OFFCURVE",
"249 -48 CURVE SMOOTH",
"235 -48 OFFCURVE",
"222 -51 OFFCURVE",
"211 -55 CURVE",
"211 -88 LINE",
"266 -88 LINE",
"266 -148 OFFCURVE",
"253 -187 OFFCURVE",
"230 -228 CURVE",
"260 -235 LINE"
);
}
);
width = 455;
}
);
leftKerningGroup = L;
note = Lcommaaccent;
rightKerningGroup = L;
unicode = 013B;
},
{
glyphname = Ldot;
lastChange = "2015-07-20 11:40:39 +0000";
layers = (
{
layerId = "0B91E381-1358-4F31-B824-AB2EAC4429E5";
name = Light;
paths = (
{
closed = 1;
nodes = (
"421 0 LINE",
"421 44 LINE",
"133 44 LINE",
"133 612 LINE",
"86 612 LINE",
"86 0 LINE"
);
},
{
closed = 1;
nodes = (
"301 252 OFFCURVE",
"318 267 OFFCURVE",
"318 292 CURVE SMOOTH",
"318 319 OFFCURVE",
"301 335 OFFCURVE",
"275 335 CURVE SMOOTH",
"250 335 OFFCURVE",
"232 319 OFFCURVE",
"232 292 CURVE SMOOTH",
"232 267 OFFCURVE",
"249 252 OFFCURVE",
"275 252 CURVE SMOOTH"
);
}
);
width = 455;
}
);
leftKerningGroup = L;
note = Ldot;
rightKerningGroup = L;
unicode = 013F;
},
{
glyphname = Ldotbelow;
lastChange = "2015-07-20 11:40:39 +0000";
layers = (
{
layerId = "0B91E381-1358-4F31-B824-AB2EAC4429E5";
name = Light;
paths = (
{
closed = 1;
nodes = (
"421 0 LINE",
"421 44 LINE",
"133 44 LINE",
"133 612 LINE",
"86 612 LINE",
"86 0 LINE"
);
},
{
closed = 1;
nodes = (
"280 -144 OFFCURVE",
"295 -129 OFFCURVE",
"295 -104 CURVE SMOOTH",
"295 -76 OFFCURVE",
"280 -61 OFFCURVE",
"253 -61 CURVE SMOOTH",
"225 -61 OFFCURVE",
"209 -76 OFFCURVE",
"209 -104 CURVE SMOOTH",
"209 -129 OFFCURVE",
"225 -144 OFFCURVE",
"253 -144 CURVE SMOOTH"
);
}
);
width = 455;
}
);
leftKerningGroup = L;
note = Ldotbelow;
rightKerningGroup = L;
unicode = 1E36;
},
{
glyphname = Ldotbelowmacron;
lastChange = "2015-07-20 12:40:22 +0000";
layers = (
{
layerId = "0B91E381-1358-4F31-B824-AB2EAC4429E5";
name = Light;
paths = (
{
closed = 1;
nodes = (
"421 0 LINE",
"421 44 LINE",
"133 44 LINE",
"133 612 LINE",
"86 612 LINE",
"86 0 LINE"
);
},
{
closed = 1;
nodes = (
"279 -144 OFFCURVE",
"294 -129 OFFCURVE",
"294 -104 CURVE SMOOTH",
"294 -76 OFFCURVE",
"279 -61 OFFCURVE",
"252 -61 CURVE SMOOTH",
"224 -61 OFFCURVE",
"208 -76 OFFCURVE",
"208 -104 CURVE SMOOTH",
"208 -129 OFFCURVE",
"224 -144 OFFCURVE",
"252 -144 CURVE SMOOTH"
);
},
{
closed = 1;
nodes = (
"270 714 LINE",
"270 755 LINE",
"0 755 LINE",
"0 714 LINE"
);
}
);
width = 455;
}
);
leftKerningGroup = L;
note = Ldotbelowmacron;
rightKerningGroup = L;
unicode = 1E38;
},
{
glyphname = Llinebelow;
lastChange = "2015-07-20 11:40:39 +0000";
layers = (
{
layerId = "0B91E381-1358-4F31-B824-AB2EAC4429E5";
name = Light;
paths = (
{
closed = 1;
nodes = (
"421 0 LINE",
"421 44 LINE",
"133 44 LINE",
"133 612 LINE",
"86 612 LINE",
"86 0 LINE"
);
},
{
closed = 1;
nodes = (
"387 -116 LINE",
"387 -72 LINE",
"86 -72 LINE",
"86 -116 LINE"
);
}
);
width = 455;
}
);
leftKerningGroup = L;
note = Llinebelow;
rightKerningGroup = L;
unicode = 1E3A;
},
{
glyphname = Lslash;
lastChange = "2015-07-20 11:40:39 +0000";
layers = (
{
layerId = "0B91E381-1358-4F31-B824-AB2EAC4429E5";
name = Light;
paths = (
{
closed = 1;
nodes = (
"437 0 LINE",
"437 44 LINE",
"163 44 LINE",
"163 287 LINE",
"291 328 LINE",
"279 366 LINE",
"163 328 LINE",
"163 612 LINE",
"116 612 LINE",
"116 312 LINE",
"11 278 LINE",
"23 241 LINE",
"116 271 LINE",
"116 0 LINE"
);
}
);
width = 470;
}
);
leftKerningGroup = L;
note = Lslash;
rightKerningGroup = L;
unicode = 0141;
},
{
glyphname = M;
lastChange = "2015-07-20 12:40:38 +0000";
layers = (
{
layerId = "0B91E381-1358-4F31-B824-AB2EAC4429E5";
name = Light;
paths = (
{
closed = 1;
nodes = (
"124 0 LINE",
"140 319 LINE",
"146 522 LINE",
"152 523 LINE",
"316 192 LINE",
"359 192 LINE",
"523 523 LINE",
"529 522 LINE",
"535 319 LINE",
"550 0 LINE",
"598 0 LINE",
"567 612 LINE",
"520 612 LINE",
"341 240 LINE",
"334 240 LINE",
"155 612 LINE",
"107 612 LINE",
"77 0 LINE"
);
}
);
width = 675;
}
);
note = M;
unicode = 004D;
},
{
glyphname = Mdotbelow;
lastChange = "2015-07-20 12:40:43 +0000";
layers = (
{
layerId = "0B91E381-1358-4F31-B824-AB2EAC4429E5";
name = Light;
paths = (
{
closed = 1;
nodes = (
"124 0 LINE",
"140 319 LINE",
"146 522 LINE",
"152 523 LINE",
"316 192 LINE",
"359 192 LINE",
"523 523 LINE",
"529 522 LINE",
"535 319 LINE",
"550 0 LINE",
"598 0 LINE",
"567 612 LINE",
"520 612 LINE",
"341 240 LINE",
"334 240 LINE",
"155 612 LINE",
"107 612 LINE",
"77 0 LINE"
);
},
{
closed = 1;
nodes = (
"365 -144 OFFCURVE",
"380 -129 OFFCURVE",
"380 -104 CURVE SMOOTH",
"380 -76 OFFCURVE",
"365 -61 OFFCURVE",
"338 -61 CURVE SMOOTH",
"310 -61 OFFCURVE",
"294 -76 OFFCURVE",
"294 -104 CURVE SMOOTH",
"294 -129 OFFCURVE",
"310 -144 OFFCURVE",
"338 -144 CURVE SMOOTH"
);
}
);
width = 675;
}
);
note = Mdotbelow;
unicode = 1E42;
},
{
glyphname = N;
lastChange = "2015-07-20 12:41:12 +0000";
layers = (
{
layerId = "0B91E381-1358-4F31-B824-AB2EAC4429E5";
name = Light;
paths = (
{
closed = 1;
nodes = (
"133 0 LINE",
"133 324 LINE",
"125 538 LINE",
"132 540 LINE",
"471 0 LINE",
"524 0 LINE",
"524 612 LINE",
"477 612 LINE",
"477 288 LINE",
"484 74 LINE",
"478 72 LINE",
"139 612 LINE",
"86 612 LINE",
"86 0 LINE"
);
}
);
width = 610;
}
);
note = N;
unicode = 004E;
},
{
glyphname = Nacute;
lastChange = "2015-07-20 12:41:12 +0000";
layers = (
{
layerId = "0B91E381-1358-4F31-B824-AB2EAC4429E5";
name = Light;
paths = (
{
closed = 1;
nodes = (
"133 0 LINE",
"133 324 LINE",
"125 538 LINE",
"132 540 LINE",
"471 0 LINE",
"524 0 LINE",
"524 612 LINE",
"477 612 LINE",
"477 288 LINE",
"484 74 LINE",
"478 72 LINE",
"139 612 LINE",
"86 612 LINE",
"86 0 LINE"
);
},
{
closed = 1;
nodes = (
"428 847 LINE",
"366 854 LINE",
"282 713 LINE",
"314 708 LINE"
);
}
);
width = 610;
}
);
note = Nacute;
unicode = 0143;
},
{
glyphname = Ncaron;
lastChange = "2015-07-20 12:41:12 +0000";
layers = (
{
layerId = "0B91E381-1358-4F31-B824-AB2EAC4429E5";
name = Light;
paths = (
{
closed = 1;
nodes = (
"133 0 LINE",
"133 324 LINE",
"125 538 LINE",
"132 540 LINE",
"471 0 LINE",
"524 0 LINE",
"524 612 LINE",
"477 612 LINE",
"477 288 LINE",
"484 74 LINE",
"478 72 LINE",
"139 612 LINE",
"86 612 LINE",
"86 0 LINE"
);
},
{
closed = 1;
nodes = (
"343 714 LINE",
"444 845 LINE",
"414 852 LINE",
"321 754 LINE",
"316 754 LINE",
"222 852 LINE",
"192 845 LINE",
"294 714 LINE"
);
}
);
width = 610;
}
);
note = Ncaron;
unicode = 0147;
},
{
glyphname = Ncommaaccent;
lastChange = "2015-07-20 12:41:12 +0000";
layers = (
{
layerId = "0B91E381-1358-4F31-B824-AB2EAC4429E5";
name = Light;
paths = (
{
closed = 1;
nodes = (
"133 0 LINE",
"133 324 LINE",
"125 538 LINE",
"132 540 LINE",
"471 0 LINE",
"524 0 LINE",
"524 612 LINE",
"477 612 LINE",
"477 288 LINE",
"484 74 LINE",
"478 72 LINE",
"139 612 LINE",
"86 612 LINE",
"86 0 LINE"
);
},
{
closed = 1;
nodes = (
"351 -198 OFFCURVE",
"367 -156 OFFCURVE",
"367 -110 CURVE SMOOTH",
"367 -70 OFFCURVE",
"349 -48 OFFCURVE",
"311 -48 CURVE SMOOTH",
"297 -48 OFFCURVE",
"284 -51 OFFCURVE",
"273 -55 CURVE",
"273 -88 LINE",
"328 -88 LINE",
"328 -148 OFFCURVE",
"315 -187 OFFCURVE",
"292 -228 CURVE",
"322 -235 LINE"
);
}
);
width = 610;
}
);
note = Ncommaaccent;
unicode = 0145;
},
{
glyphname = Ndotaccent;
lastChange = "2015-07-20 12:41:12 +0000";
layers = (
{
layerId = "0B91E381-1358-4F31-B824-AB2EAC4429E5";
name = Light;
paths = (
{
closed = 1;
nodes = (
"133 0 LINE",
"133 324 LINE",
"125 538 LINE",
"132 540 LINE",
"471 0 LINE",
"524 0 LINE",
"524 612 LINE",
"477 612 LINE",
"477 288 LINE",
"484 74 LINE",
"478 72 LINE",
"139 612 LINE",
"86 612 LINE",
"86 0 LINE"
);
},
{
closed = 1;
nodes = (
"343 709 OFFCURVE",
"358 723 OFFCURVE",
"358 749 CURVE SMOOTH",
"358 777 OFFCURVE",
"343 791 OFFCURVE",
"316 791 CURVE SMOOTH",
"288 791 OFFCURVE",
"272 777 OFFCURVE",
"272 749 CURVE SMOOTH",
"272 723 OFFCURVE",
"288 709 OFFCURVE",
"316 709 CURVE SMOOTH"
);
}
);
width = 610;
}
);
note = Ndotaccent;
unicode = 1E44;
},
{
glyphname = Ndotbelow;
lastChange = "2015-07-20 12:41:12 +0000";
layers = (
{
layerId = "0B91E381-1358-4F31-B824-AB2EAC4429E5";
name = Light;
paths = (
{
closed = 1;
nodes = (
"133 0 LINE",
"133 324 LINE",
"125 538 LINE",
"132 540 LINE",
"471 0 LINE",
"524 0 LINE",
"524 612 LINE",
"477 612 LINE",
"477 288 LINE",
"484 74 LINE",
"478 72 LINE",
"139 612 LINE",
"86 612 LINE",
"86 0 LINE"
);
},
{
closed = 1;
nodes = (
"337 -144 OFFCURVE",
"352 -129 OFFCURVE",
"352 -104 CURVE SMOOTH",
"352 -76 OFFCURVE",
"337 -61 OFFCURVE",
"310 -61 CURVE SMOOTH",
"282 -61 OFFCURVE",
"266 -76 OFFCURVE",
"266 -104 CURVE SMOOTH",
"266 -129 OFFCURVE",
"282 -144 OFFCURVE",
"310 -144 CURVE SMOOTH"
);
}
);
width = 610;
}
);
note = Ndotbelow;
unicode = 1E46;
},
{
glyphname = Eng;
lastChange = "2015-07-20 12:41:12 +0000";
layers = (
{
layerId = "0B91E381-1358-4F31-B824-AB2EAC4429E5";
name = Light;
paths = (
{
closed = 1;
nodes = (
"486 -175 OFFCURVE",
"524 -126 OFFCURVE",
"524 -33 CURVE SMOOTH",
"524 612 LINE",
"477 612 LINE",
"477 288 LINE",
"484 74 LINE",
"478 72 LINE",
"139 612 LINE",
"86 612 LINE",
"86 0 LINE",
"133 0 LINE",
"133 324 LINE",
"125 538 LINE",
"132 540 LINE",
"475 0 LINE",
"475 -56 LINE SMOOTH",
"475 -81 OFFCURVE",
"473 -100 OFFCURVE",
"467 -118 CURVE",
"436 -140 OFFCURVE",
"397 -156 OFFCURVE",
"352 -168 CURVE",
"374 -217 LINE"
);
}
);
width = 610;
}
);
note = Eng;
unicode = 014A;
},
{
glyphname = Nlinebelow;
lastChange = "2015-07-20 12:41:12 +0000";
layers = (
{
layerId = "0B91E381-1358-4F31-B824-AB2EAC4429E5";
name = Light;
paths = (
{
closed = 1;
nodes = (
"133 0 LINE",
"133 324 LINE",
"125 538 LINE",
"132 540 LINE",
"471 0 LINE",
"524 0 LINE",
"524 612 LINE",
"477 612 LINE",
"477 288 LINE",
"484 74 LINE",
"478 72 LINE",
"139 612 LINE",
"86 612 LINE",
"86 0 LINE"
);
},
{
closed = 1;
nodes = (
"506 -116 LINE",
"506 -72 LINE",
"205 -72 LINE",
"205 -116 LINE"
);
}
);
width = 610;
}
);
note = Nlinebelow;
unicode = 1E48;
},
{
glyphname = Ntilde;
lastChange = "2015-07-20 12:41:12 +0000";
layers = (
{
layerId = "0B91E381-1358-4F31-B824-AB2EAC4429E5";
name = Light;
paths = (
{
closed = 1;
nodes = (
"133 0 LINE",
"133 324 LINE",
"125 538 LINE",
"132 540 LINE",
"471 0 LINE",
"524 0 LINE",
"524 612 LINE",
"477 612 LINE",
"477 288 LINE",
"484 74 LINE",
"478 72 LINE",
"139 612 LINE",
"86 612 LINE",
"86 0 LINE"
);
},
{
closed = 1;
nodes = (
"208 742 OFFCURVE",
"221 763 OFFCURVE",
"250 763 CURVE SMOOTH",
"287 763 OFFCURVE",
"316 710 OFFCURVE",
"365 710 CURVE SMOOTH",
"410 710 OFFCURVE",
"435 742 OFFCURVE",
"438 794 CURVE",
"407 804 LINE",
"403 771 OFFCURVE",
"390 750 OFFCURVE",
"361 750 CURVE SMOOTH",
"323 750 OFFCURVE",
"293 803 OFFCURVE",
"246 803 CURVE SMOOTH",
"201 803 OFFCURVE",
"176 771 OFFCURVE",
"173 719 CURVE",
"204 710 LINE"
);
}
);
width = 610;
}
);
note = Ntilde;
unicode = 00D1;
},
{
glyphname = O;
lastChange = "2015-07-20 11:57:56 +0000";
layers = (
{
layerId = "0B91E381-1358-4F31-B824-AB2EAC4429E5";
name = Light;
paths = (
{
closed = 1;
nodes = (
"483 -9 OFFCURVE",
"541 117 OFFCURVE",
"541 315 CURVE SMOOTH",
"541 515 OFFCURVE",
"474 622 OFFCURVE",
"312 622 CURVE SMOOTH",
"120 622 OFFCURVE",
"61 494 OFFCURVE",
"61 297 CURVE SMOOTH",
"61 97 OFFCURVE",
"131 -9 OFFCURVE",
"290 -9 CURVE SMOOTH"
);
},
{
closed = 1;
nodes = (
"155 35 OFFCURVE",
"108 125 OFFCURVE",
"108 308 CURVE SMOOTH",
"108 409 OFFCURVE",
"129 490 OFFCURVE",
"167 549 CURVE",
"199 567 OFFCURVE",
"251 577 OFFCURVE",
"297 577 CURVE SMOOTH",
"448 577 OFFCURVE",
"494 487 OFFCURVE",
"494 304 CURVE SMOOTH",
"494 203 OFFCURVE",
"472 121 OFFCURVE",
"434 63 CURVE",
"402 45 OFFCURVE",
"351 35 OFFCURVE",
"305 35 CURVE SMOOTH"
);
}
);
width = 602;
}
);
leftKerningGroup = O;
note = O;
rightKerningGroup = O;
unicode = 004F;
},
{
glyphname = Oacute;
lastChange = "2015-07-20 11:40:46 +0000";
layers = (
{
layerId = "0B91E381-1358-4F31-B824-AB2EAC4429E5";
name = Light;
paths = (
{
closed = 1;
nodes = (
"483 -9 OFFCURVE",
"541 117 OFFCURVE",
"541 315 CURVE SMOOTH",
"541 515 OFFCURVE",
"474 622 OFFCURVE",
"312 622 CURVE SMOOTH",
"120 622 OFFCURVE",
"61 494 OFFCURVE",
"61 297 CURVE SMOOTH",
"61 97 OFFCURVE",
"131 -9 OFFCURVE",
"290 -9 CURVE SMOOTH"
);
},
{
closed = 1;
nodes = (
"155 35 OFFCURVE",
"108 125 OFFCURVE",
"108 308 CURVE SMOOTH",
"108 409 OFFCURVE",
"129 490 OFFCURVE",
"167 549 CURVE",
"199 567 OFFCURVE",
"251 577 OFFCURVE",
"297 577 CURVE SMOOTH",
"448 577 OFFCURVE",
"494 487 OFFCURVE",
"494 304 CURVE SMOOTH",
"494 203 OFFCURVE",
"472 121 OFFCURVE",
"434 63 CURVE",
"402 45 OFFCURVE",
"351 35 OFFCURVE",
"305 35 CURVE SMOOTH"
);
},
{
closed = 1;
nodes = (
"431 847 LINE",
"369 854 LINE",
"285 713 LINE",
"317 707 LINE"
);
}
);
width = 602;
}
);
leftKerningGroup = O;
note = Oacute;
rightKerningGroup = O;
unicode = 00D3;
},
{
glyphname = Obreve;
lastChange = "2015-07-20 11:40:46 +0000";
layers = (
{
layerId = "0B91E381-1358-4F31-B824-AB2EAC4429E5";
name = Light;
paths = (
{
closed = 1;
nodes = (
"483 -9 OFFCURVE",
"541 117 OFFCURVE",
"541 315 CURVE SMOOTH",
"541 515 OFFCURVE",
"474 622 OFFCURVE",
"312 622 CURVE SMOOTH",
"120 622 OFFCURVE",
"61 494 OFFCURVE",
"61 297 CURVE SMOOTH",
"61 97 OFFCURVE",
"131 -9 OFFCURVE",
"290 -9 CURVE SMOOTH"
);
},
{
closed = 1;
nodes = (
"155 35 OFFCURVE",
"108 125 OFFCURVE",
"108 308 CURVE SMOOTH",
"108 409 OFFCURVE",
"129 490 OFFCURVE",
"167 549 CURVE",
"199 567 OFFCURVE",
"251 577 OFFCURVE",
"297 577 CURVE SMOOTH",
"448 577 OFFCURVE",
"494 487 OFFCURVE",
"494 304 CURVE SMOOTH",
"494 203 OFFCURVE",
"472 121 OFFCURVE",
"434 63 CURVE",
"402 45 OFFCURVE",
"351 35 OFFCURVE",
"305 35 CURVE SMOOTH"
);
},
{
closed = 1;
nodes = (
"378 709 OFFCURVE",
"412 753 OFFCURVE",
"423 810 CURVE",
"378 817 LINE",
"370 776 OFFCURVE",
"355 748 OFFCURVE",
"301 748 CURVE SMOOTH",
"247 748 OFFCURVE",
"232 776 OFFCURVE",
"224 817 CURVE",
"179 810 LINE",
"190 753 OFFCURVE",
"224 709 OFFCURVE",
"301 709 CURVE SMOOTH"
);
}
);
width = 602;
}
);
leftKerningGroup = O;
note = Obreve;
rightKerningGroup = O;
unicode = 014E;
},
{
glyphname = Ocaron;
lastChange = "2015-07-20 11:40:46 +0000";
layers = (
{
layerId = "0B91E381-1358-4F31-B824-AB2EAC4429E5";
name = Light;
paths = (
{
closed = 1;
nodes = (
"483 -9 OFFCURVE",
"541 117 OFFCURVE",
"541 315 CURVE SMOOTH",
"541 515 OFFCURVE",
"474 622 OFFCURVE",
"312 622 CURVE SMOOTH",
"120 622 OFFCURVE",
"61 494 OFFCURVE",
"61 297 CURVE SMOOTH",
"61 97 OFFCURVE",
"131 -9 OFFCURVE",
"290 -9 CURVE SMOOTH"
);
},
{
closed = 1;
nodes = (
"155 35 OFFCURVE",
"108 125 OFFCURVE",
"108 308 CURVE SMOOTH",
"108 409 OFFCURVE",
"129 490 OFFCURVE",
"167 549 CURVE",
"199 567 OFFCURVE",
"251 577 OFFCURVE",
"297 577 CURVE SMOOTH",
"448 577 OFFCURVE",
"494 487 OFFCURVE",
"494 304 CURVE SMOOTH",
"494 203 OFFCURVE",
"472 121 OFFCURVE",
"434 63 CURVE",
"402 45 OFFCURVE",
"351 35 OFFCURVE",
"305 35 CURVE SMOOTH"
);
},
{
closed = 1;
nodes = (
"329 714 LINE",
"430 845 LINE",
"400 852 LINE",
"307 754 LINE",
"302 754 LINE",
"208 852 LINE",
"178 845 LINE",
"280 714 LINE"
);
}
);
width = 602;
}
);
leftKerningGroup = O;
note = Ocaron;
rightKerningGroup = O;
unicode = 01D1;
},
{
glyphname = Ocircumflex;
lastChange = "2015-07-20 11:40:46 +0000";
layers = (
{
layerId = "0B91E381-1358-4F31-B824-AB2EAC4429E5";
name = Light;
paths = (
{
closed = 1;
nodes = (
"483 -9 OFFCURVE",
"541 117 OFFCURVE",
"541 315 CURVE SMOOTH",
"541 515 OFFCURVE",
"474 622 OFFCURVE",
"312 622 CURVE SMOOTH",
"120 622 OFFCURVE",
"61 494 OFFCURVE",
"61 297 CURVE SMOOTH",
"61 97 OFFCURVE",
"131 -9 OFFCURVE",
"290 -9 CURVE SMOOTH"
);
},
{
closed = 1;
nodes = (
"155 35 OFFCURVE",
"108 125 OFFCURVE",
"108 308 CURVE SMOOTH",
"108 409 OFFCURVE",
"129 490 OFFCURVE",
"167 549 CURVE",
"199 567 OFFCURVE",
"251 577 OFFCURVE",
"297 577 CURVE SMOOTH",
"448 577 OFFCURVE",
"494 487 OFFCURVE",
"494 304 CURVE SMOOTH",
"494 203 OFFCURVE",
"472 121 OFFCURVE",
"434 63 CURVE",
"402 45 OFFCURVE",
"351 35 OFFCURVE",
"305 35 CURVE SMOOTH"
);
},
{
closed = 1;
nodes = (
"307 805 LINE",
"312 805 LINE",
"405 707 LINE",
"435 714 LINE",
"334 845 LINE",
"285 845 LINE",
"183 714 LINE",
"213 707 LINE"
);
}
);
width = 602;
}
);
leftKerningGroup = O;
note = Ocircumflex;
rightKerningGroup = O;
unicode = 00D4;
},
{
glyphname = Ocircumflexacute;
lastChange = "2015-07-20 11:40:46 +0000";
layers = (
{
layerId = "0B91E381-1358-4F31-B824-AB2EAC4429E5";
name = Light;
paths = (
{
closed = 1;
nodes = (
"483 -9 OFFCURVE",
"541 117 OFFCURVE",
"541 315 CURVE SMOOTH",
"541 515 OFFCURVE",
"474 622 OFFCURVE",
"312 622 CURVE SMOOTH",
"120 622 OFFCURVE",
"61 494 OFFCURVE",
"61 297 CURVE SMOOTH",
"61 97 OFFCURVE",
"131 -9 OFFCURVE",
"290 -9 CURVE SMOOTH"
);
},
{
closed = 1;
nodes = (
"155 35 OFFCURVE",
"108 125 OFFCURVE",
"108 308 CURVE SMOOTH",
"108 409 OFFCURVE",
"129 490 OFFCURVE",
"167 549 CURVE",
"199 567 OFFCURVE",
"251 577 OFFCURVE",
"297 577 CURVE SMOOTH",
"448 577 OFFCURVE",
"494 487 OFFCURVE",
"494 304 CURVE SMOOTH",
"494 203 OFFCURVE",
"472 121 OFFCURVE",
"434 63 CURVE",
"402 45 OFFCURVE",
"351 35 OFFCURVE",
"305 35 CURVE SMOOTH"
);
},
{
closed = 1;
nodes = (
"304 805 LINE",
"309 805 LINE",
"402 707 LINE",
"432 714 LINE",
"331 845 LINE",
"282 845 LINE",
"180 714 LINE",
"210 707 LINE"
);
},
{
closed = 1;
nodes = (
"545 897 LINE",
"497 906 LINE",
"436 802 LINE",
"464 796 LINE"
);
}
);
width = 602;
}
);
leftKerningGroup = O;
note = Ocircumflexacute;
rightKerningGroup = O;
unicode = 1ED0;
},
{
glyphname = Ocircumflexdotbelow;
lastChange = "2015-07-20 11:40:46 +0000";
layers = (
{
layerId = "0B91E381-1358-4F31-B824-AB2EAC4429E5";
name = Light;
paths = (
{
closed = 1;
nodes = (
"483 -9 OFFCURVE",
"541 117 OFFCURVE",
"541 315 CURVE SMOOTH",
"541 515 OFFCURVE",
"474 622 OFFCURVE",
"312 622 CURVE SMOOTH",
"120 622 OFFCURVE",
"61 494 OFFCURVE",
"61 297 CURVE SMOOTH",
"61 97 OFFCURVE",
"131 -9 OFFCURVE",
"290 -9 CURVE SMOOTH"
);
},
{
closed = 1;
nodes = (
"332 -152 OFFCURVE",
"347 -138 OFFCURVE",
"347 -112 CURVE SMOOTH",
"347 -85 OFFCURVE",
"332 -70 OFFCURVE",
"305 -70 CURVE SMOOTH",
"277 -70 OFFCURVE",
"261 -85 OFFCURVE",
"261 -112 CURVE SMOOTH",
"261 -138 OFFCURVE",
"277 -152 OFFCURVE",
"305 -152 CURVE SMOOTH"
);
},
{
closed = 1;
nodes = (
"155 35 OFFCURVE",
"108 125 OFFCURVE",
"108 308 CURVE SMOOTH",
"108 409 OFFCURVE",
"129 490 OFFCURVE",
"167 549 CURVE",
"199 567 OFFCURVE",
"251 577 OFFCURVE",
"297 577 CURVE SMOOTH",
"448 577 OFFCURVE",
"494 487 OFFCURVE",
"494 304 CURVE SMOOTH",
"494 203 OFFCURVE",
"472 121 OFFCURVE",
"434 63 CURVE",
"402 45 OFFCURVE",
"351 35 OFFCURVE",
"305 35 CURVE SMOOTH"
);
},
{
closed = 1;
nodes = (
"302 805 LINE",
"307 805 LINE",
"400 707 LINE",
"430 714 LINE",
"329 845 LINE",
"280 845 LINE",
"178 714 LINE",
"208 707 LINE"
);
}
);
width = 602;
}
);
leftKerningGroup = O;
note = Ocircumflexdotbelow;
rightKerningGroup = O;
unicode = 1ED8;
},
{
glyphname = Ocircumflexgrave;
lastChange = "2015-07-20 12:41:41 +0000";
layers = (
{
layerId = "0B91E381-1358-4F31-B824-AB2EAC4429E5";
name = Light;
paths = (
{
closed = 1;
nodes = (
"483 -9 OFFCURVE",
"541 117 OFFCURVE",
"541 315 CURVE SMOOTH",
"541 515 OFFCURVE",
"474 622 OFFCURVE",
"312 622 CURVE SMOOTH",
"120 622 OFFCURVE",
"61 494 OFFCURVE",
"61 297 CURVE SMOOTH",
"61 97 OFFCURVE",
"131 -9 OFFCURVE",
"290 -9 CURVE SMOOTH"
);
},
{
closed = 1;
nodes = (
"155 35 OFFCURVE",
"108 125 OFFCURVE",
"108 308 CURVE SMOOTH",
"108 409 OFFCURVE",
"129 490 OFFCURVE",
"167 549 CURVE",
"199 567 OFFCURVE",
"251 577 OFFCURVE",
"297 577 CURVE SMOOTH",
"448 577 OFFCURVE",
"494 487 OFFCURVE",
"494 304 CURVE SMOOTH",
"494 203 OFFCURVE",
"472 121 OFFCURVE",
"434 63 CURVE",
"402 45 OFFCURVE",
"351 35 OFFCURVE",
"305 35 CURVE SMOOTH"
);
},
{
closed = 1;
nodes = (
"302 804 LINE",
"308 804 LINE",
"401 706 LINE",
"431 713 LINE",
"329 844 LINE",
"281 844 LINE",
"179 713 LINE",
"210 706 LINE"
);
},
{
closed = 1;
nodes = (
"172 801 LINE",
"110 905 LINE",
"63 896 LINE",
"144 795 LINE"
);
}
);
width = 602;
}
);
leftKerningGroup = O;
note = Ocircumflexgrave;
rightKerningGroup = O;
unicode = 1ED2;
},
{
glyphname = Ocircumflexhookabove;
lastChange = "2015-07-20 12:41:55 +0000";
layers = (
{
layerId = "0B91E381-1358-4F31-B824-AB2EAC4429E5";
name = Light;
paths = (
{
closed = 1;
nodes = (
"483 -9 OFFCURVE",
"541 117 OFFCURVE",
"541 315 CURVE SMOOTH",
"541 515 OFFCURVE",
"474 622 OFFCURVE",
"312 622 CURVE SMOOTH",
"120 622 OFFCURVE",
"61 494 OFFCURVE",
"61 297 CURVE SMOOTH",
"61 97 OFFCURVE",
"131 -9 OFFCURVE",
"290 -9 CURVE SMOOTH"
);
},
{
closed = 1;
nodes = (
"155 35 OFFCURVE",
"108 125 OFFCURVE",
"108 308 CURVE SMOOTH",
"108 409 OFFCURVE",
"129 490 OFFCURVE",
"167 549 CURVE",
"199 567 OFFCURVE",
"251 577 OFFCURVE",
"297 577 CURVE SMOOTH",
"448 577 OFFCURVE",
"494 487 OFFCURVE",
"494 304 CURVE SMOOTH",
"494 203 OFFCURVE",
"472 121 OFFCURVE",
"434 63 CURVE",
"402 45 OFFCURVE",
"351 35 OFFCURVE",
"305 35 CURVE SMOOTH"
);
},
{
closed = 1;
nodes = (
"304 804 LINE",
"309 804 LINE",
"402 707 LINE",
"432 713 LINE",
"331 845 LINE",
"282 845 LINE",
"180 713 LINE",
"210 707 LINE"
);
},
{
closed = 1;
nodes = (
"460 812 LINE",
"460 849 LINE",
"500 850 OFFCURVE",
"522 867 OFFCURVE",
"522 900 CURVE SMOOTH",
"522 933 OFFCURVE",
"503 954 OFFCURVE",
"463 954 CURVE SMOOTH",
"445 954 OFFCURVE",
"430 951 OFFCURVE",
"412 944 CURVE",
"419 918 LINE",
"432 922 OFFCURVE",
"445 924 OFFCURVE",
"458 924 CURVE SMOOTH",
"480 924 OFFCURVE",
"490 918 OFFCURVE",
"490 900 CURVE SMOOTH",
"490 881 OFFCURVE",
"475 874 OFFCURVE",
"428 874 CURVE",
"428 854 LINE",
"437 812 LINE"
);
}
);
width = 602;
}
);
leftKerningGroup = O;
note = Ocircumflexhookabove;
rightKerningGroup = O;
unicode = 1ED4;
},
{
glyphname = Ocircumflextilde;
lastChange = "2015-07-20 11:40:46 +0000";
layers = (
{
layerId = "0B91E381-1358-4F31-B824-AB2EAC4429E5";
name = Light;
paths = (
{
closed = 1;
nodes = (
"483 -9 OFFCURVE",
"541 117 OFFCURVE",
"541 315 CURVE SMOOTH",
"541 515 OFFCURVE",
"474 622 OFFCURVE",
"312 622 CURVE SMOOTH",
"120 622 OFFCURVE",
"61 494 OFFCURVE",
"61 297 CURVE SMOOTH",
"61 97 OFFCURVE",
"131 -9 OFFCURVE",
"290 -9 CURVE SMOOTH"
);
},
{
closed = 1;
nodes = (
"155 35 OFFCURVE",
"108 125 OFFCURVE",
"108 308 CURVE SMOOTH",
"108 409 OFFCURVE",
"129 490 OFFCURVE",
"167 549 CURVE",
"199 567 OFFCURVE",
"251 577 OFFCURVE",
"297 577 CURVE SMOOTH",
"448 577 OFFCURVE",
"494 487 OFFCURVE",
"494 304 CURVE SMOOTH",
"494 203 OFFCURVE",
"472 121 OFFCURVE",
"434 63 CURVE",
"402 45 OFFCURVE",
"351 35 OFFCURVE",
"305 35 CURVE SMOOTH"
);
},
{
closed = 1;
nodes = (
"309 805 LINE",
"314 805 LINE",
"407 707 LINE",
"437 714 LINE",
"336 845 LINE",
"287 845 LINE",
"185 714 LINE",
"215 707 LINE"
);
},
{
closed = 1;
nodes = (
"230 929 OFFCURVE",
"243 940 OFFCURVE",
"268 940 CURVE SMOOTH",
"301 940 OFFCURVE",
"317 907 OFFCURVE",
"360 907 CURVE SMOOTH",
"392 907 OFFCURVE",
"416 926 OFFCURVE",
"422 971 CURVE",
"396 979 LINE",
"390 953 OFFCURVE",
"378 942 OFFCURVE",
"353 942 CURVE SMOOTH",
"327 942 OFFCURVE",
"307 975 OFFCURVE",
"261 975 CURVE SMOOTH",
"228 975 OFFCURVE",
"205 956 OFFCURVE",
"198 911 CURVE",
"224 904 LINE"
);
}
);
width = 602;
}
);
leftKerningGroup = O;
note = Ocircumflextilde;
rightKerningGroup = O;
unicode = 1ED6;
},
{
glyphname = Odieresis;
lastChange = "2015-07-20 11:40:46 +0000";
layers = (
{
layerId = "0B91E381-1358-4F31-B824-AB2EAC4429E5";
name = Light;
paths = (
{
closed = 1;
nodes = (
"483 -9 OFFCURVE",
"541 117 OFFCURVE",
"541 315 CURVE SMOOTH",
"541 515 OFFCURVE",
"474 622 OFFCURVE",
"312 622 CURVE SMOOTH",
"120 622 OFFCURVE",
"61 494 OFFCURVE",
"61 297 CURVE SMOOTH",
"61 97 OFFCURVE",
"131 -9 OFFCURVE",
"290 -9 CURVE SMOOTH"
);
},
{
closed = 1;
nodes = (
"155 35 OFFCURVE",
"108 125 OFFCURVE",
"108 308 CURVE SMOOTH",
"108 409 OFFCURVE",
"129 490 OFFCURVE",
"167 549 CURVE",
"199 567 OFFCURVE",
"251 577 OFFCURVE",
"297 577 CURVE SMOOTH",
"448 577 OFFCURVE",
"494 487 OFFCURVE",
"494 304 CURVE SMOOTH",
"494 203 OFFCURVE",
"472 121 OFFCURVE",
"434 63 CURVE",
"402 45 OFFCURVE",
"351 35 OFFCURVE",
"305 35 CURVE SMOOTH"
);
},
{
closed = 1;
nodes = (
"243 709 OFFCURVE",
"255 721 OFFCURVE",
"255 740 CURVE SMOOTH",
"255 761 OFFCURVE",
"243 772 OFFCURVE",
"223 772 CURVE SMOOTH",
"203 772 OFFCURVE",
"190 761 OFFCURVE",
"190 740 CURVE SMOOTH",
"190 721 OFFCURVE",
"203 709 OFFCURVE",
"223 709 CURVE SMOOTH"
);
},
{
closed = 1;
nodes = (
"401 709 OFFCURVE",
"413 721 OFFCURVE",
"413 740 CURVE SMOOTH",
"413 761 OFFCURVE",
"401 772 OFFCURVE",
"381 772 CURVE SMOOTH",
"360 772 OFFCURVE",
"347 761 OFFCURVE",
"347 740 CURVE SMOOTH",
"347 721 OFFCURVE",
"360 709 OFFCURVE",
"381 709 CURVE SMOOTH"
);
}
);
width = 602;
}
);
leftKerningGroup = O;
note = Odieresis;
rightKerningGroup = O;
unicode = 00D6;
},
{
glyphname = Odotbelow;
lastChange = "2015-07-20 11:40:46 +0000";
layers = (
{
layerId = "0B91E381-1358-4F31-B824-AB2EAC4429E5";
name = Light;
paths = (
{
closed = 1;
nodes = (
"483 -9 OFFCURVE",
"541 117 OFFCURVE",
"541 315 CURVE SMOOTH",
"541 515 OFFCURVE",
"474 622 OFFCURVE",
"312 622 CURVE SMOOTH",
"120 622 OFFCURVE",
"61 494 OFFCURVE",
"61 297 CURVE SMOOTH",
"61 97 OFFCURVE",
"131 -9 OFFCURVE",
"290 -9 CURVE SMOOTH"
);
},
{
closed = 1;
nodes = (
"325 -152 OFFCURVE",
"340 -138 OFFCURVE",
"340 -112 CURVE SMOOTH",
"340 -85 OFFCURVE",
"325 -70 OFFCURVE",
"298 -70 CURVE SMOOTH",
"270 -70 OFFCURVE",
"254 -85 OFFCURVE",
"254 -112 CURVE SMOOTH",
"254 -138 OFFCURVE",
"270 -152 OFFCURVE",
"298 -152 CURVE SMOOTH"
);
},
{
closed = 1;
nodes = (
"155 35 OFFCURVE",
"108 125 OFFCURVE",
"108 308 CURVE SMOOTH",
"108 409 OFFCURVE",
"129 490 OFFCURVE",
"167 549 CURVE",
"199 567 OFFCURVE",
"251 577 OFFCURVE",
"297 577 CURVE SMOOTH",
"448 577 OFFCURVE",
"494 487 OFFCURVE",
"494 304 CURVE SMOOTH",
"494 203 OFFCURVE",
"472 121 OFFCURVE",
"434 63 CURVE",
"402 45 OFFCURVE",
"351 35 OFFCURVE",
"305 35 CURVE SMOOTH"
);
}
);
width = 602;
}
);
leftKerningGroup = O;
note = Odotbelow;
rightKerningGroup = O;
unicode = 1ECC;
},
{
glyphname = Ograve;
lastChange = "2015-07-20 11:40:46 +0000";
layers = (
{
layerId = "0B91E381-1358-4F31-B824-AB2EAC4429E5";
name = Light;
paths = (
{
closed = 1;
nodes = (
"483 -9 OFFCURVE",
"541 117 OFFCURVE",
"541 315 CURVE SMOOTH",
"541 515 OFFCURVE",
"474 622 OFFCURVE",
"312 622 CURVE SMOOTH",
"120 622 OFFCURVE",
"61 494 OFFCURVE",
"61 297 CURVE SMOOTH",
"61 97 OFFCURVE",
"131 -9 OFFCURVE",
"290 -9 CURVE SMOOTH"
);
},
{
closed = 1;
nodes = (
"155 35 OFFCURVE",
"108 125 OFFCURVE",
"108 308 CURVE SMOOTH",
"108 409 OFFCURVE",
"129 490 OFFCURVE",
"167 549 CURVE",
"199 567 OFFCURVE",
"251 577 OFFCURVE",
"297 577 CURVE SMOOTH",
"448 577 OFFCURVE",
"494 487 OFFCURVE",
"494 304 CURVE SMOOTH",
"494 203 OFFCURVE",
"472 121 OFFCURVE",
"434 63 CURVE",
"402 45 OFFCURVE",
"351 35 OFFCURVE",
"305 35 CURVE SMOOTH"
);
},
{
closed = 1;
nodes = (
"341 712 LINE",
"257 853 LINE",
"195 846 LINE",
"309 707 LINE"
);
}
);
width = 602;
}
);
leftKerningGroup = O;
note = Ograve;
rightKerningGroup = O;
unicode = 00D2;
},
{
glyphname = Ohookabove;
lastChange = "2015-07-20 11:40:46 +0000";
layers = (
{
layerId = "0B91E381-1358-4F31-B824-AB2EAC4429E5";
name = Light;
paths = (
{
closed = 1;
nodes = (
"483 -9 OFFCURVE",
"541 117 OFFCURVE",
"541 315 CURVE SMOOTH",
"541 515 OFFCURVE",
"474 622 OFFCURVE",
"312 622 CURVE SMOOTH",
"120 622 OFFCURVE",
"61 494 OFFCURVE",
"61 297 CURVE SMOOTH",
"61 97 OFFCURVE",
"131 -9 OFFCURVE",
"290 -9 CURVE SMOOTH"
);
},
{
closed = 1;
nodes = (
"155 35 OFFCURVE",
"108 125 OFFCURVE",
"108 308 CURVE SMOOTH",
"108 409 OFFCURVE",
"129 490 OFFCURVE",
"167 549 CURVE",
"199 567 OFFCURVE",
"251 577 OFFCURVE",
"297 577 CURVE SMOOTH",
"448 577 OFFCURVE",
"494 487 OFFCURVE",
"494 304 CURVE SMOOTH",
"494 203 OFFCURVE",
"472 121 OFFCURVE",
"434 63 CURVE",
"402 45 OFFCURVE",
"351 35 OFFCURVE",
"305 35 CURVE SMOOTH"
);
},
{
closed = 1;
nodes = (
"318 714 LINE",
"318 753 LINE",
"370 756 OFFCURVE",
"407 774 OFFCURVE",
"407 827 CURVE SMOOTH",
"407 869 OFFCURVE",
"384 901 OFFCURVE",
"328 901 CURVE SMOOTH",
"302 901 OFFCURVE",
"283 897 OFFCURVE",
"259 888 CURVE",
"269 857 LINE",
"287 863 OFFCURVE",
"304 865 OFFCURVE",
"320 865 CURVE SMOOTH",
"355 865 OFFCURVE",
"368 852 OFFCURVE",
"368 827 CURVE SMOOTH",
"368 793 OFFCURVE",
"345 786 OFFCURVE",
"280 786 CURVE",
"280 763 LINE",
"291 714 LINE"
);
}
);
width = 602;
}
);
leftKerningGroup = O;
note = Ohookabove;
rightKerningGroup = O;
unicode = 1ECE;
},
{
glyphname = Ohorn;
lastChange = "2015-07-20 12:43:08 +0000";
layers = (
{
layerId = "0B91E381-1358-4F31-B824-AB2EAC4429E5";
name = Light;
paths = (
{
closed = 1;
nodes = (
"483 -9 OFFCURVE",
"541 118 OFFCURVE",
"541 315 CURVE SMOOTH",
"541 387 OFFCURVE",
"533 442 OFFCURVE",
"515 488 CURVE",
"581 539 OFFCURVE",
"607 615 OFFCURVE",
"610 716 CURVE",
"564 716 LINE",
"562 638 OFFCURVE",
"544 580 OFFCURVE",
"515 527 CURVE",
"497 527 LINE",
"461 590 OFFCURVE",
"401 622 OFFCURVE",
"312 622 CURVE SMOOTH",
"120 622 OFFCURVE",
"61 495 OFFCURVE",
"61 298 CURVE SMOOTH",
"61 97 OFFCURVE",
"131 -9 OFFCURVE",
"290 -9 CURVE SMOOTH"
);
},
{
closed = 1;
nodes = (
"155 35 OFFCURVE",
"108 126 OFFCURVE",
"108 308 CURVE SMOOTH",
"108 409 OFFCURVE",
"129 491 OFFCURVE",
"167 550 CURVE",
"199 568 OFFCURVE",
"251 578 OFFCURVE",
"297 578 CURVE SMOOTH",
"448 578 OFFCURVE",
"494 487 OFFCURVE",
"494 304 CURVE SMOOTH",
"494 204 OFFCURVE",
"472 121 OFFCURVE",
"434 63 CURVE",
"402 45 OFFCURVE",
"351 35 OFFCURVE",
"305 35 CURVE SMOOTH"
);
}
);
width = 633;
}
);
leftKerningGroup = O;
note = Ohorn;
unicode = 01A0;
},
{
glyphname = Ohornacute;
lastChange = "2015-07-20 12:43:01 +0000";
layers = (
{
layerId = "0B91E381-1358-4F31-B824-AB2EAC4429E5";
name = Light;
paths = (
{
closed = 1;
nodes = (
"483 -9 OFFCURVE",
"541 118 OFFCURVE",
"541 315 CURVE SMOOTH",
"541 387 OFFCURVE",
"533 442 OFFCURVE",
"515 488 CURVE",
"581 539 OFFCURVE",
"607 615 OFFCURVE",
"610 716 CURVE",
"564 716 LINE",
"562 638 OFFCURVE",
"544 580 OFFCURVE",
"515 527 CURVE",
"497 527 LINE",
"461 590 OFFCURVE",
"401 622 OFFCURVE",
"312 622 CURVE SMOOTH",
"120 622 OFFCURVE",
"61 495 OFFCURVE",
"61 298 CURVE SMOOTH",
"61 97 OFFCURVE",
"131 -9 OFFCURVE",
"290 -9 CURVE SMOOTH"
);
},
{
closed = 1;
nodes = (
"155 35 OFFCURVE",
"108 126 OFFCURVE",
"108 308 CURVE SMOOTH",
"108 409 OFFCURVE",
"129 491 OFFCURVE",
"167 550 CURVE",
"199 568 OFFCURVE",
"251 578 OFFCURVE",
"297 578 CURVE SMOOTH",
"448 578 OFFCURVE",
"494 487 OFFCURVE",
"494 304 CURVE SMOOTH",
"494 204 OFFCURVE",
"472 121 OFFCURVE",
"434 63 CURVE",
"402 45 OFFCURVE",
"351 35 OFFCURVE",
"305 35 CURVE SMOOTH"
);
},
{
closed = 1;
nodes = (
"425 844 LINE",
"363 851 LINE",
"279 710 LINE",
"311 704 LINE"
);
}
);
width = 633;
}
);
leftKerningGroup = O;
note = Ohornacute;
unicode = 1EDA;
},
{
glyphname = Ohorndotbelow;
lastChange = "2015-07-20 12:42:56 +0000";
layers = (
{
layerId = "0B91E381-1358-4F31-B824-AB2EAC4429E5";
name = Light;
paths = (
{
closed = 1;
nodes = (
"483 -9 OFFCURVE",
"541 118 OFFCURVE",
"541 315 CURVE SMOOTH",
"541 387 OFFCURVE",
"533 442 OFFCURVE",
"515 488 CURVE",
"581 539 OFFCURVE",
"607 615 OFFCURVE",
"610 716 CURVE",
"564 716 LINE",
"562 638 OFFCURVE",
"544 580 OFFCURVE",
"515 527 CURVE",
"497 527 LINE",
"461 590 OFFCURVE",
"401 622 OFFCURVE",
"312 622 CURVE SMOOTH",
"120 622 OFFCURVE",
"61 495 OFFCURVE",
"61 298 CURVE SMOOTH",
"61 97 OFFCURVE",
"131 -9 OFFCURVE",
"290 -9 CURVE SMOOTH"
);
},
{
closed = 1;
nodes = (
"334 -156 OFFCURVE",
"349 -142 OFFCURVE",
"349 -116 CURVE SMOOTH",
"349 -89 OFFCURVE",
"334 -74 OFFCURVE",
"307 -74 CURVE SMOOTH",
"279 -74 OFFCURVE",
"263 -89 OFFCURVE",
"263 -116 CURVE SMOOTH",
"263 -142 OFFCURVE",
"279 -156 OFFCURVE",
"307 -156 CURVE SMOOTH"
);
},
{
closed = 1;
nodes = (
"155 35 OFFCURVE",
"108 126 OFFCURVE",
"108 308 CURVE SMOOTH",
"108 409 OFFCURVE",
"129 491 OFFCURVE",
"167 550 CURVE",
"199 568 OFFCURVE",
"251 578 OFFCURVE",
"297 578 CURVE SMOOTH",
"448 578 OFFCURVE",
"494 487 OFFCURVE",
"494 304 CURVE SMOOTH",
"494 204 OFFCURVE",
"472 121 OFFCURVE",
"434 63 CURVE",
"402 45 OFFCURVE",
"351 35 OFFCURVE",
"305 35 CURVE SMOOTH"
);
}
);
width = 633;
}
);
leftKerningGroup = O;
note = Ohorndotbelow;
unicode = 1EE2;
},
{
glyphname = Ohorngrave;
lastChange = "2015-07-20 12:42:51 +0000";
layers = (
{
layerId = "0B91E381-1358-4F31-B824-AB2EAC4429E5";
name = Light;
paths = (
{
closed = 1;
nodes = (
"483 -9 OFFCURVE",
"541 118 OFFCURVE",
"541 315 CURVE SMOOTH",
"541 387 OFFCURVE",
"533 442 OFFCURVE",
"515 488 CURVE",
"581 539 OFFCURVE",
"607 615 OFFCURVE",
"610 716 CURVE",
"564 716 LINE",
"562 638 OFFCURVE",
"544 580 OFFCURVE",
"515 527 CURVE",
"497 527 LINE",
"461 590 OFFCURVE",
"401 622 OFFCURVE",
"312 622 CURVE SMOOTH",
"120 622 OFFCURVE",
"61 495 OFFCURVE",
"61 298 CURVE SMOOTH",
"61 97 OFFCURVE",
"131 -9 OFFCURVE",
"290 -9 CURVE SMOOTH"
);
},
{
closed = 1;
nodes = (
"155 35 OFFCURVE",
"108 126 OFFCURVE",
"108 308 CURVE SMOOTH",
"108 409 OFFCURVE",
"129 491 OFFCURVE",
"167 550 CURVE",
"199 568 OFFCURVE",
"251 578 OFFCURVE",
"297 578 CURVE SMOOTH",
"448 578 OFFCURVE",
"494 487 OFFCURVE",
"494 304 CURVE SMOOTH",
"494 204 OFFCURVE",
"472 121 OFFCURVE",
"434 63 CURVE",
"402 45 OFFCURVE",
"351 35 OFFCURVE",
"305 35 CURVE SMOOTH"
);
},
{
closed = 1;
nodes = (
"343 710 LINE",
"259 851 LINE",
"197 844 LINE",
"311 704 LINE"
);
}
);
width = 633;
}
);
leftKerningGroup = O;
note = Ohorngrave;
unicode = 1EDC;
},
{
glyphname = Ohornhookabove;
lastChange = "2015-07-20 12:42:45 +0000";
layers = (
{
layerId = "0B91E381-1358-4F31-B824-AB2EAC4429E5";
name = Light;
paths = (
{
closed = 1;
nodes = (
"483 -9 OFFCURVE",
"541 118 OFFCURVE",
"541 315 CURVE SMOOTH",
"541 387 OFFCURVE",
"533 442 OFFCURVE",
"515 488 CURVE",
"581 539 OFFCURVE",
"607 615 OFFCURVE",
"610 716 CURVE",
"564 716 LINE",
"562 638 OFFCURVE",
"544 580 OFFCURVE",
"515 527 CURVE",
"497 527 LINE",
"461 590 OFFCURVE",
"401 622 OFFCURVE",
"312 622 CURVE SMOOTH",
"120 622 OFFCURVE",
"61 495 OFFCURVE",
"61 298 CURVE SMOOTH",
"61 97 OFFCURVE",
"131 -9 OFFCURVE",
"290 -9 CURVE SMOOTH"
);
},
{
closed = 1;
nodes = (
"155 35 OFFCURVE",
"108 126 OFFCURVE",
"108 308 CURVE SMOOTH",
"108 409 OFFCURVE",
"129 491 OFFCURVE",
"167 550 CURVE",
"199 568 OFFCURVE",
"251 578 OFFCURVE",
"297 578 CURVE SMOOTH",
"448 578 OFFCURVE",
"494 487 OFFCURVE",
"494 304 CURVE SMOOTH",
"494 204 OFFCURVE",
"472 121 OFFCURVE",
"434 63 CURVE",
"402 45 OFFCURVE",
"351 35 OFFCURVE",
"305 35 CURVE SMOOTH"
);
},
{
closed = 1;
nodes = (
"318 710 LINE",
"318 749 LINE",
"370 752 OFFCURVE",
"407 770 OFFCURVE",
"407 823 CURVE SMOOTH",
"407 865 OFFCURVE",
"384 897 OFFCURVE",
"328 897 CURVE SMOOTH",
"302 897 OFFCURVE",
"283 893 OFFCURVE",
"259 884 CURVE",
"269 853 LINE",
"287 859 OFFCURVE",
"304 861 OFFCURVE",
"320 861 CURVE SMOOTH",
"355 861 OFFCURVE",
"368 848 OFFCURVE",
"368 823 CURVE SMOOTH",
"368 789 OFFCURVE",
"345 782 OFFCURVE",
"280 782 CURVE",
"280 759 LINE",
"291 710 LINE"
);
}
);
width = 633;
}
);
leftKerningGroup = O;
note = Ohornhookabove;
unicode = 1EDE;
},
{
glyphname = Ohorntilde;
lastChange = "2015-07-20 12:42:43 +0000";
layers = (
{
layerId = "0B91E381-1358-4F31-B824-AB2EAC4429E5";
name = Light;
paths = (
{
closed = 1;
nodes = (
"483 -9 OFFCURVE",
"541 118 OFFCURVE",
"541 315 CURVE SMOOTH",
"541 387 OFFCURVE",
"533 442 OFFCURVE",
"515 488 CURVE",
"581 539 OFFCURVE",
"607 615 OFFCURVE",
"610 716 CURVE",
"564 716 LINE",
"562 638 OFFCURVE",
"544 580 OFFCURVE",
"515 527 CURVE",
"497 527 LINE",
"461 590 OFFCURVE",
"401 622 OFFCURVE",
"312 622 CURVE SMOOTH",
"120 622 OFFCURVE",
"61 495 OFFCURVE",
"61 298 CURVE SMOOTH",
"61 97 OFFCURVE",
"131 -9 OFFCURVE",
"290 -9 CURVE SMOOTH"
);
},
{
closed = 1;
nodes = (
"155 35 OFFCURVE",
"108 126 OFFCURVE",
"108 308 CURVE SMOOTH",
"108 409 OFFCURVE",
"129 491 OFFCURVE",
"167 550 CURVE",
"199 568 OFFCURVE",
"251 578 OFFCURVE",
"297 578 CURVE SMOOTH",
"448 578 OFFCURVE",
"494 487 OFFCURVE",
"494 304 CURVE SMOOTH",
"494 204 OFFCURVE",
"472 121 OFFCURVE",
"434 63 CURVE",
"402 45 OFFCURVE",
"351 35 OFFCURVE",
"305 35 CURVE SMOOTH"
);
},
{
closed = 1;
nodes = (
"212 736 OFFCURVE",
"225 757 OFFCURVE",
"254 757 CURVE SMOOTH",
"291 757 OFFCURVE",
"320 704 OFFCURVE",
"369 704 CURVE SMOOTH",
"414 704 OFFCURVE",
"439 736 OFFCURVE",
"442 788 CURVE",
"411 797 LINE",
"407 765 OFFCURVE",
"394 744 OFFCURVE",
"365 744 CURVE SMOOTH",
"327 744 OFFCURVE",
"297 797 OFFCURVE",
"250 797 CURVE SMOOTH",
"205 797 OFFCURVE",
"180 765 OFFCURVE",
"177 712 CURVE",
"208 703 LINE"
);
}
);
width = 633;
}
);
leftKerningGroup = O;
note = Ohorntilde;
unicode = 1EE0;
},
{
glyphname = Ohungarumlaut;
lastChange = "2015-07-20 11:40:59 +0000";
layers = (
{
layerId = "0B91E381-1358-4F31-B824-AB2EAC4429E5";
name = Light;
paths = (
{
closed = 1;
nodes = (
"483 -9 OFFCURVE",
"541 117 OFFCURVE",
"541 315 CURVE SMOOTH",
"541 515 OFFCURVE",
"474 622 OFFCURVE",
"312 622 CURVE SMOOTH",
"120 622 OFFCURVE",
"61 494 OFFCURVE",
"61 297 CURVE SMOOTH",
"61 97 OFFCURVE",
"131 -9 OFFCURVE",
"290 -9 CURVE SMOOTH"
);
},
{
closed = 1;
nodes = (
"155 35 OFFCURVE",
"108 125 OFFCURVE",
"108 308 CURVE SMOOTH",
"108 409 OFFCURVE",
"129 490 OFFCURVE",
"167 549 CURVE",
"199 567 OFFCURVE",
"251 577 OFFCURVE",
"297 577 CURVE SMOOTH",
"448 577 OFFCURVE",
"494 487 OFFCURVE",
"494 304 CURVE SMOOTH",
"494 203 OFFCURVE",
"472 121 OFFCURVE",
"434 63 CURVE",
"402 45 OFFCURVE",
"351 35 OFFCURVE",
"305 35 CURVE SMOOTH"
);
},
{
closed = 1;
nodes = (
"256 744 OFFCURVE",
"272 787 OFFCURVE",
"272 832 CURVE SMOOTH",
"272 873 OFFCURVE",
"253 894 OFFCURVE",
"215 894 CURVE SMOOTH",
"201 894 OFFCURVE",
"189 891 OFFCURVE",
"178 888 CURVE",
"178 855 LINE",
"233 855 LINE",
"233 795 OFFCURVE",
"220 755 OFFCURVE",
"197 714 CURVE",
"226 707 LINE"
);
},
{
closed = 1;
nodes = (
"421 744 OFFCURVE",
"437 787 OFFCURVE",
"437 832 CURVE SMOOTH",
"437 873 OFFCURVE",
"419 894 OFFCURVE",
"381 894 CURVE SMOOTH",
"367 894 OFFCURVE",
"354 891 OFFCURVE",
"343 888 CURVE",
"343 855 LINE",
"398 855 LINE",
"398 795 OFFCURVE",
"385 755 OFFCURVE",
"362 714 CURVE",
"391 707 LINE"
);
}
);
width = 602;
}
);
leftKerningGroup = O;
note = Ohungarumlaut;
rightKerningGroup = O;
unicode = 0150;
},
{
glyphname = Omacron;
lastChange = "2015-07-20 11:40:59 +0000";
layers = (
{
layerId = "0B91E381-1358-4F31-B824-AB2EAC4429E5";
name = Light;
paths = (
{
closed = 1;
nodes = (
"483 -9 OFFCURVE",
"541 117 OFFCURVE",
"541 315 CURVE SMOOTH",
"541 515 OFFCURVE",
"474 622 OFFCURVE",
"312 622 CURVE SMOOTH",
"120 622 OFFCURVE",
"61 494 OFFCURVE",
"61 297 CURVE SMOOTH",
"61 97 OFFCURVE",
"131 -9 OFFCURVE",
"290 -9 CURVE SMOOTH"
);
},
{
closed = 1;
nodes = (
"155 35 OFFCURVE",
"108 125 OFFCURVE",
"108 308 CURVE SMOOTH",
"108 409 OFFCURVE",
"129 490 OFFCURVE",
"167 549 CURVE",
"199 567 OFFCURVE",
"251 577 OFFCURVE",
"297 577 CURVE SMOOTH",
"448 577 OFFCURVE",
"494 487 OFFCURVE",
"494 304 CURVE SMOOTH",
"494 203 OFFCURVE",
"472 121 OFFCURVE",
"434 63 CURVE",
"402 45 OFFCURVE",
"351 35 OFFCURVE",
"305 35 CURVE SMOOTH"
);
},
{
closed = 1;
nodes = (
"438 714 LINE",
"438 755 LINE",
"168 755 LINE",
"168 714 LINE"
);
}
);
width = 602;
}
);
leftKerningGroup = O;
note = Omacron;
rightKerningGroup = O;
unicode = 014C;
},
{
glyphname = Oslash;
lastChange = "2015-07-20 12:43:28 +0000";
layers = (
{
layerId = "0B91E381-1358-4F31-B824-AB2EAC4429E5";
name = Light;
paths = (
{
closed = 1;
nodes = (
"187 12 LINE",
"217 -2 OFFCURVE",
"252 -10 OFFCURVE",
"293 -10 CURVE SMOOTH",
"486 -10 OFFCURVE",
"544 117 OFFCURVE",
"544 315 CURVE SMOOTH",
"544 446 OFFCURVE",
"516 537 OFFCURVE",
"450 584 CURVE",
"488 667 LINE",
"448 677 LINE",
"414 603 LINE",
"386 616 OFFCURVE",
"353 622 OFFCURVE",
"315 622 CURVE SMOOTH",
"123 622 OFFCURVE",
"64 494 OFFCURVE",
"64 297 CURVE SMOOTH",
"64 171 OFFCURVE",
"91 82 OFFCURVE",
"152 33 CURVE",
"110 -58 LINE",
"150 -69 LINE"
);
},
{
closed = 1;
nodes = (
"128 123 OFFCURVE",
"111 199 OFFCURVE",
"111 308 CURVE SMOOTH",
"111 409 OFFCURVE",
"132 490 OFFCURVE",
"170 549 CURVE",
"202 567 OFFCURVE",
"254 577 OFFCURVE",
"300 577 CURVE SMOOTH",
"338 577 OFFCURVE",
"369 571 OFFCURVE",
"394 560 CURVE",
"173 79 LINE"
);
},
{
closed = 1;
nodes = (
"267 35 OFFCURVE",
"233 41 OFFCURVE",
"207 55 CURVE",
"429 538 LINE",
"479 496 OFFCURVE",
"498 418 OFFCURVE",
"498 304 CURVE SMOOTH",
"498 203 OFFCURVE",
"475 121 OFFCURVE",
"437 63 CURVE",
"405 45 OFFCURVE",
"355 35 OFFCURVE",
"308 35 CURVE SMOOTH"
);
}
);
width = 608;
}
);
leftKerningGroup = O;
note = Oslash;
rightKerningGroup = O;
unicode = 00D8;
},
{
glyphname = Oslashacute;
lastChange = "2015-07-20 12:43:33 +0000";
layers = (
{
layerId = "0B91E381-1358-4F31-B824-AB2EAC4429E5";
name = Light;
paths = (
{
closed = 1;
nodes = (
"187 12 LINE",
"217 -2 OFFCURVE",
"252 -10 OFFCURVE",
"293 -10 CURVE SMOOTH",
"486 -10 OFFCURVE",
"544 117 OFFCURVE",
"544 315 CURVE SMOOTH",
"544 446 OFFCURVE",
"516 537 OFFCURVE",
"450 584 CURVE",
"488 667 LINE",
"448 677 LINE",
"414 603 LINE",
"386 616 OFFCURVE",
"353 622 OFFCURVE",
"315 622 CURVE SMOOTH",
"123 622 OFFCURVE",
"64 494 OFFCURVE",
"64 297 CURVE SMOOTH",
"64 171 OFFCURVE",
"91 82 OFFCURVE",
"152 33 CURVE",
"110 -58 LINE",
"150 -69 LINE"
);
},
{
closed = 1;
nodes = (
"128 123 OFFCURVE",
"111 199 OFFCURVE",
"111 308 CURVE SMOOTH",
"111 409 OFFCURVE",
"132 490 OFFCURVE",
"170 549 CURVE",
"202 567 OFFCURVE",
"254 577 OFFCURVE",
"300 577 CURVE SMOOTH",
"338 577 OFFCURVE",
"369 571 OFFCURVE",
"394 560 CURVE",
"173 79 LINE"
);
},
{
closed = 1;
nodes = (
"267 35 OFFCURVE",
"233 41 OFFCURVE",
"207 55 CURVE",
"429 538 LINE",
"479 496 OFFCURVE",
"498 418 OFFCURVE",
"498 304 CURVE SMOOTH",
"498 203 OFFCURVE",
"475 121 OFFCURVE",
"437 63 CURVE",
"405 45 OFFCURVE",
"355 35 OFFCURVE",
"308 35 CURVE SMOOTH"
);
},
{
closed = 1;
nodes = (
"422 848 LINE",
"360 855 LINE",
"276 714 LINE",
"308 708 LINE"
);
}
);
width = 608;
}
);
leftKerningGroup = O;
note = Oslashacute;
rightKerningGroup = O;
unicode = 01FE;
},
{
glyphname = Otilde;
lastChange = "2015-07-20 11:40:59 +0000";
layers = (
{
layerId = "0B91E381-1358-4F31-B824-AB2EAC4429E5";
name = Light;
paths = (
{
closed = 1;
nodes = (
"483 -9 OFFCURVE",
"541 117 OFFCURVE",
"541 315 CURVE SMOOTH",
"541 515 OFFCURVE",
"474 622 OFFCURVE",
"312 622 CURVE SMOOTH",
"120 622 OFFCURVE",
"61 494 OFFCURVE",
"61 297 CURVE SMOOTH",
"61 97 OFFCURVE",
"131 -9 OFFCURVE",
"290 -9 CURVE SMOOTH"
);
},
{
closed = 1;
nodes = (
"155 35 OFFCURVE",
"108 125 OFFCURVE",
"108 308 CURVE SMOOTH",
"108 409 OFFCURVE",
"129 490 OFFCURVE",
"167 549 CURVE",
"199 567 OFFCURVE",
"251 577 OFFCURVE",
"297 577 CURVE SMOOTH",
"448 577 OFFCURVE",
"494 487 OFFCURVE",
"494 304 CURVE SMOOTH",
"494 203 OFFCURVE",
"472 121 OFFCURVE",
"434 63 CURVE",
"402 45 OFFCURVE",
"351 35 OFFCURVE",
"305 35 CURVE SMOOTH"
);
},
{
closed = 1;
nodes = (
"205 738 OFFCURVE",
"218 760 OFFCURVE",
"247 760 CURVE SMOOTH",
"284 760 OFFCURVE",
"313 706 OFFCURVE",
"362 706 CURVE SMOOTH",
"407 706 OFFCURVE",
"432 739 OFFCURVE",
"435 791 CURVE",
"404 800 LINE",
"400 768 OFFCURVE",
"387 747 OFFCURVE",
"358 747 CURVE SMOOTH",
"320 747 OFFCURVE",
"290 800 OFFCURVE",
"243 800 CURVE SMOOTH",
"198 800 OFFCURVE",
"173 767 OFFCURVE",
"170 715 CURVE",
"201 706 LINE"
);
}
);
width = 602;
}
);
leftKerningGroup = O;
note = Otilde;
rightKerningGroup = O;
unicode = 00D5;
},
{
glyphname = OE;
lastChange = "2015-07-20 11:41:05 +0000";
layers = (
{
layerId = "0B91E381-1358-4F31-B824-AB2EAC4429E5";
name = Light;
paths = (
{
closed = 1;
nodes = (
"365 -10 OFFCURVE",
"421 3 OFFCURVE",
"461 27 CURVE",
"467 27 LINE",
"496 1 OFFCURVE",
"561 -10 OFFCURVE",
"645 -10 CURVE SMOOTH",
"714 -10 OFFCURVE",
"763 -5 OFFCURVE",
"812 7 CURVE",
"801 49 LINE",
"754 39 OFFCURVE",
"705 34 OFFCURVE",
"649 34 CURVE SMOOTH",
"588 34 OFFCURVE",
"544 39 OFFCURVE",
"492 51 CURVE",
"492 286 LINE",
"771 286 LINE",
"771 330 LINE",
"492 330 LINE",
"492 568 LINE",
"800 568 LINE",
"800 612 LINE",
"446 612 LINE",
"410 619 OFFCURVE",
"372 622 OFFCURVE",
"322 622 CURVE SMOOTH",
"130 622 OFFCURVE",
"65 498 OFFCURVE",
"65 297 CURVE SMOOTH",
"65 97 OFFCURVE",
"138 -10 OFFCURVE",
"297 -10 CURVE SMOOTH"
);
},
{
closed = 1;
nodes = (
"162 35 OFFCURVE",
"112 125 OFFCURVE",
"112 308 CURVE SMOOTH",
"112 409 OFFCURVE",
"133 490 OFFCURVE",
"171 549 CURVE",
"203 567 OFFCURVE",
"261 577 OFFCURVE",
"312 577 CURVE SMOOTH",
"374 577 OFFCURVE",
"405 575 OFFCURVE",
"445 567 CURVE",
"445 63 LINE",
"411 45 OFFCURVE",
"358 35 OFFCURVE",
"312 35 CURVE SMOOTH"
);
}
);
width = 883;
}
);
leftKerningGroup = O;
note = OE;
rightKerningGroup = E;
unicode = 0152;
},
{
glyphname = P;
lastChange = "2015-07-20 10:39:04 +0000";
layers = (
{
layerId = "0B91E381-1358-4F31-B824-AB2EAC4429E5";
name = Light;
paths = (
{
closed = 1;
nodes = (
"133 0 LINE",
"133 212 LINE",
"251 212 LINE SMOOTH",
"413 212 OFFCURVE",
"469 284 OFFCURVE",
"469 419 CURVE SMOOTH",
"469 555 OFFCURVE",
"395 622 OFFCURVE",
"245 622 CURVE SMOOTH",
"189 622 OFFCURVE",
"137 611 OFFCURVE",
"86 598 CURVE",
"86 0 LINE"
);
},
{
closed = 1;
nodes = (
"133 565 LINE",
"169 575 OFFCURVE",
"212 578 OFFCURVE",
"244 578 CURVE SMOOTH",
"360 578 OFFCURVE",
"421 532 OFFCURVE",
"421 416 CURVE SMOOTH",
"421 356 OFFCURVE",
"409 307 OFFCURVE",
"383 272 CURVE",
"341 260 OFFCURVE",
"307 256 OFFCURVE",
"244 256 CURVE SMOOTH",
"133 256 LINE"
);
}
);
width = 509;
}
);
note = P;
unicode = 0050;
},
{
glyphname = Thorn;
lastChange = "2015-07-20 10:39:05 +0000";
layers = (
{
layerId = "0B91E381-1358-4F31-B824-AB2EAC4429E5";
name = Light;
paths = (
{
closed = 1;
nodes = (
"133 0 LINE",
"133 155 LINE",
"249 155 LINE SMOOTH",
"364 155 OFFCURVE",
"424 214 OFFCURVE",
"424 323 CURVE SMOOTH",
"424 430 OFFCURVE",
"364 488 OFFCURVE",
"249 488 CURVE SMOOTH",
"133 488 LINE",
"133 616 LINE",
"86 616 LINE",
"86 0 LINE"
);
},
{
closed = 1;
nodes = (
"133 444 LINE",
"245 444 LINE SMOOTH",
"342 444 OFFCURVE",
"377 406 OFFCURVE",
"377 323 CURVE SMOOTH",
"377 241 OFFCURVE",
"344 198 OFFCURVE",
"245 198 CURVE SMOOTH",
"133 198 LINE"
);
}
);
width = 475;
}
);
note = Thorn;
unicode = 00DE;
},
{
glyphname = Q;
lastChange = "2015-07-20 11:57:32 +0000";
layers = (
{
layerId = "0B91E381-1358-4F31-B824-AB2EAC4429E5";
name = Light;
paths = (
{
closed = 1;
nodes = (
"420 -137 OFFCURVE",
"457 -134 OFFCURVE",
"501 -124 CURVE",
"492 -86 LINE",
"447 -95 OFFCURVE",
"410 -97 OFFCURVE",
"366 -97 CURVE SMOOTH",
"336 -97 OFFCURVE",
"303 -93 OFFCURVE",
"276 -88 CURVE",
"276 -6 LINE",
"282 -7 OFFCURVE",
"287 -7 OFFCURVE",
"294 -7 CURVE SMOOTH",
"484 -6 OFFCURVE",
"544 120 OFFCURVE",
"544 316 CURVE SMOOTH",
"544 516 OFFCURVE",
"475 622 OFFCURVE",
"313 622 CURVE SMOOTH",
"121 622 OFFCURVE",
"61 496 OFFCURVE",
"61 299 CURVE SMOOTH",
"61 118 OFFCURVE",
"117 15 OFFCURVE",
"245 -3 CURVE",
"229 -80 LINE",
"229 -117 LINE",
"262 -128 OFFCURVE",
"321 -137 OFFCURVE",
"367 -137 CURVE SMOOTH"
);
},
{
closed = 1;
nodes = (
"156 37 OFFCURVE",
"108 119 OFFCURVE",
"108 309 CURVE SMOOTH",
"108 408 OFFCURVE",
"129 490 OFFCURVE",
"167 549 CURVE",
"199 567 OFFCURVE",
"252 577 OFFCURVE",
"299 577 CURVE SMOOTH",
"449 577 OFFCURVE",
"497 495 OFFCURVE",
"497 306 CURVE SMOOTH",
"497 206 OFFCURVE",
"474 124 OFFCURVE",
"436 65 CURVE",
"404 48 OFFCURVE",
"352 37 OFFCURVE",
"306 37 CURVE SMOOTH"
);
}
);
width = 606;
}
);
note = Q;
unicode = 0051;
},
{
glyphname = R;
lastChange = "2015-07-20 11:41:12 +0000";
layers = (
{
layerId = "0B91E381-1358-4F31-B824-AB2EAC4429E5";
name = Light;
paths = (
{
closed = 1;
nodes = (
"513 -6 OFFCURVE",
"525 -4 OFFCURVE",
"539 1 CURVE",
"539 28 LINE",
"489 36 LINE",
"418 196 LINE SMOOTH",
"399 234 OFFCURVE",
"386 254 OFFCURVE",
"352 270 CURVE",
"352 277 LINE",
"415 313 OFFCURVE",
"451 365 OFFCURVE",
"451 443 CURVE SMOOTH",
"451 560 OFFCURVE",
"388 622 OFFCURVE",
"243 622 CURVE SMOOTH",
"198 622 OFFCURVE",
"139 614 OFFCURVE",
"86 601 CURVE",
"86 0 LINE",
"132 0 LINE",
"132 259 LINE",
"253 259 LINE SMOOTH",
"338 259 OFFCURVE",
"356 219 OFFCURVE",
"377 171 CURVE SMOOTH",
"440 29 LINE SMOOTH",
"451 5 OFFCURVE",
"466 -6 OFFCURVE",
"495 -6 CURVE SMOOTH"
);
},
{
closed = 1;
nodes = (
"132 567 LINE",
"165 574 OFFCURVE",
"204 578 OFFCURVE",
"238 578 CURVE SMOOTH",
"353 578 OFFCURVE",
"404 538 OFFCURVE",
"404 441 CURVE SMOOTH",
"404 372 OFFCURVE",
"376 336 OFFCURVE",
"326 303 CURVE",
"132 303 LINE"
);
}
);
width = 567;
}
);
leftKerningGroup = R;
note = R;
rightKerningGroup = R;
unicode = 0052;
},
{
glyphname = Racute;
lastChange = "2015-07-20 11:41:12 +0000";
layers = (
{
layerId = "0B91E381-1358-4F31-B824-AB2EAC4429E5";
name = Light;
paths = (
{
closed = 1;
nodes = (
"513 -6 OFFCURVE",
"525 -4 OFFCURVE",
"539 1 CURVE",
"539 28 LINE",
"489 36 LINE",
"418 196 LINE SMOOTH",
"399 234 OFFCURVE",
"386 254 OFFCURVE",
"352 270 CURVE",
"352 277 LINE",
"415 313 OFFCURVE",
"451 365 OFFCURVE",
"451 443 CURVE SMOOTH",
"451 560 OFFCURVE",
"388 622 OFFCURVE",
"243 622 CURVE SMOOTH",
"198 622 OFFCURVE",
"139 614 OFFCURVE",
"86 601 CURVE",
"86 0 LINE",
"132 0 LINE",
"132 259 LINE",
"253 259 LINE SMOOTH",
"338 259 OFFCURVE",
"356 219 OFFCURVE",
"377 171 CURVE SMOOTH",
"440 29 LINE SMOOTH",
"451 5 OFFCURVE",
"466 -6 OFFCURVE",
"495 -6 CURVE SMOOTH"
);
},
{
closed = 1;
nodes = (
"132 567 LINE",
"165 574 OFFCURVE",
"204 578 OFFCURVE",
"238 578 CURVE SMOOTH",
"353 578 OFFCURVE",
"404 538 OFFCURVE",
"404 441 CURVE SMOOTH",
"404 372 OFFCURVE",
"376 336 OFFCURVE",
"326 303 CURVE",
"132 303 LINE"
);
},
{
closed = 1;
nodes = (
"378 847 LINE",
"316 854 LINE",
"232 713 LINE",
"264 708 LINE"
);
}
);
width = 567;
}
);
leftKerningGroup = R;
note = Racute;
rightKerningGroup = R;
unicode = 0154;
},
{
glyphname = Rcaron;
lastChange = "2015-07-20 11:41:12 +0000";
layers = (
{
layerId = "0B91E381-1358-4F31-B824-AB2EAC4429E5";
name = Light;
paths = (
{
closed = 1;
nodes = (
"513 -6 OFFCURVE",
"525 -4 OFFCURVE",
"539 1 CURVE",
"539 28 LINE",
"489 36 LINE",
"418 196 LINE SMOOTH",
"399 234 OFFCURVE",
"386 254 OFFCURVE",
"352 270 CURVE",
"352 277 LINE",
"415 313 OFFCURVE",
"451 365 OFFCURVE",
"451 443 CURVE SMOOTH",
"451 560 OFFCURVE",
"388 622 OFFCURVE",
"243 622 CURVE SMOOTH",
"198 622 OFFCURVE",
"139 614 OFFCURVE",
"86 601 CURVE",
"86 0 LINE",
"132 0 LINE",
"132 259 LINE",
"253 259 LINE SMOOTH",
"338 259 OFFCURVE",
"356 219 OFFCURVE",
"377 171 CURVE SMOOTH",
"440 29 LINE SMOOTH",
"451 5 OFFCURVE",
"466 -6 OFFCURVE",
"495 -6 CURVE SMOOTH"
);
},
{
closed = 1;
nodes = (
"132 567 LINE",
"165 574 OFFCURVE",
"204 578 OFFCURVE",
"238 578 CURVE SMOOTH",
"353 578 OFFCURVE",
"404 538 OFFCURVE",
"404 441 CURVE SMOOTH",
"404 372 OFFCURVE",
"376 336 OFFCURVE",
"326 303 CURVE",
"132 303 LINE"
);
},
{
closed = 1;
nodes = (
"282 714 LINE",
"383 845 LINE",
"353 852 LINE",
"260 754 LINE",
"255 754 LINE",
"161 852 LINE",
"131 845 LINE",
"233 714 LINE"
);
}
);
width = 567;
}
);
leftKerningGroup = R;
note = Rcaron;
rightKerningGroup = R;
unicode = 0158;
},
{
glyphname = Rcommaaccent;
lastChange = "2015-07-20 11:41:12 +0000";
layers = (
{
layerId = "0B91E381-1358-4F31-B824-AB2EAC4429E5";
name = Light;
paths = (
{
closed = 1;
nodes = (
"513 -6 OFFCURVE",
"525 -4 OFFCURVE",
"539 1 CURVE",
"539 28 LINE",
"489 36 LINE",
"418 196 LINE SMOOTH",
"399 234 OFFCURVE",
"386 254 OFFCURVE",
"352 270 CURVE",
"352 277 LINE",
"415 313 OFFCURVE",
"451 365 OFFCURVE",
"451 443 CURVE SMOOTH",
"451 560 OFFCURVE",
"388 622 OFFCURVE",
"243 622 CURVE SMOOTH",
"198 622 OFFCURVE",
"139 614 OFFCURVE",
"86 601 CURVE",
"86 0 LINE",
"132 0 LINE",
"132 259 LINE",
"255 259 LINE SMOOTH",
"338 258 OFFCURVE",
"356 218 OFFCURVE",
"377 171 CURVE SMOOTH",
"440 29 LINE SMOOTH",
"451 5 OFFCURVE",
"466 -6 OFFCURVE",
"495 -6 CURVE SMOOTH"
);
},
{
closed = 1;
nodes = (
"322 -198 OFFCURVE",
"338 -156 OFFCURVE",
"338 -110 CURVE SMOOTH",
"338 -70 OFFCURVE",
"320 -48 OFFCURVE",
"282 -48 CURVE SMOOTH",
"268 -48 OFFCURVE",
"255 -51 OFFCURVE",
"244 -55 CURVE",
"244 -88 LINE",
"299 -88 LINE",
"299 -148 OFFCURVE",
"286 -187 OFFCURVE",
"263 -228 CURVE",
"293 -235 LINE"
);
},
{
closed = 1;
nodes = (
"132 567 LINE",
"165 574 OFFCURVE",
"204 578 OFFCURVE",
"238 578 CURVE SMOOTH",
"353 578 OFFCURVE",
"404 538 OFFCURVE",
"404 441 CURVE SMOOTH",
"404 372 OFFCURVE",
"376 336 OFFCURVE",
"326 303 CURVE",
"132 303 LINE"
);
}
);
width = 567;
}
);
leftKerningGroup = R;
note = Rcommaaccent;
rightKerningGroup = R;
unicode = 0156;
},
{
glyphname = Rdotbelow;
lastChange = "2015-07-20 11:41:12 +0000";
layers = (
{
layerId = "0B91E381-1358-4F31-B824-AB2EAC4429E5";
name = Light;
paths = (
{
closed = 1;
nodes = (
"513 -6 OFFCURVE",
"525 -4 OFFCURVE",
"539 1 CURVE",
"539 28 LINE",
"489 36 LINE",
"418 196 LINE SMOOTH",
"399 234 OFFCURVE",
"386 254 OFFCURVE",
"352 270 CURVE",
"352 277 LINE",
"415 313 OFFCURVE",
"451 365 OFFCURVE",
"451 443 CURVE SMOOTH",
"451 560 OFFCURVE",
"388 622 OFFCURVE",
"243 622 CURVE SMOOTH",
"198 622 OFFCURVE",
"139 614 OFFCURVE",
"86 601 CURVE",
"86 0 LINE",
"132 0 LINE",
"132 259 LINE",
"253 259 LINE SMOOTH",
"338 259 OFFCURVE",
"356 219 OFFCURVE",
"377 171 CURVE SMOOTH",
"440 29 LINE SMOOTH",
"451 5 OFFCURVE",
"466 -6 OFFCURVE",
"495 -6 CURVE SMOOTH"
);
},
{
closed = 1;
nodes = (
"317 -144 OFFCURVE",
"332 -129 OFFCURVE",
"332 -103 CURVE SMOOTH",
"332 -76 OFFCURVE",
"317 -61 OFFCURVE",
"290 -61 CURVE SMOOTH",
"262 -61 OFFCURVE",
"246 -76 OFFCURVE",
"246 -103 CURVE SMOOTH",
"246 -129 OFFCURVE",
"262 -144 OFFCURVE",
"290 -144 CURVE SMOOTH"
);
},
{
closed = 1;
nodes = (
"132 567 LINE",
"165 574 OFFCURVE",
"204 578 OFFCURVE",
"238 578 CURVE SMOOTH",
"353 578 OFFCURVE",
"404 538 OFFCURVE",
"404 441 CURVE SMOOTH",
"404 372 OFFCURVE",
"376 336 OFFCURVE",
"326 303 CURVE",
"132 303 LINE"
);
}
);
width = 567;
}
);
leftKerningGroup = R;
note = Rdotbelow;
rightKerningGroup = R;
unicode = 1E5A;
},
{
glyphname = Rdotbelowmacron;
lastChange = "2015-07-20 11:41:12 +0000";
layers = (
{
layerId = "0B91E381-1358-4F31-B824-AB2EAC4429E5";
name = Light;
paths = (
{
closed = 1;
nodes = (
"513 -6 OFFCURVE",
"525 -4 OFFCURVE",
"539 1 CURVE",
"539 28 LINE",
"489 36 LINE",
"418 196 LINE SMOOTH",
"399 234 OFFCURVE",
"386 254 OFFCURVE",
"352 270 CURVE",
"352 277 LINE",
"415 313 OFFCURVE",
"451 365 OFFCURVE",
"451 443 CURVE SMOOTH",
"451 560 OFFCURVE",
"388 622 OFFCURVE",
"243 622 CURVE SMOOTH",
"198 622 OFFCURVE",
"139 614 OFFCURVE",
"86 601 CURVE",
"86 0 LINE",
"132 0 LINE",
"132 259 LINE",
"253 259 LINE SMOOTH",
"338 259 OFFCURVE",
"356 219 OFFCURVE",
"377 171 CURVE SMOOTH",
"440 29 LINE SMOOTH",
"451 5 OFFCURVE",
"466 -6 OFFCURVE",
"495 -6 CURVE SMOOTH"
);
},
{
closed = 1;
nodes = (
"314 -144 OFFCURVE",
"329 -129 OFFCURVE",
"329 -104 CURVE SMOOTH",
"329 -76 OFFCURVE",
"314 -61 OFFCURVE",
"287 -61 CURVE SMOOTH",
"259 -61 OFFCURVE",
"243 -76 OFFCURVE",
"243 -104 CURVE SMOOTH",
"243 -129 OFFCURVE",
"259 -144 OFFCURVE",
"287 -144 CURVE SMOOTH"
);
},
{
closed = 1;
nodes = (
"132 567 LINE",
"165 574 OFFCURVE",
"204 578 OFFCURVE",
"238 578 CURVE SMOOTH",
"353 578 OFFCURVE",
"404 538 OFFCURVE",
"404 441 CURVE SMOOTH",
"404 372 OFFCURVE",
"376 336 OFFCURVE",
"326 303 CURVE",
"132 303 LINE"
);
},
{
closed = 1;
nodes = (
"368 714 LINE",
"368 755 LINE",
"98 755 LINE",
"98 714 LINE"
);
}
);
width = 567;
}
);
leftKerningGroup = R;
note = Rdotbelowmacron;
rightKerningGroup = R;
unicode = 1E5C;
},
{
glyphname = Rlinebelow;
lastChange = "2015-07-20 12:44:24 +0000";
layers = (
{
layerId = "0B91E381-1358-4F31-B824-AB2EAC4429E5";
name = Light;
paths = (
{
closed = 1;
nodes = (
"514 -6 OFFCURVE",
"526 -4 OFFCURVE",
"540 1 CURVE",
"540 28 LINE",
"490 36 LINE",
"419 196 LINE SMOOTH",
"400 234 OFFCURVE",
"387 254 OFFCURVE",
"353 270 CURVE",
"353 277 LINE",
"416 313 OFFCURVE",
"452 365 OFFCURVE",
"452 443 CURVE SMOOTH",
"452 560 OFFCURVE",
"389 622 OFFCURVE",
"244 622 CURVE SMOOTH",
"199 622 OFFCURVE",
"140 614 OFFCURVE",
"87 601 CURVE",
"87 0 LINE",
"133 0 LINE",
"133 259 LINE",
"254 259 LINE SMOOTH",
"339 259 OFFCURVE",
"357 219 OFFCURVE",
"378 171 CURVE SMOOTH",
"441 29 LINE SMOOTH",
"452 5 OFFCURVE",
"467 -6 OFFCURVE",
"496 -6 CURVE SMOOTH"
);
},
{
closed = 1;
nodes = (
"387 -116 LINE",
"387 -72 LINE",
"86 -72 LINE",
"86 -116 LINE"
);
},
{
closed = 1;
nodes = (
"134 567 LINE",
"167 574 OFFCURVE",
"206 578 OFFCURVE",
"240 578 CURVE SMOOTH",
"355 578 OFFCURVE",
"406 538 OFFCURVE",
"406 441 CURVE SMOOTH",
"406 372 OFFCURVE",
"378 336 OFFCURVE",
"328 303 CURVE",
"134 303 LINE"
);
}
);
width = 568;
}
);
leftKerningGroup = R;
note = Rlinebelow;
rightKerningGroup = R;
unicode = 1E5E;
},
{
glyphname = S;
lastChange = "2015-07-20 11:41:21 +0000";
layers = (
{
layerId = "0B91E381-1358-4F31-B824-AB2EAC4429E5";
name = Light;
paths = (
{
closed = 1;
nodes = (
"406 -9 OFFCURVE",
"443 79 OFFCURVE",
"443 171 CURVE SMOOTH",
"443 259 OFFCURVE",
"393 298 OFFCURVE",
"270 329 CURVE SMOOTH",
"165 355 OFFCURVE",
"116 380 OFFCURVE",
"116 457 CURVE SMOOTH",
"116 538 OFFCURVE",
"155 579 OFFCURVE",
"258 579 CURVE SMOOTH",
"297 579 OFFCURVE",
"336 575 OFFCURVE",
"371 570 CURVE",
"379 480 LINE",
"411 480 LINE",
"418 504 OFFCURVE",
"424 534 OFFCURVE",
"424 561 CURVE SMOOTH",
"424 587 LINE",
"384 608 OFFCURVE",
"339 622 OFFCURVE",
"264 622 CURVE SMOOTH",
"109 622 OFFCURVE",
"69 539 OFFCURVE",
"69 450 CURVE SMOOTH",
"69 343 OFFCURVE",
"156 307 OFFCURVE",
"254 283 CURVE SMOOTH",
"350 259 OFFCURVE",
"395 229 OFFCURVE",
"395 153 CURVE SMOOTH",
"395 117 OFFCURVE",
"388 85 OFFCURVE",
"375 62 CURVE",
"347 47 OFFCURVE",
"308 35 OFFCURVE",
"251 35 CURVE SMOOTH",
"186 35 OFFCURVE",
"131 46 OFFCURVE",
"74 73 CURVE",
"57 32 LINE",
"118 3 OFFCURVE",
"181 -9 OFFCURVE",
"246 -9 CURVE SMOOTH"
);
}
);
width = 511;
}
);
leftKerningGroup = S;
note = S;
rightKerningGroup = S;
unicode = 0053;
},
{
glyphname = Sacute;
lastChange = "2015-07-20 11:41:21 +0000";
layers = (
{
layerId = "0B91E381-1358-4F31-B824-AB2EAC4429E5";
name = Light;
paths = (
{
closed = 1;
nodes = (
"406 -9 OFFCURVE",
"443 79 OFFCURVE",
"443 171 CURVE SMOOTH",
"443 259 OFFCURVE",
"393 298 OFFCURVE",
"270 329 CURVE SMOOTH",
"165 355 OFFCURVE",
"116 380 OFFCURVE",
"116 457 CURVE SMOOTH",
"116 538 OFFCURVE",
"155 579 OFFCURVE",
"258 579 CURVE SMOOTH",
"297 579 OFFCURVE",
"336 575 OFFCURVE",
"371 570 CURVE",
"379 480 LINE",
"411 480 LINE",
"418 504 OFFCURVE",
"424 534 OFFCURVE",
"424 561 CURVE SMOOTH",
"424 587 LINE",
"384 608 OFFCURVE",
"339 622 OFFCURVE",
"264 622 CURVE SMOOTH",
"109 622 OFFCURVE",
"69 539 OFFCURVE",
"69 450 CURVE SMOOTH",
"69 343 OFFCURVE",
"156 307 OFFCURVE",
"254 283 CURVE SMOOTH",
"350 259 OFFCURVE",
"395 229 OFFCURVE",
"395 153 CURVE SMOOTH",
"395 117 OFFCURVE",
"388 85 OFFCURVE",
"375 62 CURVE",
"347 47 OFFCURVE",
"308 35 OFFCURVE",
"251 35 CURVE SMOOTH",
"186 35 OFFCURVE",
"131 46 OFFCURVE",
"74 73 CURVE",
"57 32 LINE",
"118 3 OFFCURVE",
"181 -9 OFFCURVE",
"246 -9 CURVE SMOOTH"
);
},
{
closed = 1;
nodes = (
"373 848 LINE",
"311 855 LINE",
"227 714 LINE",
"259 708 LINE"
);
}
);
width = 511;
}
);
leftKerningGroup = S;
note = Sacute;
rightKerningGroup = S;
unicode = 015A;
},
{
glyphname = Scaron;
lastChange = "2015-07-20 11:41:21 +0000";
layers = (
{
layerId = "0B91E381-1358-4F31-B824-AB2EAC4429E5";
name = Light;
paths = (
{
closed = 1;
nodes = (
"406 -9 OFFCURVE",
"443 79 OFFCURVE",
"443 171 CURVE SMOOTH",
"443 259 OFFCURVE",
"393 298 OFFCURVE",
"270 329 CURVE SMOOTH",
"165 355 OFFCURVE",
"116 380 OFFCURVE",
"116 457 CURVE SMOOTH",
"116 538 OFFCURVE",
"155 579 OFFCURVE",
"258 579 CURVE SMOOTH",
"297 579 OFFCURVE",
"336 575 OFFCURVE",
"371 570 CURVE",
"379 480 LINE",
"411 480 LINE",
"418 504 OFFCURVE",
"424 534 OFFCURVE",
"424 561 CURVE SMOOTH",
"424 587 LINE",
"384 608 OFFCURVE",
"339 622 OFFCURVE",
"264 622 CURVE SMOOTH",
"109 622 OFFCURVE",
"69 539 OFFCURVE",
"69 450 CURVE SMOOTH",
"69 343 OFFCURVE",
"156 307 OFFCURVE",
"254 283 CURVE SMOOTH",
"350 259 OFFCURVE",
"395 229 OFFCURVE",
"395 153 CURVE SMOOTH",
"395 117 OFFCURVE",
"388 85 OFFCURVE",
"375 62 CURVE",
"347 47 OFFCURVE",
"308 35 OFFCURVE",
"251 35 CURVE SMOOTH",
"186 35 OFFCURVE",
"131 46 OFFCURVE",
"74 73 CURVE",
"57 32 LINE",
"118 3 OFFCURVE",
"181 -9 OFFCURVE",
"246 -9 CURVE SMOOTH"
);
},
{
closed = 1;
nodes = (
"281 714 LINE",
"382 845 LINE",
"352 852 LINE",
"259 754 LINE",
"254 754 LINE",
"160 852 LINE",
"130 845 LINE",
"232 714 LINE"
);
}
);
width = 511;
}
);
leftKerningGroup = S;
note = Scaron;
rightKerningGroup = S;
unicode = 0160;
},
{
glyphname = Scedilla;
lastChange = "2015-07-20 11:41:21 +0000";
layers = (
{
layerId = "0B91E381-1358-4F31-B824-AB2EAC4429E5";
name = Light;
paths = (
{
closed = 1;
nodes = (
"319 -216 OFFCURVE",
"354 -190 OFFCURVE",
"354 -132 CURVE SMOOTH",
"354 -86 OFFCURVE",
"333 -59 OFFCURVE",
"282 -59 CURVE SMOOTH",
"263 -59 OFFCURVE",
"246 -62 OFFCURVE",
"233 -68 CURVE",
"277 -8 LINE",
"411 3 OFFCURVE",
"443 85 OFFCURVE",
"443 171 CURVE SMOOTH",
"443 259 OFFCURVE",
"393 298 OFFCURVE",
"270 329 CURVE SMOOTH",
"165 355 OFFCURVE",
"116 380 OFFCURVE",
"116 457 CURVE SMOOTH",
"116 538 OFFCURVE",
"155 579 OFFCURVE",
"258 579 CURVE SMOOTH",
"297 579 OFFCURVE",
"336 575 OFFCURVE",
"371 570 CURVE",
"379 480 LINE",
"411 480 LINE",
"418 504 OFFCURVE",
"424 534 OFFCURVE",
"424 561 CURVE SMOOTH",
"424 587 LINE",
"384 608 OFFCURVE",
"339 622 OFFCURVE",
"264 622 CURVE SMOOTH",
"109 622 OFFCURVE",
"69 539 OFFCURVE",
"69 450 CURVE SMOOTH",
"69 343 OFFCURVE",
"156 307 OFFCURVE",
"254 283 CURVE SMOOTH",
"350 259 OFFCURVE",
"395 229 OFFCURVE",
"395 153 CURVE SMOOTH",
"395 117 OFFCURVE",
"388 85 OFFCURVE",
"375 62 CURVE",
"347 47 OFFCURVE",
"308 35 OFFCURVE",
"251 35 CURVE SMOOTH",
"186 35 OFFCURVE",
"131 46 OFFCURVE",
"74 73 CURVE",
"57 32 LINE",
"116 4 OFFCURVE",
"177 -9 OFFCURVE",
"240 -9 CURVE",
"190 -69 LINE",
"222 -100 LINE",
"236 -95 OFFCURVE",
"249 -94 OFFCURVE",
"267 -94 CURVE SMOOTH",
"301 -94 OFFCURVE",
"314 -108 OFFCURVE",
"314 -136 CURVE SMOOTH",
"314 -150 OFFCURVE",
"311 -164 OFFCURVE",
"308 -173 CURVE",
"293 -178 OFFCURVE",
"279 -180 OFFCURVE",
"256 -180 CURVE SMOOTH",
"231 -180 OFFCURVE",
"206 -176 OFFCURVE",
"185 -168 CURVE",
"173 -200 LINE",
"203 -213 OFFCURVE",
"227 -216 OFFCURVE",
"253 -216 CURVE SMOOTH"
);
}
);
width = 511;
}
);
leftKerningGroup = S;
note = Scedilla;
rightKerningGroup = S;
unicode = 015E;
},
{
glyphname = Scircumflex;
lastChange = "2015-07-20 11:41:21 +0000";
layers = (
{
layerId = "0B91E381-1358-4F31-B824-AB2EAC4429E5";
name = Light;
paths = (
{
closed = 1;
nodes = (
"406 -9 OFFCURVE",
"443 79 OFFCURVE",
"443 171 CURVE SMOOTH",
"443 259 OFFCURVE",
"393 298 OFFCURVE",
"270 329 CURVE SMOOTH",
"165 355 OFFCURVE",
"116 380 OFFCURVE",
"116 457 CURVE SMOOTH",
"116 538 OFFCURVE",
"155 579 OFFCURVE",
"258 579 CURVE SMOOTH",
"297 579 OFFCURVE",
"336 575 OFFCURVE",
"371 570 CURVE",
"379 480 LINE",
"411 480 LINE",
"418 504 OFFCURVE",
"424 534 OFFCURVE",
"424 561 CURVE SMOOTH",
"424 587 LINE",
"384 608 OFFCURVE",
"339 622 OFFCURVE",
"264 622 CURVE SMOOTH",
"109 622 OFFCURVE",
"69 539 OFFCURVE",
"69 450 CURVE SMOOTH",
"69 343 OFFCURVE",
"156 307 OFFCURVE",
"254 283 CURVE SMOOTH",
"350 259 OFFCURVE",
"395 229 OFFCURVE",
"395 153 CURVE SMOOTH",
"395 117 OFFCURVE",
"388 85 OFFCURVE",
"375 62 CURVE",
"347 47 OFFCURVE",
"308 35 OFFCURVE",
"251 35 CURVE SMOOTH",
"186 35 OFFCURVE",
"131 46 OFFCURVE",
"74 73 CURVE",
"57 32 LINE",
"118 3 OFFCURVE",
"181 -9 OFFCURVE",
"246 -9 CURVE SMOOTH"
);
},
{
closed = 1;
nodes = (
"259 805 LINE",
"264 805 LINE",
"357 707 LINE",
"387 714 LINE",
"286 845 LINE",
"237 845 LINE",
"135 714 LINE",
"165 707 LINE"
);
}
);
width = 511;
}
);
leftKerningGroup = S;
note = Scircumflex;
rightKerningGroup = S;
unicode = 015C;
},
{
glyphname = Scommaaccent;
lastChange = "2015-07-20 11:41:21 +0000";
layers = (
{
layerId = "0B91E381-1358-4F31-B824-AB2EAC4429E5";
name = Light;
paths = (
{
closed = 1;
nodes = (
"406 -9 OFFCURVE",
"443 79 OFFCURVE",
"443 171 CURVE SMOOTH",
"443 259 OFFCURVE",
"393 298 OFFCURVE",
"270 329 CURVE SMOOTH",
"165 355 OFFCURVE",
"116 380 OFFCURVE",
"116 457 CURVE SMOOTH",
"116 538 OFFCURVE",
"155 579 OFFCURVE",
"258 579 CURVE SMOOTH",
"297 579 OFFCURVE",
"336 575 OFFCURVE",
"371 570 CURVE",
"379 480 LINE",
"411 480 LINE",
"418 504 OFFCURVE",
"424 534 OFFCURVE",
"424 561 CURVE SMOOTH",
"424 587 LINE",
"384 608 OFFCURVE",
"339 622 OFFCURVE",
"264 622 CURVE SMOOTH",
"109 622 OFFCURVE",
"69 539 OFFCURVE",
"69 450 CURVE SMOOTH",
"69 343 OFFCURVE",
"156 307 OFFCURVE",
"254 283 CURVE SMOOTH",
"350 259 OFFCURVE",
"395 229 OFFCURVE",
"395 153 CURVE SMOOTH",
"395 117 OFFCURVE",
"388 85 OFFCURVE",
"375 62 CURVE",
"347 47 OFFCURVE",
"308 35 OFFCURVE",
"251 35 CURVE SMOOTH",
"186 35 OFFCURVE",
"131 46 OFFCURVE",
"74 73 CURVE",
"57 32 LINE",
"118 3 OFFCURVE",
"181 -9 OFFCURVE",
"246 -9 CURVE SMOOTH"
);
},
{
closed = 1;
nodes = (
"295 -198 OFFCURVE",
"311 -156 OFFCURVE",
"311 -110 CURVE SMOOTH",
"311 -70 OFFCURVE",
"293 -48 OFFCURVE",
"255 -48 CURVE SMOOTH",
"241 -48 OFFCURVE",
"228 -51 OFFCURVE",
"217 -55 CURVE",
"217 -88 LINE",
"272 -88 LINE",
"272 -148 OFFCURVE",
"259 -187 OFFCURVE",
"236 -228 CURVE",
"266 -235 LINE"
);
}
);
width = 511;
}
);
leftKerningGroup = S;
note = Scommaaccent;
rightKerningGroup = S;
unicode = 0218;
},
{
glyphname = Sdotaccent;
lastChange = "2015-07-20 11:41:21 +0000";
layers = (
{
layerId = "0B91E381-1358-4F31-B824-AB2EAC4429E5";
name = Light;
paths = (
{
closed = 1;
nodes = (
"406 -9 OFFCURVE",
"443 79 OFFCURVE",
"443 171 CURVE SMOOTH",
"443 259 OFFCURVE",
"393 298 OFFCURVE",
"270 329 CURVE SMOOTH",
"165 355 OFFCURVE",
"116 380 OFFCURVE",
"116 457 CURVE SMOOTH",
"116 538 OFFCURVE",
"155 579 OFFCURVE",
"258 579 CURVE SMOOTH",
"297 579 OFFCURVE",
"336 575 OFFCURVE",
"371 570 CURVE",
"379 480 LINE",
"411 480 LINE",
"418 504 OFFCURVE",
"424 534 OFFCURVE",
"424 561 CURVE SMOOTH",
"424 587 LINE",
"384 608 OFFCURVE",
"339 622 OFFCURVE",
"264 622 CURVE SMOOTH",
"109 622 OFFCURVE",
"69 539 OFFCURVE",
"69 450 CURVE SMOOTH",
"69 343 OFFCURVE",
"156 307 OFFCURVE",
"254 283 CURVE SMOOTH",
"350 259 OFFCURVE",
"395 229 OFFCURVE",
"395 153 CURVE SMOOTH",
"395 117 OFFCURVE",
"388 85 OFFCURVE",
"375 62 CURVE",
"347 47 OFFCURVE",
"308 35 OFFCURVE",
"251 35 CURVE SMOOTH",
"186 35 OFFCURVE",
"131 46 OFFCURVE",
"74 73 CURVE",
"57 32 LINE",
"118 3 OFFCURVE",
"181 -9 OFFCURVE",
"246 -9 CURVE SMOOTH"
);
},
{
closed = 1;
nodes = (
"280 709 OFFCURVE",
"295 723 OFFCURVE",
"295 749 CURVE SMOOTH",
"295 777 OFFCURVE",
"280 791 OFFCURVE",
"253 791 CURVE SMOOTH",
"225 791 OFFCURVE",
"209 777 OFFCURVE",
"209 749 CURVE SMOOTH",
"209 723 OFFCURVE",
"225 709 OFFCURVE",
"253 709 CURVE SMOOTH"
);
}
);
width = 511;
}
);
leftKerningGroup = S;
note = Sdotaccent;
rightKerningGroup = S;
unicode = 1E60;
},
{
glyphname = Sdotbelow;
lastChange = "2015-07-20 11:41:21 +0000";
layers = (
{
layerId = "0B91E381-1358-4F31-B824-AB2EAC4429E5";
name = Light;
paths = (
{
closed = 1;
nodes = (
"406 -9 OFFCURVE",
"443 79 OFFCURVE",
"443 171 CURVE SMOOTH",
"443 259 OFFCURVE",
"393 298 OFFCURVE",
"270 329 CURVE SMOOTH",
"165 355 OFFCURVE",
"116 380 OFFCURVE",
"116 457 CURVE SMOOTH",
"116 538 OFFCURVE",
"155 579 OFFCURVE",
"258 579 CURVE SMOOTH",
"297 579 OFFCURVE",
"336 575 OFFCURVE",
"371 570 CURVE",
"379 480 LINE",
"411 480 LINE",
"418 504 OFFCURVE",
"424 534 OFFCURVE",
"424 561 CURVE SMOOTH",
"424 587 LINE",
"384 608 OFFCURVE",
"339 622 OFFCURVE",
"264 622 CURVE SMOOTH",
"109 622 OFFCURVE",
"69 539 OFFCURVE",
"69 450 CURVE SMOOTH",
"69 343 OFFCURVE",
"156 307 OFFCURVE",
"254 283 CURVE SMOOTH",
"350 259 OFFCURVE",
"395 229 OFFCURVE",
"395 153 CURVE SMOOTH",
"395 117 OFFCURVE",
"388 85 OFFCURVE",
"375 62 CURVE",
"347 47 OFFCURVE",
"308 35 OFFCURVE",
"251 35 CURVE SMOOTH",
"186 35 OFFCURVE",
"131 46 OFFCURVE",
"74 73 CURVE",
"57 32 LINE",
"118 3 OFFCURVE",
"181 -9 OFFCURVE",
"246 -9 CURVE SMOOTH"
);
},
{
closed = 1;
nodes = (
"289 -144 OFFCURVE",
"304 -129 OFFCURVE",
"304 -104 CURVE SMOOTH",
"304 -76 OFFCURVE",
"289 -61 OFFCURVE",
"262 -61 CURVE SMOOTH",
"234 -61 OFFCURVE",
"218 -76 OFFCURVE",
"218 -104 CURVE SMOOTH",
"218 -129 OFFCURVE",
"234 -144 OFFCURVE",
"262 -144 CURVE SMOOTH"
);
}
);
width = 511;
}
);
leftKerningGroup = S;
note = Sdotbelow;
rightKerningGroup = S;
unicode = 1E62;
},
{
glyphname = uni1E9E;
lastChange = "2015-07-20 10:39:04 +0000";
layers = (
{
layerId = "0B91E381-1358-4F31-B824-AB2EAC4429E5";
name = Light;
paths = (
{
closed = 1;
nodes = (
"473 -6 OFFCURVE",
"527 59 OFFCURVE",
"527 169 CURVE SMOOTH",
"527 268 OFFCURVE",
"473 332 OFFCURVE",
"330 340 CURVE",
"330 346 LINE",
"476 517 LINE",
"476 552 LINE",
"421 591 OFFCURVE",
"357 612 OFFCURVE",
"285 612 CURVE SMOOTH",
"144 612 OFFCURVE",
"86 538 OFFCURVE",
"86 398 CURVE SMOOTH",
"86 0 LINE",
"132 0 LINE",
"132 398 LINE SMOOTH",
"132 522 OFFCURVE",
"179 568 OFFCURVE",
"291 568 CURVE SMOOTH",
"348 568 OFFCURVE",
"384 557 OFFCURVE",
"427 534 CURVE",
"427 527 LINE",
"280 349 LINE",
"280 301 LINE",
"315 301 LINE SMOOTH",
"424 301 OFFCURVE",
"480 256 OFFCURVE",
"480 170 CURVE SMOOTH",
"480 120 OFFCURVE",
"472 87 OFFCURVE",
"456 56 CURVE",
"427 44 OFFCURVE",
"401 38 OFFCURVE",
"353 38 CURVE SMOOTH",
"310 38 OFFCURVE",
"281 42 OFFCURVE",
"229 56 CURVE",
"217 16 LINE",
"267 -1 OFFCURVE",
"302 -6 OFFCURVE",
"346 -6 CURVE SMOOTH"
);
}
);
width = 575;
}
);
note = uni1E9E;
unicode = 1E9E;
},
{
glyphname = uni018F;
lastChange = "2015-07-20 10:39:05 +0000";
layers = (
{
layerId = "0B91E381-1358-4F31-B824-AB2EAC4429E5";
name = Light;
paths = (
{
closed = 1;
nodes = (
"467 -6 OFFCURVE",
"536 107 OFFCURVE",
"536 314 CURVE SMOOTH",
"536 521 OFFCURVE",
"442 622 OFFCURVE",
"284 622 CURVE SMOOTH",
"180 622 OFFCURVE",
"119 591 OFFCURVE",
"64 558 CURVE",
"84 523 LINE",
"136 554 OFFCURVE",
"192 577 OFFCURVE",
"277 577 CURVE SMOOTH",
"410 577 OFFCURVE",
"489 502 OFFCURVE",
"489 330 CURVE",
"131 333 LINE",
"63 278 LINE",
"62 265 OFFCURVE",
"61 247 OFFCURVE",
"61 236 CURVE SMOOTH",
"61 89 OFFCURVE",
"133 -6 OFFCURVE",
"287 -6 CURVE SMOOTH"
);
},
{
closed = 1;
nodes = (
"172 39 OFFCURVE",
"108 108 OFFCURVE",
"108 222 CURVE SMOOTH",
"108 243 OFFCURVE",
"109 260 OFFCURVE",
"113 284 CURVE",
"490 290 LINE",
"490 134 OFFCURVE",
"438 39 OFFCURVE",
"289 39 CURVE SMOOTH"
);
}
);
width = 612;
}
);
note = uni018F;
unicode = 018F;
},
{
glyphname = T;
lastChange = "2015-07-20 12:44:42 +0000";
layers = (
{
layerId = "0B91E381-1358-4F31-B824-AB2EAC4429E5";
name = Light;
paths = (
{
closed = 1;
nodes = (
"284 0 LINE",
"284 567 LINE",
"482 567 LINE",
"482 612 LINE",
"38 612 LINE",
"38 567 LINE",
"237 567 LINE",
"237 0 LINE"
);
}
);
width = 520;
}
);
leftKerningGroup = T;
note = T;
rightKerningGroup = T;
unicode = 0054;
},
{
glyphname = Tbar;
lastChange = "2015-07-20 12:44:57 +0000";
layers = (
{
layerId = "0B91E381-1358-4F31-B824-AB2EAC4429E5";
name = Light;
paths = (
{
closed = 1;
nodes = (
"284 0 LINE",
"284 286 LINE",
"400 286 LINE",
"400 327 LINE",
"284 327 LINE",
"284 567 LINE",
"482 567 LINE",
"482 612 LINE",
"38 612 LINE",
"38 567 LINE",
"237 567 LINE",
"237 327 LINE",
"119 327 LINE",
"119 286 LINE",
"237 286 LINE",
"237 0 LINE"
);
}
);
width = 520;
}
);
leftKerningGroup = T;
note = Tbar;
rightKerningGroup = T;
unicode = 0166;
},
{
glyphname = Tcaron;
lastChange = "2015-07-20 12:44:57 +0000";
layers = (
{
layerId = "0B91E381-1358-4F31-B824-AB2EAC4429E5";
name = Light;
paths = (
{
closed = 1;
nodes = (
"284 0 LINE",
"284 567 LINE",
"482 567 LINE",
"482 612 LINE",
"38 612 LINE",
"38 567 LINE",
"237 567 LINE",
"237 0 LINE"
);
},
{
closed = 1;
nodes = (
"284 714 LINE",
"385 845 LINE",
"355 852 LINE",
"262 754 LINE",
"257 754 LINE",
"163 852 LINE",
"133 845 LINE",
"235 714 LINE"
);
}
);
width = 520;
}
);
leftKerningGroup = T;
note = Tcaron;
rightKerningGroup = T;
unicode = 0164;
},
{
glyphname = Tcedilla;
lastChange = "2015-07-20 12:44:57 +0000";
layers = (
{
layerId = "0B91E381-1358-4F31-B824-AB2EAC4429E5";
name = Light;
paths = (
{
closed = 1;
nodes = (
"304 -217 OFFCURVE",
"339 -190 OFFCURVE",
"339 -132 CURVE SMOOTH",
"339 -86 OFFCURVE",
"317 -60 OFFCURVE",
"266 -60 CURVE SMOOTH",
"247 -60 OFFCURVE",
"231 -63 OFFCURVE",
"217 -68 CURVE",
"269 0 LINE",
"284 0 LINE",
"284 567 LINE",
"482 567 LINE",
"482 612 LINE",
"38 612 LINE",
"38 567 LINE",
"237 567 LINE",
"237 4 LINE",
"175 -70 LINE",
"206 -101 LINE",
"220 -96 OFFCURVE",
"234 -95 OFFCURVE",
"252 -95 CURVE SMOOTH",
"285 -95 OFFCURVE",
"298 -108 OFFCURVE",
"298 -137 CURVE SMOOTH",
"298 -151 OFFCURVE",
"296 -164 OFFCURVE",
"292 -174 CURVE",
"277 -179 OFFCURVE",
"263 -180 OFFCURVE",
"240 -180 CURVE SMOOTH",
"216 -180 OFFCURVE",
"191 -176 OFFCURVE",
"169 -169 CURVE",
"157 -201 LINE",
"187 -214 OFFCURVE",
"212 -217 OFFCURVE",
"238 -217 CURVE SMOOTH"
);
}
);
width = 520;
}
);
leftKerningGroup = T;
note = Tcedilla;
rightKerningGroup = T;
unicode = 0162;
},
{
glyphname = Tcommaaccent;
lastChange = "2015-07-20 12:44:57 +0000";
layers = (
{
layerId = "0B91E381-1358-4F31-B824-AB2EAC4429E5";
name = Light;
paths = (
{
closed = 1;
nodes = (
"284 0 LINE",
"284 567 LINE",
"482 567 LINE",
"482 612 LINE",
"38 612 LINE",
"38 567 LINE",
"237 567 LINE",
"237 0 LINE"
);
},
{
closed = 1;
nodes = (
"290 -197 OFFCURVE",
"306 -154 OFFCURVE",
"306 -109 CURVE SMOOTH",
"306 -68 OFFCURVE",
"288 -47 OFFCURVE",
"250 -47 CURVE SMOOTH",
"236 -47 OFFCURVE",
"223 -49 OFFCURVE",
"212 -53 CURVE",
"212 -86 LINE",
"267 -86 LINE",
"267 -146 OFFCURVE",
"254 -186 OFFCURVE",
"231 -227 CURVE",
"261 -234 LINE"
);
}
);
width = 520;
}
);
leftKerningGroup = T;
note = Tcommaaccent;
rightKerningGroup = T;
},
{
glyphname = Tdotbelow;
lastChange = "2015-07-20 12:44:57 +0000";
layers = (
{
layerId = "0B91E381-1358-4F31-B824-AB2EAC4429E5";
name = Light;
paths = (
{
closed = 1;
nodes = (
"284 0 LINE",
"284 567 LINE",
"482 567 LINE",
"482 612 LINE",
"38 612 LINE",
"38 567 LINE",
"237 567 LINE",
"237 0 LINE"
);
},
{
closed = 1;
nodes = (
"288 -152 OFFCURVE",
"303 -138 OFFCURVE",
"303 -112 CURVE SMOOTH",
"303 -85 OFFCURVE",
"288 -70 OFFCURVE",
"261 -70 CURVE SMOOTH",
"233 -70 OFFCURVE",
"217 -85 OFFCURVE",
"217 -112 CURVE SMOOTH",
"217 -138 OFFCURVE",
"233 -152 OFFCURVE",
"261 -152 CURVE SMOOTH"
);
}
);
width = 520;
}
);
leftKerningGroup = T;
note = Tdotbelow;
rightKerningGroup = T;
unicode = 1E6C;
},
{
glyphname = Tlinebelow;
lastChange = "2015-07-20 12:44:57 +0000";
layers = (
{
layerId = "0B91E381-1358-4F31-B824-AB2EAC4429E5";
name = Light;
paths = (
{
closed = 1;
nodes = (
"284 0 LINE",
"284 567 LINE",
"482 567 LINE",
"482 612 LINE",
"38 612 LINE",
"38 567 LINE",
"237 567 LINE",
"237 0 LINE"
);
},
{
closed = 1;
nodes = (
"410 -116 LINE",
"410 -72 LINE",
"109 -72 LINE",
"109 -116 LINE"
);
}
);
width = 520;
}
);
leftKerningGroup = T;
note = Tlinebelow;
rightKerningGroup = T;
unicode = 1E6E;
},
{
glyphname = U;
lastChange = "2015-07-20 10:39:03 +0000";
layers = (
{
layerId = "0B91E381-1358-4F31-B824-AB2EAC4429E5";
name = Light;
paths = (
{
closed = 1;
nodes = (
"420 -9 OFFCURVE",
"508 23 OFFCURVE",
"508 86 CURVE SMOOTH",
"508 612 LINE",
"461 612 LINE",
"461 63 LINE",
"423 47 OFFCURVE",
"371 35 OFFCURVE",
"299 35 CURVE SMOOTH",
"181 35 OFFCURVE",
"129 66 OFFCURVE",
"129 180 CURVE SMOOTH",
"129 612 LINE",
"82 612 LINE",
"82 168 LINE SMOOTH",
"82 47 OFFCURVE",
"152 -9 OFFCURVE",
"292 -9 CURVE SMOOTH"
);
}
);
width = 592;
}
);
note = U;
unicode = 0055;
},
{
glyphname = Uacute;
lastChange = "2015-07-20 10:39:04 +0000";
layers = (
{
layerId = "0B91E381-1358-4F31-B824-AB2EAC4429E5";
name = Light;
paths = (
{
closed = 1;
nodes = (
"420 -9 OFFCURVE",
"508 23 OFFCURVE",
"508 86 CURVE SMOOTH",
"508 612 LINE",
"461 612 LINE",
"461 63 LINE",
"423 47 OFFCURVE",
"371 35 OFFCURVE",
"299 35 CURVE SMOOTH",
"181 35 OFFCURVE",
"129 66 OFFCURVE",
"129 180 CURVE SMOOTH",
"129 612 LINE",
"82 612 LINE",
"82 168 LINE SMOOTH",
"82 47 OFFCURVE",
"152 -9 OFFCURVE",
"292 -9 CURVE SMOOTH"
);
},
{
closed = 1;
nodes = (
"414 846 LINE",
"352 853 LINE",
"268 712 LINE",
"300 707 LINE"
);
}
);
width = 592;
}
);
note = Uacute;
unicode = 00DA;
},
{
glyphname = Ubreve;
lastChange = "2015-07-20 10:39:04 +0000";
layers = (
{
layerId = "0B91E381-1358-4F31-B824-AB2EAC4429E5";
name = Light;
paths = (
{
closed = 1;
nodes = (
"420 -9 OFFCURVE",
"508 23 OFFCURVE",
"508 86 CURVE SMOOTH",
"508 612 LINE",
"461 612 LINE",
"461 63 LINE",
"423 47 OFFCURVE",
"371 35 OFFCURVE",
"299 35 CURVE SMOOTH",
"181 35 OFFCURVE",
"129 66 OFFCURVE",
"129 180 CURVE SMOOTH",
"129 612 LINE",
"82 612 LINE",
"82 168 LINE SMOOTH",
"82 47 OFFCURVE",
"152 -9 OFFCURVE",
"292 -9 CURVE SMOOTH"
);
},
{
closed = 1;
nodes = (
"374 709 OFFCURVE",
"408 753 OFFCURVE",
"419 810 CURVE",
"374 817 LINE",
"366 776 OFFCURVE",
"351 748 OFFCURVE",
"297 748 CURVE SMOOTH",
"243 748 OFFCURVE",
"228 776 OFFCURVE",
"220 817 CURVE",
"175 810 LINE",
"186 753 OFFCURVE",
"220 709 OFFCURVE",
"297 709 CURVE SMOOTH"
);
}
);
width = 592;
}
);
note = Ubreve;
unicode = 016C;
},
{
glyphname = Ucaron;
lastChange = "2015-07-20 10:39:05 +0000";
layers = (
{
layerId = "0B91E381-1358-4F31-B824-AB2EAC4429E5";
name = Light;
paths = (
{
closed = 1;
nodes = (
"420 -9 OFFCURVE",
"508 23 OFFCURVE",
"508 86 CURVE SMOOTH",
"508 612 LINE",
"461 612 LINE",
"461 63 LINE",
"423 47 OFFCURVE",
"371 35 OFFCURVE",
"299 35 CURVE SMOOTH",
"181 35 OFFCURVE",
"129 66 OFFCURVE",
"129 180 CURVE SMOOTH",
"129 612 LINE",
"82 612 LINE",
"82 168 LINE SMOOTH",
"82 47 OFFCURVE",
"152 -9 OFFCURVE",
"292 -9 CURVE SMOOTH"
);
},
{
closed = 1;
nodes = (
"319 714 LINE",
"420 845 LINE",
"390 852 LINE",
"297 754 LINE",
"292 754 LINE",
"198 852 LINE",
"168 845 LINE",
"270 714 LINE"
);
}
);
width = 592;
}
);
note = Ucaron;
unicode = 01D3;
},
{
glyphname = Ucircumflex;
lastChange = "2015-07-20 10:39:04 +0000";
layers = (
{
layerId = "0B91E381-1358-4F31-B824-AB2EAC4429E5";
name = Light;
paths = (
{
closed = 1;
nodes = (
"420 -9 OFFCURVE",
"508 23 OFFCURVE",
"508 86 CURVE SMOOTH",
"508 612 LINE",
"461 612 LINE",
"461 63 LINE",
"423 47 OFFCURVE",
"371 35 OFFCURVE",
"299 35 CURVE SMOOTH",
"181 35 OFFCURVE",
"129 66 OFFCURVE",
"129 180 CURVE SMOOTH",
"129 612 LINE",
"82 612 LINE",
"82 168 LINE SMOOTH",
"82 47 OFFCURVE",
"152 -9 OFFCURVE",
"292 -9 CURVE SMOOTH"
);
},
{
closed = 1;
nodes = (
"295 805 LINE",
"300 805 LINE",
"393 707 LINE",
"423 714 LINE",
"322 845 LINE",
"273 845 LINE",
"171 714 LINE",
"201 707 LINE"
);
}
);
width = 592;
}
);
note = Ucircumflex;
unicode = 00DB;
},
{
glyphname = Udieresis;
lastChange = "2015-07-20 10:39:05 +0000";
layers = (
{
layerId = "0B91E381-1358-4F31-B824-AB2EAC4429E5";
name = Light;
paths = (
{
closed = 1;
nodes = (
"420 -9 OFFCURVE",
"508 23 OFFCURVE",
"508 86 CURVE SMOOTH",
"508 612 LINE",
"461 612 LINE",
"461 63 LINE",
"423 47 OFFCURVE",
"371 35 OFFCURVE",
"299 35 CURVE SMOOTH",
"181 35 OFFCURVE",
"129 66 OFFCURVE",
"129 180 CURVE SMOOTH",
"129 612 LINE",
"82 612 LINE",
"82 168 LINE SMOOTH",
"82 47 OFFCURVE",
"152 -9 OFFCURVE",
"292 -9 CURVE SMOOTH"
);
},
{
closed = 1;
nodes = (
"239 709 OFFCURVE",
"251 721 OFFCURVE",
"251 740 CURVE SMOOTH",
"251 761 OFFCURVE",
"239 772 OFFCURVE",
"219 772 CURVE SMOOTH",
"199 772 OFFCURVE",
"186 761 OFFCURVE",
"186 740 CURVE SMOOTH",
"186 721 OFFCURVE",
"199 709 OFFCURVE",
"219 709 CURVE SMOOTH"
);
},
{
closed = 1;
nodes = (
"397 709 OFFCURVE",
"409 721 OFFCURVE",
"409 740 CURVE SMOOTH",
"409 761 OFFCURVE",
"397 772 OFFCURVE",
"377 772 CURVE SMOOTH",
"356 772 OFFCURVE",
"343 761 OFFCURVE",
"343 740 CURVE SMOOTH",
"343 721 OFFCURVE",
"356 709 OFFCURVE",
"377 709 CURVE SMOOTH"
);
}
);
width = 592;
}
);
note = Udieresis;
unicode = 00DC;
},
{
glyphname = Udieresisacute;
lastChange = "2015-07-20 10:39:05 +0000";
layers = (
{
layerId = "0B91E381-1358-4F31-B824-AB2EAC4429E5";
name = Light;
paths = (
{
closed = 1;
nodes = (
"420 -9 OFFCURVE",
"508 23 OFFCURVE",
"508 86 CURVE SMOOTH",
"508 612 LINE",
"461 612 LINE",
"461 63 LINE",
"423 47 OFFCURVE",
"371 35 OFFCURVE",
"299 35 CURVE SMOOTH",
"181 35 OFFCURVE",
"129 66 OFFCURVE",
"129 180 CURVE SMOOTH",
"129 612 LINE",
"82 612 LINE",
"82 168 LINE SMOOTH",
"82 47 OFFCURVE",
"152 -9 OFFCURVE",
"292 -9 CURVE SMOOTH"
);
},
{
closed = 1;
nodes = (
"237 713 OFFCURVE",
"249 725 OFFCURVE",
"249 745 CURVE SMOOTH",
"249 766 OFFCURVE",
"237 777 OFFCURVE",
"217 777 CURVE SMOOTH",
"197 777 OFFCURVE",
"184 766 OFFCURVE",
"184 745 CURVE SMOOTH",
"184 725 OFFCURVE",
"197 713 OFFCURVE",
"217 713 CURVE SMOOTH"
);
},
{
closed = 1;
nodes = (
"395 713 OFFCURVE",
"407 725 OFFCURVE",
"407 745 CURVE SMOOTH",
"407 766 OFFCURVE",
"395 777 OFFCURVE",
"375 777 CURVE SMOOTH",
"354 777 OFFCURVE",
"341 766 OFFCURVE",
"341 745 CURVE SMOOTH",
"341 725 OFFCURVE",
"354 713 OFFCURVE",
"375 713 CURVE SMOOTH"
);
},
{
closed = 1;
nodes = (
"400 954 LINE",
"344 962 LINE",
"276 848 LINE",
"308 842 LINE"
);
}
);
width = 592;
}
);
note = Udieresisacute;
unicode = 01D7;
},
{
glyphname = Udieresiscaron;
lastChange = "2015-07-20 10:39:05 +0000";
layers = (
{
layerId = "0B91E381-1358-4F31-B824-AB2EAC4429E5";
name = Light;
paths = (
{
closed = 1;
nodes = (
"420 -9 OFFCURVE",
"508 23 OFFCURVE",
"508 86 CURVE SMOOTH",
"508 612 LINE",
"461 612 LINE",
"461 63 LINE",
"423 47 OFFCURVE",
"371 35 OFFCURVE",
"299 35 CURVE SMOOTH",
"181 35 OFFCURVE",
"129 66 OFFCURVE",
"129 180 CURVE SMOOTH",
"129 612 LINE",
"82 612 LINE",
"82 168 LINE SMOOTH",
"82 47 OFFCURVE",
"152 -9 OFFCURVE",
"292 -9 CURVE SMOOTH"
);
},
{
closed = 1;
nodes = (
"234 709 OFFCURVE",
"246 721 OFFCURVE",
"246 740 CURVE SMOOTH",
"246 761 OFFCURVE",
"234 772 OFFCURVE",
"214 772 CURVE SMOOTH",
"194 772 OFFCURVE",
"181 761 OFFCURVE",
"181 740 CURVE SMOOTH",
"181 721 OFFCURVE",
"194 709 OFFCURVE",
"214 709 CURVE SMOOTH"
);
},
{
closed = 1;
nodes = (
"392 709 OFFCURVE",
"404 721 OFFCURVE",
"404 740 CURVE SMOOTH",
"404 761 OFFCURVE",
"392 772 OFFCURVE",
"372 772 CURVE SMOOTH",
"351 772 OFFCURVE",
"338 761 OFFCURVE",
"338 740 CURVE SMOOTH",
"338 721 OFFCURVE",
"351 709 OFFCURVE",
"372 709 CURVE SMOOTH"
);
},
{
closed = 1;
nodes = (
"317 836 LINE",
"410 957 LINE",
"381 964 LINE",
"296 874 LINE",
"290 874 LINE",
"204 964 LINE",
"175 957 LINE",
"269 836 LINE"
);
}
);
width = 592;
}
);
note = Udieresiscaron;
unicode = 01D9;
},
{
glyphname = Udieresisgrave;
lastChange = "2015-07-20 10:39:04 +0000";
layers = (
{
layerId = "0B91E381-1358-4F31-B824-AB2EAC4429E5";
name = Light;
paths = (
{
closed = 1;
nodes = (
"420 -9 OFFCURVE",
"508 23 OFFCURVE",
"508 86 CURVE SMOOTH",
"508 612 LINE",
"461 612 LINE",
"461 63 LINE",
"423 47 OFFCURVE",
"371 35 OFFCURVE",
"299 35 CURVE SMOOTH",
"181 35 OFFCURVE",
"129 66 OFFCURVE",
"129 180 CURVE SMOOTH",
"129 612 LINE",
"82 612 LINE",
"82 168 LINE SMOOTH",
"82 47 OFFCURVE",
"152 -9 OFFCURVE",
"292 -9 CURVE SMOOTH"
);
},
{
closed = 1;
nodes = (
"236 709 OFFCURVE",
"249 721 OFFCURVE",
"249 740 CURVE SMOOTH",
"249 761 OFFCURVE",
"236 772 OFFCURVE",
"215 772 CURVE SMOOTH",
"195 772 OFFCURVE",
"183 761 OFFCURVE",
"183 740 CURVE SMOOTH",
"183 721 OFFCURVE",
"195 709 OFFCURVE",
"215 709 CURVE SMOOTH"
);
},
{
closed = 1;
nodes = (
"393 709 OFFCURVE",
"406 721 OFFCURVE",
"406 740 CURVE SMOOTH",
"406 761 OFFCURVE",
"393 772 OFFCURVE",
"373 772 CURVE SMOOTH",
"352 772 OFFCURVE",
"340 761 OFFCURVE",
"340 740 CURVE SMOOTH",
"340 721 OFFCURVE",
"352 709 OFFCURVE",
"373 709 CURVE SMOOTH"
);
},
{
closed = 1;
nodes = (
"314 843 LINE",
"247 957 LINE",
"190 949 LINE",
"283 838 LINE"
);
}
);
width = 592;
}
);
note = Udieresisgrave;
unicode = 01DB;
},
{
glyphname = Udieresismacron;
lastChange = "2015-07-20 10:39:05 +0000";
layers = (
{
layerId = "0B91E381-1358-4F31-B824-AB2EAC4429E5";
name = Light;
paths = (
{
closed = 1;
nodes = (
"420 -9 OFFCURVE",
"508 23 OFFCURVE",
"508 86 CURVE SMOOTH",
"508 612 LINE",
"461 612 LINE",
"461 63 LINE",
"423 47 OFFCURVE",
"371 35 OFFCURVE",
"299 35 CURVE SMOOTH",
"181 35 OFFCURVE",
"129 66 OFFCURVE",
"129 180 CURVE SMOOTH",
"129 612 LINE",
"82 612 LINE",
"82 168 LINE SMOOTH",
"82 47 OFFCURVE",
"152 -9 OFFCURVE",
"292 -9 CURVE SMOOTH"
);
},
{
closed = 1;
nodes = (
"238 713 OFFCURVE",
"250 724 OFFCURVE",
"250 744 CURVE SMOOTH",
"250 765 OFFCURVE",
"238 776 OFFCURVE",
"218 776 CURVE SMOOTH",
"198 776 OFFCURVE",
"185 765 OFFCURVE",
"185 744 CURVE SMOOTH",
"185 724 OFFCURVE",
"198 713 OFFCURVE",
"218 713 CURVE SMOOTH"
);
},
{
closed = 1;
nodes = (
"396 713 OFFCURVE",
"408 724 OFFCURVE",
"408 744 CURVE SMOOTH",
"408 765 OFFCURVE",
"396 776 OFFCURVE",
"376 776 CURVE SMOOTH",
"355 776 OFFCURVE",
"342 765 OFFCURVE",
"342 744 CURVE SMOOTH",
"342 724 OFFCURVE",
"355 713 OFFCURVE",
"376 713 CURVE SMOOTH"
);
},
{
closed = 1;
nodes = (
"433 843 LINE",
"433 883 LINE",
"163 883 LINE",
"163 843 LINE"
);
}
);
width = 592;
}
);
note = Udieresismacron;
unicode = 01D5;
},
{
glyphname = Udotbelow;
lastChange = "2015-07-20 10:39:05 +0000";
layers = (
{
layerId = "0B91E381-1358-4F31-B824-AB2EAC4429E5";
name = Light;
paths = (
{
closed = 1;
nodes = (
"420 -9 OFFCURVE",
"508 23 OFFCURVE",
"508 86 CURVE SMOOTH",
"508 612 LINE",
"461 612 LINE",
"461 63 LINE",
"423 47 OFFCURVE",
"371 35 OFFCURVE",
"299 35 CURVE SMOOTH",
"181 35 OFFCURVE",
"129 66 OFFCURVE",
"129 180 CURVE SMOOTH",
"129 612 LINE",
"82 612 LINE",
"82 168 LINE SMOOTH",
"82 47 OFFCURVE",
"152 -9 OFFCURVE",
"292 -9 CURVE SMOOTH"
);
},
{
closed = 1;
nodes = (
"332 -152 OFFCURVE",
"347 -138 OFFCURVE",
"347 -112 CURVE SMOOTH",
"347 -85 OFFCURVE",
"332 -70 OFFCURVE",
"305 -70 CURVE SMOOTH",
"277 -70 OFFCURVE",
"261 -85 OFFCURVE",
"261 -112 CURVE SMOOTH",
"261 -138 OFFCURVE",
"277 -152 OFFCURVE",
"305 -152 CURVE SMOOTH"
);
}
);
width = 592;
}
);
note = Udotbelow;
unicode = 1EE4;
},
{
glyphname = Ugrave;
lastChange = "2015-07-20 10:39:04 +0000";
layers = (
{
layerId = "0B91E381-1358-4F31-B824-AB2EAC4429E5";
name = Light;
paths = (
{
closed = 1;
nodes = (
"420 -9 OFFCURVE",
"508 23 OFFCURVE",
"508 86 CURVE SMOOTH",
"508 612 LINE",
"461 612 LINE",
"461 63 LINE",
"423 47 OFFCURVE",
"371 35 OFFCURVE",
"299 35 CURVE SMOOTH",
"181 35 OFFCURVE",
"129 66 OFFCURVE",
"129 180 CURVE SMOOTH",
"129 612 LINE",
"82 612 LINE",
"82 168 LINE SMOOTH",
"82 47 OFFCURVE",
"152 -9 OFFCURVE",
"292 -9 CURVE SMOOTH"
);
},
{
closed = 1;
nodes = (
"327 712 LINE",
"243 853 LINE",
"181 846 LINE",
"295 707 LINE"
);
}
);
width = 592;
}
);
note = Ugrave;
unicode = 00D9;
},
{
glyphname = Uhookabove;
lastChange = "2015-07-20 10:39:05 +0000";
layers = (
{
layerId = "0B91E381-1358-4F31-B824-AB2EAC4429E5";
name = Light;
paths = (
{
closed = 1;
nodes = (
"420 -9 OFFCURVE",
"508 23 OFFCURVE",
"508 86 CURVE SMOOTH",
"508 612 LINE",
"461 612 LINE",
"461 63 LINE",
"423 47 OFFCURVE",
"371 35 OFFCURVE",
"299 35 CURVE SMOOTH",
"181 35 OFFCURVE",
"129 66 OFFCURVE",
"129 180 CURVE SMOOTH",
"129 612 LINE",
"82 612 LINE",
"82 168 LINE SMOOTH",
"82 47 OFFCURVE",
"152 -9 OFFCURVE",
"292 -9 CURVE SMOOTH"
);
},
{
closed = 1;
nodes = (
"304 714 LINE",
"304 753 LINE",
"356 756 OFFCURVE",
"393 774 OFFCURVE",
"393 827 CURVE SMOOTH",
"393 869 OFFCURVE",
"370 901 OFFCURVE",
"314 901 CURVE SMOOTH",
"288 901 OFFCURVE",
"269 897 OFFCURVE",
"245 888 CURVE",
"255 857 LINE",
"273 863 OFFCURVE",
"290 865 OFFCURVE",
"306 865 CURVE SMOOTH",
"341 865 OFFCURVE",
"354 852 OFFCURVE",
"354 827 CURVE SMOOTH",
"354 793 OFFCURVE",
"331 786 OFFCURVE",
"266 786 CURVE",
"266 763 LINE",
"277 714 LINE"
);
}
);
width = 592;
}
);
note = Uhookabove;
unicode = 1EE6;
},
{
glyphname = Uhorn;
lastChange = "2015-07-20 10:39:04 +0000";
layers = (
{
layerId = "0B91E381-1358-4F31-B824-AB2EAC4429E5";
name = Light;
paths = (
{
closed = 1;
nodes = (
"420 -11 OFFCURVE",
"508 21 OFFCURVE",
"508 85 CURVE SMOOTH",
"508 456 LINE",
"636 491 OFFCURVE",
"711 560 OFFCURVE",
"711 692 CURVE",
"664 692 LINE",
"661 580 OFFCURVE",
"603 534 OFFCURVE",
"519 501 CURVE",
"507 501 LINE",
"507 612 LINE",
"461 612 LINE",
"461 62 LINE",
"423 45 OFFCURVE",
"371 34 OFFCURVE",
"299 34 CURVE SMOOTH",
"181 34 OFFCURVE",
"129 65 OFFCURVE",
"129 178 CURVE SMOOTH",
"129 612 LINE",
"82 612 LINE",
"82 166 LINE SMOOTH",
"82 45 OFFCURVE",
"152 -11 OFFCURVE",
"292 -11 CURVE SMOOTH"
);
}
);
width = 719;
}
);
note = Uhorn;
unicode = 01AF;
},
{
glyphname = Uhornacute;
lastChange = "2015-07-20 10:39:04 +0000";
layers = (
{
layerId = "0B91E381-1358-4F31-B824-AB2EAC4429E5";
name = Light;
paths = (
{
closed = 1;
nodes = (
"420 -11 OFFCURVE",
"508 21 OFFCURVE",
"508 85 CURVE SMOOTH",
"508 456 LINE",
"636 491 OFFCURVE",
"711 560 OFFCURVE",
"711 692 CURVE",
"664 692 LINE",
"661 580 OFFCURVE",
"603 534 OFFCURVE",
"519 501 CURVE",
"507 501 LINE",
"507 612 LINE",
"461 612 LINE",
"461 62 LINE",
"423 45 OFFCURVE",
"371 34 OFFCURVE",
"299 34 CURVE SMOOTH",
"181 34 OFFCURVE",
"129 65 OFFCURVE",
"129 178 CURVE SMOOTH",
"129 612 LINE",
"82 612 LINE",
"82 166 LINE SMOOTH",
"82 45 OFFCURVE",
"152 -11 OFFCURVE",
"292 -11 CURVE SMOOTH"
);
},
{
closed = 1;
nodes = (
"423 847 LINE",
"361 854 LINE",
"277 713 LINE",
"309 707 LINE"
);
}
);
width = 719;
}
);
note = Uhornacute;
unicode = 1EE8;
},
{
glyphname = Uhorndotbelow;
lastChange = "2015-07-20 10:39:05 +0000";
layers = (
{
layerId = "0B91E381-1358-4F31-B824-AB2EAC4429E5";
name = Light;
paths = (
{
closed = 1;
nodes = (
"420 -11 OFFCURVE",
"508 21 OFFCURVE",
"508 85 CURVE SMOOTH",
"508 456 LINE",
"636 491 OFFCURVE",
"711 560 OFFCURVE",
"711 692 CURVE",
"664 692 LINE",
"661 580 OFFCURVE",
"603 534 OFFCURVE",
"519 501 CURVE",
"507 501 LINE",
"507 612 LINE",
"461 612 LINE",
"461 62 LINE",
"423 45 OFFCURVE",
"371 34 OFFCURVE",
"299 34 CURVE SMOOTH",
"181 34 OFFCURVE",
"129 65 OFFCURVE",
"129 178 CURVE SMOOTH",
"129 612 LINE",
"82 612 LINE",
"82 166 LINE SMOOTH",
"82 45 OFFCURVE",
"152 -11 OFFCURVE",
"292 -11 CURVE SMOOTH"
);
},
{
closed = 1;
nodes = (
"331 -152 OFFCURVE",
"346 -138 OFFCURVE",
"346 -112 CURVE SMOOTH",
"346 -85 OFFCURVE",
"331 -70 OFFCURVE",
"304 -70 CURVE SMOOTH",
"276 -70 OFFCURVE",
"260 -85 OFFCURVE",
"260 -112 CURVE SMOOTH",
"260 -138 OFFCURVE",
"276 -152 OFFCURVE",
"304 -152 CURVE SMOOTH"
);
}
);
width = 719;
}
);
note = Uhorndotbelow;
unicode = 1EF0;
},
{
glyphname = Uhorngrave;
lastChange = "2015-07-20 10:39:04 +0000";
layers = (
{
layerId = "0B91E381-1358-4F31-B824-AB2EAC4429E5";
name = Light;
paths = (
{
closed = 1;
nodes = (
"420 -11 OFFCURVE",
"508 21 OFFCURVE",
"508 85 CURVE SMOOTH",
"508 456 LINE",
"636 491 OFFCURVE",
"711 560 OFFCURVE",
"711 692 CURVE",
"664 692 LINE",
"661 580 OFFCURVE",
"603 534 OFFCURVE",
"519 501 CURVE",
"507 501 LINE",
"507 612 LINE",
"461 612 LINE",
"461 62 LINE",
"423 45 OFFCURVE",
"371 34 OFFCURVE",
"299 34 CURVE SMOOTH",
"181 34 OFFCURVE",
"129 65 OFFCURVE",
"129 178 CURVE SMOOTH",
"129 612 LINE",
"82 612 LINE",
"82 166 LINE SMOOTH",
"82 45 OFFCURVE",
"152 -11 OFFCURVE",
"292 -11 CURVE SMOOTH"
);
},
{
closed = 1;
nodes = (
"329 714 LINE",
"245 855 LINE",
"183 848 LINE",
"297 708 LINE"
);
}
);
width = 719;
}
);
note = Uhorngrave;
unicode = 1EEA;
},
{
glyphname = Uhornhookabove;
lastChange = "2015-07-20 10:39:04 +0000";
layers = (
{
layerId = "0B91E381-1358-4F31-B824-AB2EAC4429E5";
name = Light;
paths = (
{
closed = 1;
nodes = (
"420 -11 OFFCURVE",
"508 21 OFFCURVE",
"508 85 CURVE SMOOTH",
"508 456 LINE",
"636 491 OFFCURVE",
"711 560 OFFCURVE",
"711 692 CURVE",
"664 692 LINE",
"661 580 OFFCURVE",
"603 534 OFFCURVE",
"519 501 CURVE",
"507 501 LINE",
"507 612 LINE",
"461 612 LINE",
"461 62 LINE",
"423 45 OFFCURVE",
"371 34 OFFCURVE",
"299 34 CURVE SMOOTH",
"181 34 OFFCURVE",
"129 65 OFFCURVE",
"129 178 CURVE SMOOTH",
"129 612 LINE",
"82 612 LINE",
"82 166 LINE SMOOTH",
"82 45 OFFCURVE",
"152 -11 OFFCURVE",
"292 -11 CURVE SMOOTH"
);
},
{
closed = 1;
nodes = (
"308 714 LINE",
"308 753 LINE",
"360 756 OFFCURVE",
"397 774 OFFCURVE",
"397 827 CURVE SMOOTH",
"397 869 OFFCURVE",
"374 901 OFFCURVE",
"318 901 CURVE SMOOTH",
"292 901 OFFCURVE",
"273 897 OFFCURVE",
"249 888 CURVE",
"259 857 LINE",
"277 863 OFFCURVE",
"294 865 OFFCURVE",
"310 865 CURVE SMOOTH",
"345 865 OFFCURVE",
"358 852 OFFCURVE",
"358 827 CURVE SMOOTH",
"358 793 OFFCURVE",
"335 786 OFFCURVE",
"270 786 CURVE",
"270 763 LINE",
"281 714 LINE"
);
}
);
width = 719;
}
);
note = Uhornhookabove;
unicode = 1EEC;
},
{
glyphname = Uhorntilde;
lastChange = "2015-07-20 10:39:05 +0000";
layers = (
{
layerId = "0B91E381-1358-4F31-B824-AB2EAC4429E5";
name = Light;
paths = (
{
closed = 1;
nodes = (
"420 -11 OFFCURVE",
"508 21 OFFCURVE",
"508 85 CURVE SMOOTH",
"508 456 LINE",
"636 491 OFFCURVE",
"711 560 OFFCURVE",
"711 692 CURVE",
"664 692 LINE",
"661 580 OFFCURVE",
"603 534 OFFCURVE",
"519 501 CURVE",
"507 501 LINE",
"507 612 LINE",
"461 612 LINE",
"461 62 LINE",
"423 45 OFFCURVE",
"371 34 OFFCURVE",
"299 34 CURVE SMOOTH",
"181 34 OFFCURVE",
"129 65 OFFCURVE",
"129 178 CURVE SMOOTH",
"129 612 LINE",
"82 612 LINE",
"82 166 LINE SMOOTH",
"82 45 OFFCURVE",
"152 -11 OFFCURVE",
"292 -11 CURVE SMOOTH"
);
},
{
closed = 1;
nodes = (
"203 740 OFFCURVE",
"216 761 OFFCURVE",
"245 761 CURVE SMOOTH",
"282 761 OFFCURVE",
"311 708 OFFCURVE",
"360 708 CURVE SMOOTH",
"405 708 OFFCURVE",
"430 740 OFFCURVE",
"433 792 CURVE",
"402 801 LINE",
"398 769 OFFCURVE",
"385 748 OFFCURVE",
"356 748 CURVE SMOOTH",
"318 748 OFFCURVE",
"288 801 OFFCURVE",
"241 801 CURVE SMOOTH",
"196 801 OFFCURVE",
"171 769 OFFCURVE",
"168 716 CURVE",
"199 707 LINE"
);
}
);
width = 719;
}
);
note = Uhorntilde;
unicode = 1EEE;
},
{
glyphname = Uhungarumlaut;
lastChange = "2015-07-20 10:39:05 +0000";
layers = (
{
layerId = "0B91E381-1358-4F31-B824-AB2EAC4429E5";
name = Light;
paths = (
{
closed = 1;
nodes = (
"420 -9 OFFCURVE",
"508 23 OFFCURVE",
"508 86 CURVE SMOOTH",
"508 612 LINE",
"461 612 LINE",
"461 63 LINE",
"423 47 OFFCURVE",
"371 35 OFFCURVE",
"299 35 CURVE SMOOTH",
"181 35 OFFCURVE",
"129 66 OFFCURVE",
"129 180 CURVE SMOOTH",
"129 612 LINE",
"82 612 LINE",
"82 168 LINE SMOOTH",
"82 47 OFFCURVE",
"152 -9 OFFCURVE",
"292 -9 CURVE SMOOTH"
);
},
{
closed = 1;
nodes = (
"244 744 OFFCURVE",
"260 787 OFFCURVE",
"260 832 CURVE SMOOTH",
"260 873 OFFCURVE",
"241 894 OFFCURVE",
"203 894 CURVE SMOOTH",
"189 894 OFFCURVE",
"177 891 OFFCURVE",
"166 888 CURVE",
"166 855 LINE",
"221 855 LINE",
"221 795 OFFCURVE",
"208 755 OFFCURVE",
"185 714 CURVE",
"214 707 LINE"
);
},
{
closed = 1;
nodes = (
"409 744 OFFCURVE",
"425 787 OFFCURVE",
"425 832 CURVE SMOOTH",
"425 873 OFFCURVE",
"407 894 OFFCURVE",
"369 894 CURVE SMOOTH",
"355 894 OFFCURVE",
"342 891 OFFCURVE",
"331 888 CURVE",
"331 855 LINE",
"386 855 LINE",
"386 795 OFFCURVE",
"373 755 OFFCURVE",
"350 714 CURVE",
"379 707 LINE"
);
}
);
width = 592;
}
);
note = Uhungarumlaut;
unicode = 0170;
},
{
glyphname = Umacron;
lastChange = "2015-07-20 10:39:04 +0000";
layers = (
{
layerId = "0B91E381-1358-4F31-B824-AB2EAC4429E5";
name = Light;
paths = (
{
closed = 1;
nodes = (
"420 -9 OFFCURVE",
"508 23 OFFCURVE",
"508 86 CURVE SMOOTH",
"508 612 LINE",
"461 612 LINE",
"461 63 LINE",
"423 47 OFFCURVE",
"371 35 OFFCURVE",
"299 35 CURVE SMOOTH",
"181 35 OFFCURVE",
"129 66 OFFCURVE",
"129 180 CURVE SMOOTH",
"129 612 LINE",
"82 612 LINE",
"82 168 LINE SMOOTH",
"82 47 OFFCURVE",
"152 -9 OFFCURVE",
"292 -9 CURVE SMOOTH"
);
},
{
closed = 1;
nodes = (
"430 714 LINE",
"430 755 LINE",
"160 755 LINE",
"160 714 LINE"
);
}
);
width = 592;
}
);
note = Umacron;
unicode = 016A;
},
{
glyphname = Uogonek;
lastChange = "2015-07-20 10:39:03 +0000";
layers = (
{
layerId = "0B91E381-1358-4F31-B824-AB2EAC4429E5";
name = Light;
paths = (
{
closed = 1;
nodes = (
"353 -163 OFFCURVE",
"370 -159 OFFCURVE",
"385 -152 CURVE",
"378 -120 LINE",
"363 -123 OFFCURVE",
"350 -125 OFFCURVE",
"337 -125 CURVE SMOOTH",
"322 -125 OFFCURVE",
"311 -124 OFFCURVE",
"297 -121 CURVE",
"292 -111 OFFCURVE",
"289 -98 OFFCURVE",
"289 -85 CURVE SMOOTH",
"289 -53 OFFCURVE",
"300 -31 OFFCURVE",
"333 -8 CURVE",
"439 -2 OFFCURVE",
"508 30 OFFCURVE",
"508 86 CURVE SMOOTH",
"508 612 LINE",
"461 612 LINE",
"461 63 LINE",
"423 47 OFFCURVE",
"371 35 OFFCURVE",
"299 35 CURVE SMOOTH",
"181 35 OFFCURVE",
"129 66 OFFCURVE",
"129 180 CURVE SMOOTH",
"129 612 LINE",
"82 612 LINE",
"82 168 LINE SMOOTH",
"82 49 OFFCURVE",
"150 -8 OFFCURVE",
"285 -9 CURVE",
"260 -29 OFFCURVE",
"247 -53 OFFCURVE",
"247 -86 CURVE SMOOTH",
"247 -132 OFFCURVE",
"276 -163 OFFCURVE",
"329 -163 CURVE SMOOTH"
);
}
);
width = 592;
}
);
note = Uogonek;
unicode = 0172;
},
{
glyphname = Uring;
lastChange = "2015-07-20 10:39:04 +0000";
layers = (
{
layerId = "0B91E381-1358-4F31-B824-AB2EAC4429E5";
name = Light;
paths = (
{
closed = 1;
nodes = (
"420 -9 OFFCURVE",
"508 23 OFFCURVE",
"508 86 CURVE SMOOTH",
"508 612 LINE",
"461 612 LINE",
"461 63 LINE",
"423 47 OFFCURVE",
"371 35 OFFCURVE",
"299 35 CURVE SMOOTH",
"181 35 OFFCURVE",
"129 66 OFFCURVE",
"129 180 CURVE SMOOTH",
"129 612 LINE",
"82 612 LINE",
"82 168 LINE SMOOTH",
"82 47 OFFCURVE",
"152 -9 OFFCURVE",
"292 -9 CURVE SMOOTH"
);
},
{
closed = 1;
nodes = (
"362 623 OFFCURVE",
"401 666 OFFCURVE",
"401 715 CURVE SMOOTH",
"401 769 OFFCURVE",
"369 797 OFFCURVE",
"304 797 CURVE SMOOTH",
"232 797 OFFCURVE",
"189 753 OFFCURVE",
"189 704 CURVE SMOOTH",
"189 651 OFFCURVE",
"224 623 OFFCURVE",
"287 623 CURVE SMOOTH"
);
},
{
closed = 1;
nodes = (
"246 655 OFFCURVE",
"225 673 OFFCURVE",
"225 707 CURVE SMOOTH",
"225 723 OFFCURVE",
"227 736 OFFCURVE",
"234 757 CURVE",
"256 764 OFFCURVE",
"275 765 OFFCURVE",
"300 765 CURVE SMOOTH",
"343 765 OFFCURVE",
"365 748 OFFCURVE",
"365 712 CURVE SMOOTH",
"365 696 OFFCURVE",
"362 681 OFFCURVE",
"356 663 CURVE",
"334 656 OFFCURVE",
"315 655 OFFCURVE",
"289 655 CURVE SMOOTH"
);
}
);
width = 592;
}
);
note = Uring;
unicode = 016E;
},
{
glyphname = Utilde;
lastChange = "2015-07-20 10:39:04 +0000";
layers = (
{
layerId = "0B91E381-1358-4F31-B824-AB2EAC4429E5";
name = Light;
paths = (
{
closed = 1;
nodes = (
"420 -9 OFFCURVE",
"508 23 OFFCURVE",
"508 86 CURVE SMOOTH",
"508 612 LINE",
"461 612 LINE",
"461 63 LINE",
"423 47 OFFCURVE",
"371 35 OFFCURVE",
"299 35 CURVE SMOOTH",
"181 35 OFFCURVE",
"129 66 OFFCURVE",
"129 180 CURVE SMOOTH",
"129 612 LINE",
"82 612 LINE",
"82 168 LINE SMOOTH",
"82 47 OFFCURVE",
"152 -9 OFFCURVE",
"292 -9 CURVE SMOOTH"
);
},
{
closed = 1;
nodes = (
"199 741 OFFCURVE",
"212 762 OFFCURVE",
"241 762 CURVE SMOOTH",
"278 762 OFFCURVE",
"307 709 OFFCURVE",
"356 709 CURVE SMOOTH",
"401 709 OFFCURVE",
"426 741 OFFCURVE",
"429 793 CURVE",
"398 803 LINE",
"394 770 OFFCURVE",
"381 749 OFFCURVE",
"352 749 CURVE SMOOTH",
"314 749 OFFCURVE",
"284 802 OFFCURVE",
"237 802 CURVE SMOOTH",
"192 802 OFFCURVE",
"167 770 OFFCURVE",
"164 718 CURVE",
"195 709 LINE"
);
}
);
width = 592;
}
);
note = Utilde;
unicode = 0168;
},
{
glyphname = V;
lastChange = "2015-07-20 11:46:10 +0000";
layers = (
{
layerId = "0B91E381-1358-4F31-B824-AB2EAC4429E5";
name = Light;
paths = (
{
closed = 1;
nodes = (
"326 0 LINE",
"405 174 OFFCURVE",
"480 411 OFFCURVE",
"531 613 CURVE",
"481 618 LINE",
"435 422 OFFCURVE",
"353 174 OFFCURVE",
"297 45 CURVE",
"279 45 LINE",
"222 174 OFFCURVE",
"141 422 OFFCURVE",
"95 618 CURVE",
"45 613 LINE",
"95 411 OFFCURVE",
"171 174 OFFCURVE",
"250 0 CURVE"
);
}
);
width = 575;
}
);
note = V;
unicode = 0056;
},
{
glyphname = W;
lastChange = "2015-07-20 12:45:34 +0000";
layers = (
{
layerId = "0B91E381-1358-4F31-B824-AB2EAC4429E5";
name = Light;
paths = (
{
closed = 1;
nodes = (
"261 0 LINE",
"325 144 OFFCURVE",
"376 283 OFFCURVE",
"414 405 CURVE",
"423 405 LINE",
"460 270 OFFCURVE",
"497 154 OFFCURVE",
"554 0 CURVE",
"615 0 LINE",
"668 175 OFFCURVE",
"723 382 OFFCURVE",
"772 610 CURVE",
"722 617 LINE",
"680 395 OFFCURVE",
"626 189 OFFCURVE",
"587 52 CURVE",
"580 52 LINE",
"525 205 OFFCURVE",
"462 408 OFFCURVE",
"420 610 CURVE",
"373 603 LINE",
"379 575 OFFCURVE",
"391 519 OFFCURVE",
"397 491 CURVE",
"350 334 OFFCURVE",
"289 168 OFFCURVE",
"240 52 CURVE",
"233 52 LINE",
"195 189 OFFCURVE",
"141 395 OFFCURVE",
"98 617 CURVE",
"48 610 LINE",
"98 382 OFFCURVE",
"152 175 OFFCURVE",
"205 0 CURVE"
);
}
);
width = 820;
}
);
leftKerningGroup = W;
note = W;
rightKerningGroup = W;
unicode = 0057;
},
{
glyphname = Wacute;
lastChange = "2015-07-20 12:45:34 +0000";
layers = (
{
layerId = "0B91E381-1358-4F31-B824-AB2EAC4429E5";
name = Light;
paths = (
{
closed = 1;
nodes = (
"261 0 LINE",
"325 144 OFFCURVE",
"376 283 OFFCURVE",
"414 405 CURVE",
"423 405 LINE",
"460 270 OFFCURVE",
"497 154 OFFCURVE",
"554 0 CURVE",
"615 0 LINE",
"668 175 OFFCURVE",
"723 382 OFFCURVE",
"772 610 CURVE",
"722 617 LINE",
"680 395 OFFCURVE",
"626 189 OFFCURVE",
"587 52 CURVE",
"580 52 LINE",
"525 205 OFFCURVE",
"462 408 OFFCURVE",
"420 610 CURVE",
"373 603 LINE",
"379 575 OFFCURVE",
"391 519 OFFCURVE",
"397 491 CURVE",
"350 334 OFFCURVE",
"289 168 OFFCURVE",
"240 52 CURVE",
"233 52 LINE",
"195 189 OFFCURVE",
"141 395 OFFCURVE",
"98 617 CURVE",
"48 610 LINE",
"98 382 OFFCURVE",
"152 175 OFFCURVE",
"205 0 CURVE"
);
},
{
closed = 1;
nodes = (
"524 847 LINE",
"462 854 LINE",
"378 713 LINE",
"410 708 LINE"
);
}
);
width = 820;
}
);
leftKerningGroup = W;
note = Wacute;
rightKerningGroup = W;
unicode = 1E82;
},
{
glyphname = Wcircumflex;
lastChange = "2015-07-20 12:45:34 +0000";
layers = (
{
layerId = "0B91E381-1358-4F31-B824-AB2EAC4429E5";
name = Light;
paths = (
{
closed = 1;
nodes = (
"261 0 LINE",
"325 144 OFFCURVE",
"376 283 OFFCURVE",
"414 405 CURVE",
"423 405 LINE",
"460 270 OFFCURVE",
"497 154 OFFCURVE",
"554 0 CURVE",
"615 0 LINE",
"668 175 OFFCURVE",
"723 382 OFFCURVE",
"772 610 CURVE",
"722 617 LINE",
"680 395 OFFCURVE",
"626 189 OFFCURVE",
"587 52 CURVE",
"580 52 LINE",
"525 205 OFFCURVE",
"462 408 OFFCURVE",
"420 610 CURVE",
"373 603 LINE",
"379 575 OFFCURVE",
"391 519 OFFCURVE",
"397 491 CURVE",
"350 334 OFFCURVE",
"289 168 OFFCURVE",
"240 52 CURVE",
"233 52 LINE",
"195 189 OFFCURVE",
"141 395 OFFCURVE",
"98 617 CURVE",
"48 610 LINE",
"98 382 OFFCURVE",
"152 175 OFFCURVE",
"205 0 CURVE"
);
},
{
closed = 1;
nodes = (
"408 804 LINE",
"413 804 LINE",
"506 706 LINE",
"536 713 LINE",
"435 844 LINE",
"386 844 LINE",
"284 713 LINE",
"314 706 LINE"
);
}
);
width = 820;
}
);
leftKerningGroup = W;
note = Wcircumflex;
rightKerningGroup = W;
unicode = 0174;
},
{
glyphname = Wdieresis;
lastChange = "2015-07-20 12:45:34 +0000";
layers = (
{
layerId = "0B91E381-1358-4F31-B824-AB2EAC4429E5";
name = Light;
paths = (
{
closed = 1;
nodes = (
"261 0 LINE",
"325 144 OFFCURVE",
"376 283 OFFCURVE",
"414 405 CURVE",
"423 405 LINE",
"460 270 OFFCURVE",
"497 154 OFFCURVE",
"554 0 CURVE",
"615 0 LINE",
"668 175 OFFCURVE",
"723 382 OFFCURVE",
"772 610 CURVE",
"722 617 LINE",
"680 395 OFFCURVE",
"626 189 OFFCURVE",
"587 52 CURVE",
"580 52 LINE",
"525 205 OFFCURVE",
"462 408 OFFCURVE",
"420 610 CURVE",
"373 603 LINE",
"379 575 OFFCURVE",
"391 519 OFFCURVE",
"397 491 CURVE",
"350 334 OFFCURVE",
"289 168 OFFCURVE",
"240 52 CURVE",
"233 52 LINE",
"195 189 OFFCURVE",
"141 395 OFFCURVE",
"98 617 CURVE",
"48 610 LINE",
"98 382 OFFCURVE",
"152 175 OFFCURVE",
"205 0 CURVE"
);
},
{
closed = 1;
nodes = (
"352 709 OFFCURVE",
"364 721 OFFCURVE",
"364 740 CURVE SMOOTH",
"364 761 OFFCURVE",
"352 772 OFFCURVE",
"332 772 CURVE SMOOTH",
"312 772 OFFCURVE",
"299 761 OFFCURVE",
"299 740 CURVE SMOOTH",
"299 721 OFFCURVE",
"312 709 OFFCURVE",
"332 709 CURVE SMOOTH"
);
},
{
closed = 1;
nodes = (
"510 709 OFFCURVE",
"522 721 OFFCURVE",
"522 740 CURVE SMOOTH",
"522 761 OFFCURVE",
"510 772 OFFCURVE",
"490 772 CURVE SMOOTH",
"469 772 OFFCURVE",
"456 761 OFFCURVE",
"456 740 CURVE SMOOTH",
"456 721 OFFCURVE",
"469 709 OFFCURVE",
"490 709 CURVE SMOOTH"
);
}
);
width = 820;
}
);
leftKerningGroup = W;
note = Wdieresis;
rightKerningGroup = W;
unicode = 1E84;
},
{
glyphname = Wgrave;
lastChange = "2015-07-20 12:45:34 +0000";
layers = (
{
layerId = "0B91E381-1358-4F31-B824-AB2EAC4429E5";
name = Light;
paths = (
{
closed = 1;
nodes = (
"261 0 LINE",
"325 144 OFFCURVE",
"376 283 OFFCURVE",
"414 405 CURVE",
"423 405 LINE",
"460 270 OFFCURVE",
"497 154 OFFCURVE",
"554 0 CURVE",
"615 0 LINE",
"668 175 OFFCURVE",
"723 382 OFFCURVE",
"772 610 CURVE",
"722 617 LINE",
"680 395 OFFCURVE",
"626 189 OFFCURVE",
"587 52 CURVE",
"580 52 LINE",
"525 205 OFFCURVE",
"462 408 OFFCURVE",
"420 610 CURVE",
"373 603 LINE",
"379 575 OFFCURVE",
"391 519 OFFCURVE",
"397 491 CURVE",
"350 334 OFFCURVE",
"289 168 OFFCURVE",
"240 52 CURVE",
"233 52 LINE",
"195 189 OFFCURVE",
"141 395 OFFCURVE",
"98 617 CURVE",
"48 610 LINE",
"98 382 OFFCURVE",
"152 175 OFFCURVE",
"205 0 CURVE"
);
},
{
closed = 1;
nodes = (
"447 713 LINE",
"363 854 LINE",
"301 847 LINE",
"415 708 LINE"
);
}
);
width = 820;
}
);
leftKerningGroup = W;
note = Wgrave;
rightKerningGroup = W;
unicode = 1E80;
},
{
glyphname = X;
lastChange = "2015-07-20 10:39:03 +0000";
layers = (
{
layerId = "0B91E381-1358-4F31-B824-AB2EAC4429E5";
name = Light;
paths = (
{
closed = 1;
nodes = (
"152 93 OFFCURVE",
"209 177 OFFCURVE",
"288 284 CURVE",
"320 284 LINE",
"396 180 OFFCURVE",
"453 93 OFFCURVE",
"505 -6 CURVE",
"554 8 LINE",
"499 108 OFFCURVE",
"424 222 OFFCURVE",
"359 308 CURVE",
"422 394 OFFCURVE",
"492 504 OFFCURVE",
"548 607 CURVE",
"499 619 LINE",
"444 513 OFFCURVE",
"386 422 OFFCURVE",
"321 331 CURVE",
"286 331 LINE",
"225 420 OFFCURVE",
"167 514 OFFCURVE",
"113 619 CURVE",
"62 607 LINE",
"117 505 OFFCURVE",
"189 389 OFFCURVE",
"249 306 CURVE",
"182 219 OFFCURVE",
"108 109 OFFCURVE",
"51 8 CURVE",
"99 -6 LINE"
);
}
);
width = 609;
}
);
note = X;
unicode = 0058;
},
{
glyphname = Y;
lastChange = "2015-07-20 11:57:28 +0000";
layers = (
{
layerId = "0B91E381-1358-4F31-B824-AB2EAC4429E5";
name = Light;
paths = (
{
closed = 1;
nodes = (
"319 0 LINE",
"319 228 LINE",
"338 228 LINE",
"422 332 OFFCURVE",
"495 455 OFFCURVE",
"559 604 CURVE",
"512 618 LINE",
"458 482 OFFCURVE",
"382 356 OFFCURVE",
"314 267 CURVE",
"277 267 LINE",
"208 356 OFFCURVE",
"133 482 OFFCURVE",
"79 618 CURVE",
"32 604 LINE",
"95 455 OFFCURVE",
"169 332 OFFCURVE",
"253 228 CURVE",
"272 228 LINE",
"272 0 LINE"
);
}
);
width = 591;
}
);
leftKerningGroup = Y;
note = Y;
rightKerningGroup = Y;
unicode = 0059;
},
{
glyphname = Yacute;
lastChange = "2015-07-20 11:41:47 +0000";
layers = (
{
layerId = "0B91E381-1358-4F31-B824-AB2EAC4429E5";
name = Light;
paths = (
{
closed = 1;
nodes = (
"319 0 LINE",
"319 228 LINE",
"338 228 LINE",
"422 332 OFFCURVE",
"495 455 OFFCURVE",
"559 604 CURVE",
"512 618 LINE",
"458 482 OFFCURVE",
"382 356 OFFCURVE",
"314 267 CURVE",
"277 267 LINE",
"208 356 OFFCURVE",
"133 482 OFFCURVE",
"79 618 CURVE",
"32 604 LINE",
"95 455 OFFCURVE",
"169 332 OFFCURVE",
"253 228 CURVE",
"272 228 LINE",
"272 0 LINE"
);
},
{
closed = 1;
nodes = (
"414 847 LINE",
"352 854 LINE",
"268 713 LINE",
"300 707 LINE"
);
}
);
width = 591;
}
);
leftKerningGroup = Y;
note = Yacute;
rightKerningGroup = Y;
unicode = 00DD;
},
{
glyphname = Ycircumflex;
lastChange = "2015-07-20 11:41:47 +0000";
layers = (
{
layerId = "0B91E381-1358-4F31-B824-AB2EAC4429E5";
name = Light;
paths = (
{
closed = 1;
nodes = (
"319 0 LINE",
"319 228 LINE",
"338 228 LINE",
"422 332 OFFCURVE",
"495 455 OFFCURVE",
"559 604 CURVE",
"512 618 LINE",
"458 482 OFFCURVE",
"382 356 OFFCURVE",
"314 267 CURVE",
"277 267 LINE",
"208 356 OFFCURVE",
"133 482 OFFCURVE",
"79 618 CURVE",
"32 604 LINE",
"95 455 OFFCURVE",
"169 332 OFFCURVE",
"253 228 CURVE",
"272 228 LINE",
"272 0 LINE"
);
},
{
closed = 1;
nodes = (
"293 805 LINE",
"298 805 LINE",
"391 707 LINE",
"421 714 LINE",
"320 845 LINE",
"271 845 LINE",
"169 714 LINE",
"199 707 LINE"
);
}
);
width = 591;
}
);
leftKerningGroup = Y;
note = Ycircumflex;
rightKerningGroup = Y;
unicode = 0176;
},
{
glyphname = Ydieresis;
lastChange = "2015-07-20 11:41:47 +0000";
layers = (
{
layerId = "0B91E381-1358-4F31-B824-AB2EAC4429E5";
name = Light;
paths = (
{
closed = 1;
nodes = (
"319 0 LINE",
"319 228 LINE",
"338 228 LINE",
"422 332 OFFCURVE",
"495 455 OFFCURVE",
"559 604 CURVE",
"512 618 LINE",
"458 482 OFFCURVE",
"382 356 OFFCURVE",
"314 267 CURVE",
"277 267 LINE",
"208 356 OFFCURVE",
"133 482 OFFCURVE",
"79 618 CURVE",
"32 604 LINE",
"95 455 OFFCURVE",
"169 332 OFFCURVE",
"253 228 CURVE",
"272 228 LINE",
"272 0 LINE"
);
},
{
closed = 1;
nodes = (
"237 709 OFFCURVE",
"249 721 OFFCURVE",
"249 740 CURVE SMOOTH",
"249 761 OFFCURVE",
"237 772 OFFCURVE",
"217 772 CURVE SMOOTH",
"197 772 OFFCURVE",
"184 761 OFFCURVE",
"184 740 CURVE SMOOTH",
"184 721 OFFCURVE",
"197 709 OFFCURVE",
"217 709 CURVE SMOOTH"
);
},
{
closed = 1;
nodes = (
"395 709 OFFCURVE",
"407 721 OFFCURVE",
"407 740 CURVE SMOOTH",
"407 761 OFFCURVE",
"395 772 OFFCURVE",
"375 772 CURVE SMOOTH",
"354 772 OFFCURVE",
"341 761 OFFCURVE",
"341 740 CURVE SMOOTH",
"341 721 OFFCURVE",
"354 709 OFFCURVE",
"375 709 CURVE SMOOTH"
);
}
);
width = 591;
}
);
leftKerningGroup = Y;
note = Ydieresis;
rightKerningGroup = Y;
unicode = 0178;
},
{
glyphname = Ydotaccent;
lastChange = "2015-07-20 11:41:47 +0000";
layers = (
{
layerId = "0B91E381-1358-4F31-B824-AB2EAC4429E5";
name = Light;
paths = (
{
closed = 1;
nodes = (
"319 0 LINE",
"319 228 LINE",
"338 228 LINE",
"422 332 OFFCURVE",
"495 455 OFFCURVE",
"559 604 CURVE",
"512 618 LINE",
"458 482 OFFCURVE",
"382 356 OFFCURVE",
"314 267 CURVE",
"277 267 LINE",
"208 356 OFFCURVE",
"133 482 OFFCURVE",
"79 618 CURVE",
"32 604 LINE",
"95 455 OFFCURVE",
"169 332 OFFCURVE",
"253 228 CURVE",
"272 228 LINE",
"272 0 LINE"
);
},
{
closed = 1;
nodes = (
"324 709 OFFCURVE",
"339 723 OFFCURVE",
"339 749 CURVE SMOOTH",
"339 777 OFFCURVE",
"324 791 OFFCURVE",
"297 791 CURVE SMOOTH",
"269 791 OFFCURVE",
"253 777 OFFCURVE",
"253 749 CURVE SMOOTH",
"253 723 OFFCURVE",
"269 709 OFFCURVE",
"297 709 CURVE SMOOTH"
);
}
);
width = 591;
}
);
leftKerningGroup = Y;
note = Ydotaccent;
rightKerningGroup = Y;
unicode = 1E8E;
},
{
glyphname = Ydotbelow;
lastChange = "2015-07-20 11:41:47 +0000";
layers = (
{
layerId = "0B91E381-1358-4F31-B824-AB2EAC4429E5";
name = Light;
paths = (
{
closed = 1;
nodes = (
"319 0 LINE",
"319 228 LINE",
"338 228 LINE",
"422 332 OFFCURVE",
"495 455 OFFCURVE",
"559 604 CURVE",
"512 618 LINE",
"458 482 OFFCURVE",
"382 356 OFFCURVE",
"314 267 CURVE",
"277 267 LINE",
"208 356 OFFCURVE",
"133 482 OFFCURVE",
"79 618 CURVE",
"32 604 LINE",
"95 455 OFFCURVE",
"169 332 OFFCURVE",
"253 228 CURVE",
"272 228 LINE",
"272 0 LINE"
);
},
{
closed = 1;
nodes = (
"324 -152 OFFCURVE",
"339 -138 OFFCURVE",
"339 -112 CURVE SMOOTH",
"339 -85 OFFCURVE",
"324 -70 OFFCURVE",
"297 -70 CURVE SMOOTH",
"269 -70 OFFCURVE",
"253 -85 OFFCURVE",
"253 -112 CURVE SMOOTH",
"253 -138 OFFCURVE",
"269 -152 OFFCURVE",
"297 -152 CURVE SMOOTH"
);
}
);
width = 591;
}
);
leftKerningGroup = Y;
note = Ydotbelow;
rightKerningGroup = Y;
unicode = 1EF4;
},
{
glyphname = Ygrave;
lastChange = "2015-07-20 11:41:47 +0000";
layers = (
{
layerId = "0B91E381-1358-4F31-B824-AB2EAC4429E5";
name = Light;
paths = (
{
closed = 1;
nodes = (
"319 0 LINE",
"319 228 LINE",
"338 228 LINE",
"422 332 OFFCURVE",
"495 455 OFFCURVE",
"559 604 CURVE",
"512 618 LINE",
"458 482 OFFCURVE",
"382 356 OFFCURVE",
"314 267 CURVE",
"277 267 LINE",
"208 356 OFFCURVE",
"133 482 OFFCURVE",
"79 618 CURVE",
"32 604 LINE",
"95 455 OFFCURVE",
"169 332 OFFCURVE",
"253 228 CURVE",
"272 228 LINE",
"272 0 LINE"
);
},
{
closed = 1;
nodes = (
"322 714 LINE",
"238 855 LINE",
"176 848 LINE",
"290 708 LINE"
);
}
);
width = 591;
}
);
leftKerningGroup = Y;
note = Ygrave;
rightKerningGroup = Y;
unicode = 1EF2;
},
{
glyphname = Yhookabove;
lastChange = "2015-07-20 11:41:47 +0000";
layers = (
{
layerId = "0B91E381-1358-4F31-B824-AB2EAC4429E5";
name = Light;
paths = (
{
closed = 1;
nodes = (
"319 0 LINE",
"319 228 LINE",
"338 228 LINE",
"422 332 OFFCURVE",
"495 455 OFFCURVE",
"559 604 CURVE",
"512 618 LINE",
"458 482 OFFCURVE",
"382 356 OFFCURVE",
"314 267 CURVE",
"277 267 LINE",
"208 356 OFFCURVE",
"133 482 OFFCURVE",
"79 618 CURVE",
"32 604 LINE",
"95 455 OFFCURVE",
"169 332 OFFCURVE",
"253 228 CURVE",
"272 228 LINE",
"272 0 LINE"
);
},
{
closed = 1;
nodes = (
"310 714 LINE",
"310 753 LINE",
"362 756 OFFCURVE",
"399 774 OFFCURVE",
"399 827 CURVE SMOOTH",
"399 869 OFFCURVE",
"376 901 OFFCURVE",
"320 901 CURVE SMOOTH",
"294 901 OFFCURVE",
"275 897 OFFCURVE",
"251 888 CURVE",
"261 857 LINE",
"279 863 OFFCURVE",
"296 865 OFFCURVE",
"312 865 CURVE SMOOTH",
"347 865 OFFCURVE",
"360 852 OFFCURVE",
"360 827 CURVE SMOOTH",
"360 793 OFFCURVE",
"337 786 OFFCURVE",
"272 786 CURVE",
"272 763 LINE",
"283 714 LINE"
);
}
);
width = 591;
}
);
leftKerningGroup = Y;
note = Yhookabove;
rightKerningGroup = Y;
unicode = 1EF6;
},
{
glyphname = Ytilde;
lastChange = "2015-07-20 11:41:47 +0000";
layers = (
{
layerId = "0B91E381-1358-4F31-B824-AB2EAC4429E5";
name = Light;
paths = (
{
closed = 1;
nodes = (
"319 0 LINE",
"319 228 LINE",
"338 228 LINE",
"422 332 OFFCURVE",
"495 455 OFFCURVE",
"559 604 CURVE",
"512 618 LINE",
"458 482 OFFCURVE",
"382 356 OFFCURVE",
"314 267 CURVE",
"277 267 LINE",
"208 356 OFFCURVE",
"133 482 OFFCURVE",
"79 618 CURVE",
"32 604 LINE",
"95 455 OFFCURVE",
"169 332 OFFCURVE",
"253 228 CURVE",
"272 228 LINE",
"272 0 LINE"
);
},
{
closed = 1;
nodes = (
"198 740 OFFCURVE",
"211 761 OFFCURVE",
"240 761 CURVE SMOOTH",
"277 761 OFFCURVE",
"306 708 OFFCURVE",
"355 708 CURVE SMOOTH",
"400 708 OFFCURVE",
"425 740 OFFCURVE",
"428 792 CURVE",
"397 801 LINE",
"393 769 OFFCURVE",
"380 748 OFFCURVE",
"351 748 CURVE SMOOTH",
"313 748 OFFCURVE",
"283 801 OFFCURVE",
"236 801 CURVE SMOOTH",
"191 801 OFFCURVE",
"166 769 OFFCURVE",
"163 716 CURVE",
"194 707 LINE"
);
}
);
width = 591;
}
);
leftKerningGroup = Y;
note = Ytilde;
rightKerningGroup = Y;
unicode = 1EF8;
},
{
glyphname = Z;
lastChange = "2015-07-20 10:39:03 +0000";
layers = (
{
layerId = "0B91E381-1358-4F31-B824-AB2EAC4429E5";
name = Light;
paths = (
{
closed = 1;
nodes = (
"487 0 LINE",
"487 30 LINE SMOOTH",
"487 63 OFFCURVE",
"481 95 OFFCURVE",
"472 118 CURVE",
"439 118 LINE",
"439 43 LINE",
"113 43 LINE",
"113 52 LINE",
"478 556 LINE",
"478 612 LINE",
"77 612 LINE",
"77 581 LINE SMOOTH",
"77 547 OFFCURVE",
"83 521 OFFCURVE",
"91 498 CURVE",
"125 498 LINE",
"125 568 LINE",
"425 568 LINE",
"425 560 LINE",
"61 58 LINE",
"61 0 LINE"
);
}
);
width = 544;
}
);
note = Z;
unicode = 005A;
},
{
glyphname = Zacute;
lastChange = "2015-07-20 10:39:04 +0000";
layers = (
{
layerId = "0B91E381-1358-4F31-B824-AB2EAC4429E5";
name = Light;
paths = (
{
closed = 1;
nodes = (
"486 0 LINE",
"486 30 LINE SMOOTH",
"486 63 OFFCURVE",
"480 95 OFFCURVE",
"471 118 CURVE",
"438 118 LINE",
"438 43 LINE",
"112 43 LINE",
"112 52 LINE",
"477 556 LINE",
"477 612 LINE",
"76 612 LINE",
"76 581 LINE SMOOTH",
"76 547 OFFCURVE",
"82 521 OFFCURVE",
"90 498 CURVE",
"124 498 LINE",
"124 568 LINE",
"424 568 LINE",
"424 560 LINE",
"60 58 LINE",
"60 0 LINE"
);
},
{
closed = 1;
nodes = (
"385 848 LINE",
"323 854 LINE",
"239 714 LINE",
"271 708 LINE"
);
}
);
width = 545;
}
);
note = Zacute;
unicode = 0179;
},
{
glyphname = Zcaron;
lastChange = "2015-07-20 10:39:05 +0000";
layers = (
{
layerId = "0B91E381-1358-4F31-B824-AB2EAC4429E5";
name = Light;
paths = (
{
closed = 1;
nodes = (
"486 0 LINE",
"486 30 LINE SMOOTH",
"486 63 OFFCURVE",
"480 95 OFFCURVE",
"471 118 CURVE",
"438 118 LINE",
"438 43 LINE",
"112 43 LINE",
"112 52 LINE",
"477 556 LINE",
"477 612 LINE",
"76 612 LINE",
"76 581 LINE SMOOTH",
"76 547 OFFCURVE",
"82 521 OFFCURVE",
"90 498 CURVE",
"124 498 LINE",
"124 568 LINE",
"424 568 LINE",
"424 560 LINE",
"60 58 LINE",
"60 0 LINE"
);
},
{
closed = 1;
nodes = (
"300 714 LINE",
"401 845 LINE",
"371 852 LINE",
"278 754 LINE",
"273 754 LINE",
"179 852 LINE",
"149 845 LINE",
"251 714 LINE"
);
}
);
width = 545;
}
);
note = Zcaron;
unicode = 017D;
},
{
glyphname = Zdotaccent;
lastChange = "2015-07-20 10:39:04 +0000";
layers = (
{
layerId = "0B91E381-1358-4F31-B824-AB2EAC4429E5";
name = Light;
paths = (
{
closed = 1;
nodes = (
"486 0 LINE",
"486 30 LINE SMOOTH",
"486 63 OFFCURVE",
"480 95 OFFCURVE",
"471 118 CURVE",
"438 118 LINE",
"438 43 LINE",
"112 43 LINE",
"112 52 LINE",
"477 556 LINE",
"477 612 LINE",
"76 612 LINE",
"76 581 LINE SMOOTH",
"76 547 OFFCURVE",
"82 521 OFFCURVE",
"90 498 CURVE",
"124 498 LINE",
"124 568 LINE",
"424 568 LINE",
"424 560 LINE",
"60 58 LINE",
"60 0 LINE"
);
},
{
closed = 1;
nodes = (
"307 709 OFFCURVE",
"322 723 OFFCURVE",
"322 749 CURVE SMOOTH",
"322 777 OFFCURVE",
"307 791 OFFCURVE",
"280 791 CURVE SMOOTH",
"252 791 OFFCURVE",
"236 777 OFFCURVE",
"236 749 CURVE SMOOTH",
"236 723 OFFCURVE",
"252 709 OFFCURVE",
"280 709 CURVE SMOOTH"
);
}
);
width = 545;
}
);
note = Zdotaccent;
unicode = 017B;
},
{
glyphname = Zdotbelow;
lastChange = "2015-07-20 10:39:04 +0000";
layers = (
{
layerId = "0B91E381-1358-4F31-B824-AB2EAC4429E5";
name = Light;
paths = (
{
closed = 1;
nodes = (
"486 0 LINE",
"486 30 LINE SMOOTH",
"486 63 OFFCURVE",
"480 95 OFFCURVE",
"471 118 CURVE",
"438 118 LINE",
"438 43 LINE",
"112 43 LINE",
"112 52 LINE",
"477 556 LINE",
"477 612 LINE",
"76 612 LINE",
"76 581 LINE SMOOTH",
"76 547 OFFCURVE",
"82 521 OFFCURVE",
"90 498 CURVE",
"124 498 LINE",
"124 568 LINE",
"424 568 LINE",
"424 560 LINE",
"60 58 LINE",
"60 0 LINE"
);
},
{
closed = 1;
nodes = (
"308 -144 OFFCURVE",
"323 -129 OFFCURVE",
"323 -104 CURVE SMOOTH",
"323 -76 OFFCURVE",
"308 -61 OFFCURVE",
"281 -61 CURVE SMOOTH",
"253 -61 OFFCURVE",
"237 -76 OFFCURVE",
"237 -104 CURVE SMOOTH",
"237 -129 OFFCURVE",
"253 -144 OFFCURVE",
"281 -144 CURVE SMOOTH"
);
}
);
width = 545;
}
);
note = Zdotbelow;
unicode = 1E92;
},
{
glyphname = a;
lastChange = "2015-07-20 11:41:56 +0000";
layers = (
{
layerId = "0B91E381-1358-4F31-B824-AB2EAC4429E5";
name = Light;
paths = (
{
closed = 1;
nodes = (
"247 -9 OFFCURVE",
"298 20 OFFCURVE",
"334 67 CURVE",
"341 67 LINE",
"345 0 LINE",
"382 0 LINE",
"382 332 LINE SMOOTH",
"382 425 OFFCURVE",
"332 474 OFFCURVE",
"245 474 CURVE SMOOTH",
"186 474 OFFCURVE",
"124 453 OFFCURVE",
"85 431 CURVE",
"85 417 LINE SMOOTH",
"85 399 OFFCURVE",
"88 377 OFFCURVE",
"94 360 CURVE",
"127 360 LINE",
"137 430 LINE",
"163 433 OFFCURVE",
"196 436 OFFCURVE",
"223 436 CURVE SMOOTH",
"304 436 OFFCURVE",
"337 408 OFFCURVE",
"337 322 CURVE SMOOTH",
"337 249 LINE",
"314 252 OFFCURVE",
"283 254 OFFCURVE",
"251 254 CURVE SMOOTH",
"124 254 OFFCURVE",
"49 205 OFFCURVE",
"49 104 CURVE SMOOTH",
"49 36 OFFCURVE",
"93 -9 OFFCURVE",
"179 -9 CURVE SMOOTH"
);
},
{
closed = 1;
nodes = (
"130 29 OFFCURVE",
"94 47 OFFCURVE",
"94 113 CURVE SMOOTH",
"94 148 OFFCURVE",
"103 178 OFFCURVE",
"121 207 CURVE",
"154 215 OFFCURVE",
"196 219 OFFCURVE",
"233 219 CURVE SMOOTH",
"271 219 OFFCURVE",
"306 217 OFFCURVE",
"338 212 CURVE",
"338 111 LINE",
"305 60 OFFCURVE",
"251 29 OFFCURVE",
"187 29 CURVE SMOOTH"
);
}
);
width = 459;
}
);
leftKerningGroup = a;
note = a;
rightKerningGroup = a;
unicode = 0061;
},
